<?xml version="1.0" encoding="UTF-8"?>
<!DOCTYPE svg PUBLIC "-//W3C//DTD SVG 1.1//EN" "http://www.w3.org/Graphics/SVG/1.1/DTD/svg11.dtd">
<svg version="1.2" width="300mm" height="170mm" viewBox="0 0 30000 17000" preserveAspectRatio="xMidYMid" fill-rule="evenodd" stroke-width="28.222" stroke-linejoin="round" xmlns="http://www.w3.org/2000/svg" xmlns:ooo="http://xml.openoffice.org/svg/export" xmlns:xlink="http://www.w3.org/1999/xlink" xmlns:presentation="http://sun.com/xmlns/staroffice/presentation" xmlns:smil="http://www.w3.org/2001/SMIL20/" xmlns:anim="urn:oasis:names:tc:opendocument:xmlns:animation:1.0" xml:space="preserve">
 <defs class="ClipPathGroup">
  <clipPath id="presentation_clip_path" clipPathUnits="userSpaceOnUse">
   <rect x="0" y="0" width="30000" height="17000"/>
  </clipPath>
  <clipPath id="presentation_clip_path_shrink" clipPathUnits="userSpaceOnUse">
   <rect x="30" y="17" width="29940" height="16966"/>
  </clipPath>
 </defs>
 <defs class="TextShapeIndex">
  <g ooo:slide="id1" ooo:id-list="id3 id4"/>
 </defs>
 <defs class="EmbeddedBulletChars">
  <g id="bullet-char-template-57356" transform="scale(0.00048828125,-0.00048828125)">
   <path d="M 580,1141 L 1163,571 580,0 -4,571 580,1141 Z"/>
  </g>
  <g id="bullet-char-template-57354" transform="scale(0.00048828125,-0.00048828125)">
   <path d="M 8,1128 L 1137,1128 1137,0 8,0 8,1128 Z"/>
  </g>
  <g id="bullet-char-template-10146" transform="scale(0.00048828125,-0.00048828125)">
   <path d="M 174,0 L 602,739 174,1481 1456,739 174,0 Z M 1358,739 L 309,1346 659,739 1358,739 Z"/>
  </g>
  <g id="bullet-char-template-10132" transform="scale(0.00048828125,-0.00048828125)">
   <path d="M 2015,739 L 1276,0 717,0 1260,543 174,543 174,936 1260,936 717,1481 1274,1481 2015,739 Z"/>
  </g>
  <g id="bullet-char-template-10007" transform="scale(0.00048828125,-0.00048828125)">
   <path d="M 0,-2 C -7,14 -16,27 -25,37 L 356,567 C 262,823 215,952 215,954 215,979 228,992 255,992 264,992 276,990 289,987 310,991 331,999 354,1012 L 381,999 492,748 772,1049 836,1024 860,1049 C 881,1039 901,1025 922,1006 886,937 835,863 770,784 769,783 710,716 594,584 L 774,223 C 774,196 753,168 711,139 L 727,119 C 717,90 699,76 672,76 641,76 570,178 457,381 L 164,-76 C 142,-110 111,-127 72,-127 30,-127 9,-110 8,-76 1,-67 -2,-52 -2,-32 -2,-23 -1,-13 0,-2 Z"/>
  </g>
  <g id="bullet-char-template-10004" transform="scale(0.00048828125,-0.00048828125)">
   <path d="M 285,-33 C 182,-33 111,30 74,156 52,228 41,333 41,471 41,549 55,616 82,672 116,743 169,778 240,778 293,778 328,747 346,684 L 369,508 C 377,444 397,411 428,410 L 1163,1116 C 1174,1127 1196,1133 1229,1133 1271,1133 1292,1118 1292,1087 L 1292,965 C 1292,929 1282,901 1262,881 L 442,47 C 390,-6 338,-33 285,-33 Z"/>
  </g>
  <g id="bullet-char-template-9679" transform="scale(0.00048828125,-0.00048828125)">
   <path d="M 813,0 C 632,0 489,54 383,161 276,268 223,411 223,592 223,773 276,916 383,1023 489,1130 632,1184 813,1184 992,1184 1136,1130 1245,1023 1353,916 1407,772 1407,592 1407,412 1353,268 1245,161 1136,54 992,0 813,0 Z"/>
  </g>
  <g id="bullet-char-template-8226" transform="scale(0.00048828125,-0.00048828125)">
   <path d="M 346,457 C 273,457 209,483 155,535 101,586 74,649 74,723 74,796 101,859 155,911 209,963 273,989 346,989 419,989 480,963 531,910 582,859 608,796 608,723 608,648 583,586 532,535 482,483 420,457 346,457 Z"/>
  </g>
  <g id="bullet-char-template-8211" transform="scale(0.00048828125,-0.00048828125)">
   <path d="M -4,459 L 1135,459 1135,606 -4,606 -4,459 Z"/>
  </g>
  <g id="bullet-char-template-61548" transform="scale(0.00048828125,-0.00048828125)">
   <path d="M 173,740 C 173,903 231,1043 346,1159 462,1274 601,1332 765,1332 928,1332 1067,1274 1183,1159 1299,1043 1357,903 1357,740 1357,577 1299,437 1183,322 1067,206 928,148 765,148 601,148 462,206 346,322 231,437 173,577 173,740 Z"/>
  </g>
 </defs>
 <g>
  <g id="id2" class="Master_Slide">
   <g id="bg-id2" class="Background"/>
   <g id="bo-id2" class="BackgroundObjects"/>
  </g>
 </g>
 <g class="SlideGroup">
  <g>
   <g id="container-id1">
    <g id="id1" class="Slide" clip-path="url(#presentation_clip_path)">
     <g class="Page">
      <g class="Group">
       <g class="com.sun.star.drawing.ClosedBezierShape">
        <g id="id3">
         <rect class="BoundingBox" stroke="none" fill="none" x="8007" y="3731" width="7153" height="7125"/>
         <path fill="rgb(255,179,0)" stroke="none" d="M 11589,3785 C 11736,3797 11875,3830 12002,3891 12128,3948 12247,4030 12345,4136 12443,4238 12524,4369 12586,4520 12643,4671 12684,4843 12696,5043 L 12696,5047 12696,5043 C 12700,5084 12708,5116 12716,5141 12725,5169 12737,5194 12753,5214 12770,5235 12790,5255 12814,5271 12839,5292 12872,5312 12913,5333 13509,5594 14105,5847 14702,6109 L 14706,6109 C 14771,6141 14836,6182 14885,6223 14938,6268 14979,6313 15012,6362 15049,6411 15073,6460 15086,6513 15102,6566 15106,6619 15106,6672 15106,6734 15098,6791 15077,6852 15061,6909 15032,6967 14996,7016 14959,7065 14914,7110 14865,7142 14816,7179 14759,7208 14697,7224 14354,7314 14015,7400 13672,7485 13656,7489 13640,7498 13627,7506 13615,7518 13607,7526 13595,7538 13586,7551 13582,7567 13574,7579 13570,7596 13566,7616 13566,7632 13566,7661 13570,7690 13582,7718 13591,7755 13603,7788 13623,7824 L 14828,10467 14828,10471 C 14836,10504 14840,10532 14840,10565 14840,10598 14836,10626 14828,10655 14820,10684 14808,10708 14787,10733 14779,10741 14771,10753 14759,10761 14751,10769 14738,10777 14726,10786 14714,10790 14702,10794 14689,10798 14673,10802 14661,10802 14644,10802 14636,10802 14624,10802 14616,10802 L 12614,10802 C 12553,10798 12504,10794 12459,10786 12414,10773 12377,10761 12345,10741 12312,10720 12283,10696 12263,10667 12239,10639 12222,10606 12206,10565 12096,10373 12006,10091 11904,9850 11855,9736 11806,9626 11748,9552 11724,9515 11695,9483 11667,9466 11654,9454 11642,9446 11626,9442 11614,9434 11601,9434 11585,9434 11569,9434 11556,9434 11544,9442 11528,9446 11516,9454 11503,9466 11475,9483 11446,9515 11422,9552 11364,9626 11315,9736 11266,9850 11164,10091 11070,10373 10964,10565 10948,10606 10931,10639 10907,10667 10882,10696 10858,10720 10825,10741 10793,10761 10756,10773 10711,10786 10670,10794 10617,10798 10556,10802 L 8554,10802 C 8546,10802 8534,10802 8526,10802 8509,10802 8493,10802 8481,10798 8468,10794 8452,10790 8440,10786 8428,10777 8415,10769 8407,10761 8395,10753 8391,10741 8379,10733 8362,10708 8350,10684 8342,10655 8334,10626 8330,10598 8330,10565 8330,10532 8334,10504 8342,10471 L 8342,10467 9547,7824 C 9567,7788 9579,7755 9588,7718 9596,7690 9604,7661 9604,7632 9604,7616 9600,7596 9592,7579 9588,7567 9584,7551 9575,7538 9563,7526 9555,7518 9543,7506 9530,7498 9514,7489 9498,7485 9155,7400 8816,7314 8473,7224 8411,7208 8354,7179 8305,7142 8256,7110 8211,7065 8174,7016 8138,6967 8109,6909 8089,6852 8068,6791 8060,6734 8060,6672 8060,6619 8064,6566 8080,6513 8101,6460 8121,6411 8154,6362 8191,6313 8232,6268 8285,6223 8334,6182 8395,6141 8464,6109 9065,5847 9661,5594 10258,5333 10294,5312 10331,5292 10356,5271 10380,5255 10400,5235 10417,5214 10433,5194 10441,5169 10454,5141 10462,5116 10470,5084 10474,5043 L 10474,5047 10474,5043 C 10486,4843 10523,4671 10584,4520 10646,4369 10727,4238 10825,4136 10923,4030 11042,3948 11168,3891 11295,3830 11430,3797 11581,3785 L 11585,3785 11589,3785 Z"/>
         <path fill="none" stroke="rgb(255,179,0)" stroke-width="106" stroke-linejoin="round" d="M 11589,3785 C 11736,3797 11875,3830 12002,3891 12128,3948 12247,4030 12345,4136 12443,4238 12524,4369 12586,4520 12643,4671 12684,4843 12696,5043 L 12696,5047 12696,5043 C 12700,5084 12708,5116 12716,5141 12725,5169 12737,5194 12753,5214 12770,5235 12790,5255 12814,5271 12839,5292 12872,5312 12913,5333 13509,5594 14105,5847 14702,6109 L 14706,6109 C 14771,6141 14836,6182 14885,6223 14938,6268 14979,6313 15012,6362 15049,6411 15073,6460 15086,6513 15102,6566 15106,6619 15106,6672 15106,6734 15098,6791 15077,6852 15061,6909 15032,6967 14996,7016 14959,7065 14914,7110 14865,7142 14816,7179 14759,7208 14697,7224 14354,7314 14015,7400 13672,7485 13656,7489 13640,7498 13627,7506 L 13595,7538 C 13586,7551 13582,7567 13574,7579 13570,7596 13566,7616 13566,7632 13566,7661 13570,7690 13582,7718 13591,7755 13603,7788 13623,7824 L 14828,10467 14828,10471 C 14836,10504 14840,10532 14840,10565 14840,10598 14836,10626 14828,10655 14820,10684 14808,10708 14787,10733 14779,10741 14771,10753 14759,10761 14751,10769 14738,10777 14726,10786 L 14689,10798 C 14673,10802 14661,10802 14644,10802 L 14616,10802 12614,10802 C 12553,10798 12504,10794 12459,10786 12414,10773 12377,10761 12345,10741 12312,10720 12283,10696 12263,10667 12239,10639 12222,10606 12206,10565 12096,10373 12006,10091 11904,9850 11855,9736 11806,9626 11748,9552 11724,9515 11695,9483 11667,9466 11654,9454 11642,9446 11626,9442 11614,9434 11601,9434 11585,9434 11569,9434 11556,9434 11544,9442 11528,9446 11516,9454 11503,9466 11475,9483 11446,9515 11422,9552 11364,9626 11315,9736 11266,9850 11164,10091 11070,10373 10964,10565 10948,10606 10931,10639 10907,10667 10882,10696 10858,10720 10825,10741 10793,10761 10756,10773 10711,10786 10670,10794 10617,10798 10556,10802 L 8554,10802 8526,10802 C 8509,10802 8493,10802 8481,10798 8468,10794 8452,10790 8440,10786 8428,10777 8415,10769 8407,10761 8395,10753 8391,10741 8379,10733 8362,10708 8350,10684 8342,10655 8334,10626 8330,10598 8330,10565 8330,10532 8334,10504 8342,10471 L 8342,10467 9547,7824 C 9567,7788 9579,7755 9588,7718 9596,7690 9604,7661 9604,7632 9604,7616 9600,7596 9592,7579 9588,7567 9584,7551 9575,7538 L 9543,7506 C 9530,7498 9514,7489 9498,7485 9155,7400 8816,7314 8473,7224 8411,7208 8354,7179 8305,7142 8256,7110 8211,7065 8174,7016 8138,6967 8109,6909 8089,6852 8068,6791 8060,6734 8060,6672 8060,6619 8064,6566 8080,6513 8101,6460 8121,6411 8154,6362 8191,6313 8232,6268 8285,6223 8334,6182 8395,6141 8464,6109 9065,5847 9661,5594 10258,5333 10294,5312 10331,5292 10356,5271 10380,5255 10400,5235 10417,5214 10433,5194 10441,5169 10454,5141 10462,5116 10470,5084 10474,5043 L 10474,5047 10474,5043 C 10486,4843 10523,4671 10584,4520 10646,4369 10727,4238 10825,4136 10923,4030 11042,3948 11168,3891 11295,3830 11430,3797 11581,3785 L 11585,3785 11589,3785 Z"/>
        </g>
       </g>
      </g>
      <g class="Group">
       <g class="com.sun.star.drawing.ClosedBezierShape">
        <g id="id4">
         <rect class="BoundingBox" stroke="none" fill="none" x="6221" y="2441" width="17559" height="12120"/>
         <path fill="rgb(51,51,51)" stroke="none" d="M 18489,10513 L 23476,13047 C 23730,13176 23855,13559 23726,13813 L 23501,14257 C 23372,14511 22988,14636 22734,14507 L 17745,11978 C 17541,11875 17422,11606 17445,11373 L 16365,10824 C 16310,10796 16266,10747 16243,10688 14766,13123 11796,13990 9205,12674 6478,11289 5453,8147 6836,5424 8220,2697 11361,1672 14088,3057 16730,4399 17773,7390 16574,10057 16633,10044 16693,10053 16743,10079 L 17825,10623 C 18000,10467 18285,10410 18489,10513 Z M 7229,5624 C 5959,8127 6903,11009 9405,12280 11907,13551 14789,12607 16059,10105 17330,7602 16390,4722 13888,3451 11386,2180 8502,3118 7229,5624 Z"/>
         <path fill="none" stroke="rgb(0,0,0)" d="M 18489,10513 L 23476,13047 C 23730,13176 23855,13559 23726,13813 L 23501,14257 C 23372,14511 22988,14636 22734,14507 L 17745,11978 C 17541,11875 17422,11606 17445,11373 L 16365,10824 C 16310,10796 16266,10747 16243,10688 14766,13123 11796,13990 9205,12674 6478,11289 5453,8147 6836,5424 8220,2697 11361,1672 14088,3057 16730,4399 17773,7390 16574,10057 16633,10044 16693,10053 16743,10079 L 17825,10623 C 18000,10467 18285,10410 18489,10513 Z"/>
         <path fill="none" stroke="rgb(0,0,0)" d="M 7229,5624 C 5959,8127 6903,11009 9405,12280 11907,13551 14789,12607 16059,10105 17330,7602 16390,4722 13888,3451 11386,2180 8502,3118 7229,5624 Z"/>
        </g>
       </g>
      </g>
     </g>
    </g>
   </g>
  </g>
 </g>
</svg>