<?xml version="1.0" encoding="UTF-8"?>
<!DOCTYPE svg PUBLIC "-//W3C//DTD SVG 1.1//EN" "http://www.w3.org/Graphics/SVG/1.1/DTD/svg11.dtd">
<svg version="1.2" width="300mm" height="170mm" viewBox="0 0 30000 17000" preserveAspectRatio="xMidYMid" fill-rule="evenodd" stroke-width="28.222" stroke-linejoin="round" xmlns="http://www.w3.org/2000/svg" xmlns:ooo="http://xml.openoffice.org/svg/export" xmlns:xlink="http://www.w3.org/1999/xlink" xmlns:presentation="http://sun.com/xmlns/staroffice/presentation" xmlns:smil="http://www.w3.org/2001/SMIL20/" xmlns:anim="urn:oasis:names:tc:opendocument:xmlns:animation:1.0" xml:space="preserve">
 <defs class="ClipPathGroup">
  <clipPath id="presentation_clip_path" clipPathUnits="userSpaceOnUse">
   <rect x="0" y="0" width="30000" height="17000"/>
  </clipPath>
  <clipPath id="presentation_clip_path_shrink" clipPathUnits="userSpaceOnUse">
   <rect x="30" y="17" width="29940" height="16966"/>
  </clipPath>
 </defs>
 <defs class="TextShapeIndex">
  <g ooo:slide="id1" ooo:id-list="id3"/>
 </defs>
 <defs class="EmbeddedBulletChars">
  <g id="bullet-char-template-57356" transform="scale(0.00048828125,-0.00048828125)">
   <path d="M 580,1141 L 1163,571 580,0 -4,571 580,1141 Z"/>
  </g>
  <g id="bullet-char-template-57354" transform="scale(0.00048828125,-0.00048828125)">
   <path d="M 8,1128 L 1137,1128 1137,0 8,0 8,1128 Z"/>
  </g>
  <g id="bullet-char-template-10146" transform="scale(0.00048828125,-0.00048828125)">
   <path d="M 174,0 L 602,739 174,1481 1456,739 174,0 Z M 1358,739 L 309,1346 659,739 1358,739 Z"/>
  </g>
  <g id="bullet-char-template-10132" transform="scale(0.00048828125,-0.00048828125)">
   <path d="M 2015,739 L 1276,0 717,0 1260,543 174,543 174,936 1260,936 717,1481 1274,1481 2015,739 Z"/>
  </g>
  <g id="bullet-char-template-10007" transform="scale(0.00048828125,-0.00048828125)">
   <path d="M 0,-2 C -7,14 -16,27 -25,37 L 356,567 C 262,823 215,952 215,954 215,979 228,992 255,992 264,992 276,990 289,987 310,991 331,999 354,1012 L 381,999 492,748 772,1049 836,1024 860,1049 C 881,1039 901,1025 922,1006 886,937 835,863 770,784 769,783 710,716 594,584 L 774,223 C 774,196 753,168 711,139 L 727,119 C 717,90 699,76 672,76 641,76 570,178 457,381 L 164,-76 C 142,-110 111,-127 72,-127 30,-127 9,-110 8,-76 1,-67 -2,-52 -2,-32 -2,-23 -1,-13 0,-2 Z"/>
  </g>
  <g id="bullet-char-template-10004" transform="scale(0.00048828125,-0.00048828125)">
   <path d="M 285,-33 C 182,-33 111,30 74,156 52,228 41,333 41,471 41,549 55,616 82,672 116,743 169,778 240,778 293,778 328,747 346,684 L 369,508 C 377,444 397,411 428,410 L 1163,1116 C 1174,1127 1196,1133 1229,1133 1271,1133 1292,1118 1292,1087 L 1292,965 C 1292,929 1282,901 1262,881 L 442,47 C 390,-6 338,-33 285,-33 Z"/>
  </g>
  <g id="bullet-char-template-9679" transform="scale(0.00048828125,-0.00048828125)">
   <path d="M 813,0 C 632,0 489,54 383,161 276,268 223,411 223,592 223,773 276,916 383,1023 489,1130 632,1184 813,1184 992,1184 1136,1130 1245,1023 1353,916 1407,772 1407,592 1407,412 1353,268 1245,161 1136,54 992,0 813,0 Z"/>
  </g>
  <g id="bullet-char-template-8226" transform="scale(0.00048828125,-0.00048828125)">
   <path d="M 346,457 C 273,457 209,483 155,535 101,586 74,649 74,723 74,796 101,859 155,911 209,963 273,989 346,989 419,989 480,963 531,910 582,859 608,796 608,723 608,648 583,586 532,535 482,483 420,457 346,457 Z"/>
  </g>
  <g id="bullet-char-template-8211" transform="scale(0.00048828125,-0.00048828125)">
   <path d="M -4,459 L 1135,459 1135,606 -4,606 -4,459 Z"/>
  </g>
  <g id="bullet-char-template-61548" transform="scale(0.00048828125,-0.00048828125)">
   <path d="M 173,740 C 173,903 231,1043 346,1159 462,1274 601,1332 765,1332 928,1332 1067,1274 1183,1159 1299,1043 1357,903 1357,740 1357,577 1299,437 1183,322 1067,206 928,148 765,148 601,148 462,206 346,322 231,437 173,577 173,740 Z"/>
  </g>
 </defs>
 <g>
  <g id="id2" class="Master_Slide">
   <g id="bg-id2" class="Background"/>
   <g id="bo-id2" class="BackgroundObjects"/>
  </g>
 </g>
 <g class="SlideGroup">
  <g>
   <g id="container-id1">
    <g id="id1" class="Slide" clip-path="url(#presentation_clip_path)">
     <g class="Page">
      <g class="Group">
       <g class="com.sun.star.drawing.ClosedBezierShape">
        <g id="id3">
         <rect class="BoundingBox" stroke="none" fill="none" x="7203" y="746" width="15596" height="15509"/>
         <path fill="rgb(255,179,0)" stroke="none" d="M 15020,755 C 15323,798 15621,840 15924,968 16180,1096 16436,1314 16654,1527 16910,1740 17080,2044 17208,2385 17341,2730 17426,3071 17469,3545 17469,3630 17469,3716 17511,3758 17511,3801 17554,3886 17596,3929 17596,3972 17639,4014 17724,4057 17767,4099 17852,4147 17937,4189 19226,4744 20557,5303 21888,5904 22016,5947 22187,6032 22272,6117 22400,6245 22485,6331 22575,6463 22660,6548 22703,6676 22746,6762 22746,6889 22788,7017 22788,7150 22788,7278 22746,7406 22703,7534 22660,7662 22618,7790 22532,7880 22442,8007 22357,8093 22229,8178 22144,8263 22016,8306 21888,8348 21116,8562 20344,8737 19614,8907 19572,8950 19524,8950 19482,8950 19482,8993 19439,9035 19439,9035 19396,9078 19396,9121 19396,9121 19396,9163 19354,9206 19354,9249 19354,9291 19396,9381 19396,9424 19439,9509 19439,9594 19482,9680 L 22144,15516 C 22187,15601 22187,15643 22187,15729 22187,15814 22187,15857 22144,15942 22144,15984 22101,16027 22059,16117 L 22016,16160 C 21973,16160 21973,16202 21931,16202 21888,16202 21888,16245 21845,16245 21803,16245 21803,16245 21755,16245 21713,16245 21713,16245 21670,16245 L 17251,16245 C 17123,16245 17037,16245 16910,16202 16824,16202 16739,16160 16654,16117 16611,16074 16521,16027 16479,15942 16436,15899 16393,15814 16351,15729 16137,15298 15924,14701 15706,14142 15578,13886 15493,13668 15365,13498 15323,13412 15237,13327 15195,13284 15152,13284 15110,13242 15067,13242 15067,13242 15020,13242 14977,13242 14977,13242 14934,13242 14892,13242 14849,13242 14849,13284 14806,13284 14764,13327 14678,13412 14636,13498 14508,13668 14423,13886 14290,14142 14077,14701 13864,15298 13608,15729 13608,15814 13565,15899 13475,15942 13433,16027 13390,16074 13305,16117 13262,16160 13177,16202 13049,16202 12964,16245 12878,16245 12703,16245 L 8284,16245 8241,16245 C 8198,16245 8156,16245 8156,16245 8113,16245 8070,16202 8070,16202 8028,16202 7985,16160 7985,16160 7942,16160 7942,16117 7900,16117 7900,16027 7857,15984 7857,15942 7815,15857 7815,15814 7815,15729 7815,15643 7815,15601 7857,15516 L 10515,9680 C 10557,9594 10557,9509 10605,9424 10605,9381 10605,9291 10605,9249 10605,9206 10605,9163 10605,9121 10605,9121 10557,9078 10557,9035 10515,9035 10515,8993 10472,8950 10472,8950 10429,8950 10387,8907 9615,8737 8885,8562 8113,8348 7985,8306 7857,8263 7772,8178 7644,8093 7554,8007 7469,7880 7384,7790 7341,7662 7256,7534 7213,7406 7213,7278 7213,7150 7213,7017 7213,6889 7256,6762 7298,6676 7341,6548 7426,6463 7511,6331 7601,6245 7729,6117 7815,6032 7942,5947 8113,5904 9444,5303 10733,4744 12059,4189 12149,4147 12234,4099 12277,4057 12319,4014 12362,3972 12405,3929 12447,3886 12490,3801 12490,3758 12533,3716 12533,3630 12533,3545 12575,3071 12661,2730 12788,2385 12921,2044 13092,1740 13305,1527 13518,1314 13778,1096 14077,968 14337,840 14636,798 14977,755 L 15020,755 Z"/>
         <path fill="none" stroke="rgb(255,179,0)" stroke-width="18" stroke-linejoin="round" d="M 15020,755 C 15323,798 15621,840 15924,968 16180,1096 16436,1314 16654,1527 16910,1740 17080,2044 17208,2385 17341,2730 17426,3071 17469,3545 17469,3630 17469,3716 17511,3758 17511,3801 17554,3886 17596,3929 17596,3972 17639,4014 17724,4057 17767,4099 17852,4147 17937,4189 19226,4744 20557,5303 21888,5904 22016,5947 22187,6032 22272,6117 22400,6245 22485,6331 22575,6463 22660,6548 22703,6676 22746,6762 22746,6889 22788,7017 22788,7150 22788,7278 22746,7406 22703,7534 22660,7662 22618,7790 22532,7880 22442,8007 22357,8093 22229,8178 22144,8263 22016,8306 21888,8348 21116,8562 20344,8737 19614,8907 19572,8950 19524,8950 19482,8950 19482,8993 19439,9035 19439,9035 19396,9078 19396,9121 19396,9121 19396,9163 19354,9206 19354,9249 19354,9291 19396,9381 19396,9424 19439,9509 19439,9594 19482,9680 L 22144,15516 C 22187,15601 22187,15643 22187,15729 22187,15814 22187,15857 22144,15942 22144,15984 22101,16027 22059,16117 L 22016,16160 C 21973,16160 21973,16202 21931,16202 21888,16202 21888,16245 21845,16245 L 21755,16245 21670,16245 17251,16245 C 17123,16245 17037,16245 16910,16202 16824,16202 16739,16160 16654,16117 16611,16074 16521,16027 16479,15942 16436,15899 16393,15814 16351,15729 16137,15298 15924,14701 15706,14142 15578,13886 15493,13668 15365,13498 15323,13412 15237,13327 15195,13284 15152,13284 15110,13242 15067,13242 L 14977,13242 14892,13242 C 14849,13242 14849,13284 14806,13284 14764,13327 14678,13412 14636,13498 14508,13668 14423,13886 14290,14142 14077,14701 13864,15298 13608,15729 13608,15814 13565,15899 13475,15942 13433,16027 13390,16074 13305,16117 13262,16160 13177,16202 13049,16202 12964,16245 12878,16245 12703,16245 L 8284,16245 8241,16245 8156,16245 C 8113,16245 8070,16202 8070,16202 8028,16202 7985,16160 7985,16160 7942,16160 7942,16117 7900,16117 7900,16027 7857,15984 7857,15942 7815,15857 7815,15814 7815,15729 7815,15643 7815,15601 7857,15516 L 10515,9680 C 10557,9594 10557,9509 10605,9424 L 10605,9249 10605,9121 C 10605,9121 10557,9078 10557,9035 10515,9035 10515,8993 10472,8950 10472,8950 10429,8950 10387,8907 9615,8737 8885,8562 8113,8348 7985,8306 7857,8263 7772,8178 7644,8093 7554,8007 7469,7880 7384,7790 7341,7662 7256,7534 7213,7406 7213,7278 7213,7150 7213,7017 7213,6889 7256,6762 7298,6676 7341,6548 7426,6463 7511,6331 7601,6245 7729,6117 7815,6032 7942,5947 8113,5904 9444,5303 10733,4744 12059,4189 12149,4147 12234,4099 12277,4057 L 12405,3929 C 12447,3886 12490,3801 12490,3758 12533,3716 12533,3630 12533,3545 12575,3071 12661,2730 12788,2385 12921,2044 13092,1740 13305,1527 13518,1314 13778,1096 14077,968 14337,840 14636,798 14977,755 L 15020,755 Z"/>
        </g>
       </g>
      </g>
     </g>
    </g>
   </g>
  </g>
 </g>
</svg>