<?xml version="1.0" encoding="UTF-8"?>
<!DOCTYPE svg PUBLIC "-//W3C//DTD SVG 1.1//EN" "http://www.w3.org/Graphics/SVG/1.1/DTD/svg11.dtd">
<svg version="1.2" width="300mm" height="170mm" viewBox="0 0 30000 17000" preserveAspectRatio="xMidYMid" fill-rule="evenodd" stroke-width="28.222" stroke-linejoin="round" xmlns="http://www.w3.org/2000/svg" xmlns:ooo="http://xml.openoffice.org/svg/export" xmlns:xlink="http://www.w3.org/1999/xlink" xmlns:presentation="http://sun.com/xmlns/staroffice/presentation" xmlns:smil="http://www.w3.org/2001/SMIL20/" xmlns:anim="urn:oasis:names:tc:opendocument:xmlns:animation:1.0" xml:space="preserve">
 <defs class="ClipPathGroup">
  <clipPath id="presentation_clip_path" clipPathUnits="userSpaceOnUse">
   <rect x="0" y="0" width="30000" height="17000"/>
  </clipPath>
  <clipPath id="presentation_clip_path_shrink" clipPathUnits="userSpaceOnUse">
   <rect x="30" y="17" width="29940" height="16966"/>
  </clipPath>
 </defs>
 <defs class="TextShapeIndex">
  <g ooo:slide="id1" ooo:id-list="id3 id4 id5 id6 id7 id8 id9 id10 id11 id12 id13 id14 id15"/>
 </defs>
 <defs class="EmbeddedBulletChars">
  <g id="bullet-char-template-57356" transform="scale(0.00048828125,-0.00048828125)">
   <path d="M 580,1141 L 1163,571 580,0 -4,571 580,1141 Z"/>
  </g>
  <g id="bullet-char-template-57354" transform="scale(0.00048828125,-0.00048828125)">
   <path d="M 8,1128 L 1137,1128 1137,0 8,0 8,1128 Z"/>
  </g>
  <g id="bullet-char-template-10146" transform="scale(0.00048828125,-0.00048828125)">
   <path d="M 174,0 L 602,739 174,1481 1456,739 174,0 Z M 1358,739 L 309,1346 659,739 1358,739 Z"/>
  </g>
  <g id="bullet-char-template-10132" transform="scale(0.00048828125,-0.00048828125)">
   <path d="M 2015,739 L 1276,0 717,0 1260,543 174,543 174,936 1260,936 717,1481 1274,1481 2015,739 Z"/>
  </g>
  <g id="bullet-char-template-10007" transform="scale(0.00048828125,-0.00048828125)">
   <path d="M 0,-2 C -7,14 -16,27 -25,37 L 356,567 C 262,823 215,952 215,954 215,979 228,992 255,992 264,992 276,990 289,987 310,991 331,999 354,1012 L 381,999 492,748 772,1049 836,1024 860,1049 C 881,1039 901,1025 922,1006 886,937 835,863 770,784 769,783 710,716 594,584 L 774,223 C 774,196 753,168 711,139 L 727,119 C 717,90 699,76 672,76 641,76 570,178 457,381 L 164,-76 C 142,-110 111,-127 72,-127 30,-127 9,-110 8,-76 1,-67 -2,-52 -2,-32 -2,-23 -1,-13 0,-2 Z"/>
  </g>
  <g id="bullet-char-template-10004" transform="scale(0.00048828125,-0.00048828125)">
   <path d="M 285,-33 C 182,-33 111,30 74,156 52,228 41,333 41,471 41,549 55,616 82,672 116,743 169,778 240,778 293,778 328,747 346,684 L 369,508 C 377,444 397,411 428,410 L 1163,1116 C 1174,1127 1196,1133 1229,1133 1271,1133 1292,1118 1292,1087 L 1292,965 C 1292,929 1282,901 1262,881 L 442,47 C 390,-6 338,-33 285,-33 Z"/>
  </g>
  <g id="bullet-char-template-9679" transform="scale(0.00048828125,-0.00048828125)">
   <path d="M 813,0 C 632,0 489,54 383,161 276,268 223,411 223,592 223,773 276,916 383,1023 489,1130 632,1184 813,1184 992,1184 1136,1130 1245,1023 1353,916 1407,772 1407,592 1407,412 1353,268 1245,161 1136,54 992,0 813,0 Z"/>
  </g>
  <g id="bullet-char-template-8226" transform="scale(0.00048828125,-0.00048828125)">
   <path d="M 346,457 C 273,457 209,483 155,535 101,586 74,649 74,723 74,796 101,859 155,911 209,963 273,989 346,989 419,989 480,963 531,910 582,859 608,796 608,723 608,648 583,586 532,535 482,483 420,457 346,457 Z"/>
  </g>
  <g id="bullet-char-template-8211" transform="scale(0.00048828125,-0.00048828125)">
   <path d="M -4,459 L 1135,459 1135,606 -4,606 -4,459 Z"/>
  </g>
  <g id="bullet-char-template-61548" transform="scale(0.00048828125,-0.00048828125)">
   <path d="M 173,740 C 173,903 231,1043 346,1159 462,1274 601,1332 765,1332 928,1332 1067,1274 1183,1159 1299,1043 1357,903 1357,740 1357,577 1299,437 1183,322 1067,206 928,148 765,148 601,148 462,206 346,322 231,437 173,577 173,740 Z"/>
  </g>
 </defs>
 <g>
  <g id="id2" class="Master_Slide">
   <g id="bg-id2" class="Background"/>
   <g id="bo-id2" class="BackgroundObjects"/>
  </g>
 </g>
 <g class="SlideGroup">
  <g>
   <g id="container-id1">
    <g id="id1" class="Slide" clip-path="url(#presentation_clip_path)">
     <g class="Page">
      <g class="Group">
       <g class="Group">
        <g class="com.sun.star.drawing.ClosedBezierShape">
         <g id="id3">
          <rect class="BoundingBox" stroke="none" fill="none" x="5155" y="2476" width="21277" height="12492"/>
          <g>
           <defs>
            <linearGradient id="gradient1" x1="10429" y1="-569" x2="21156" y2="18012" gradientUnits="userSpaceOnUse">
             <stop offset="0" style="stop-color:rgb(204,204,204)"/>
             <stop offset="1" style="stop-color:rgb(255,255,255)"/>
            </linearGradient>
           </defs>
           <path style="fill:url(#gradient1)" d="M 5166,10189 L 5164,10187 5163,10184 5161,10182 5160,10179 5159,10176 5158,10173 5157,10167 5156,10161 5156,10155 5155,10146 5156,10130 5156,10124 5157,10117 5158,10111 5160,10105 5163,10098 5166,10090 9878,2519 9878,2517 9879,2515 9879,2513 9880,2511 9882,2509 9883,2507 9885,2505 9887,2503 9889,2501 9892,2499 9898,2495 9904,2491 9912,2487 9914,2485 9916,2483 9919,2482 9922,2481 9925,2480 9927,2479 9934,2477 9940,2477 9945,2476 9955,2476 9971,2476 9979,2477 9987,2477 9994,2479 9997,2480 10000,2481 10003,2482 10006,2483 10008,2485 10011,2487 13398,4628 18397,2985 18429,2985 18440,2985 18463,2985 23252,4065 23254,4065 23256,4066 23258,4066 23260,4067 23264,4069 23268,4071 23272,4073 23276,4074 23278,4075 23281,4075 23283,4076 23285,4076 23294,4084 23298,4089 23302,4094 23306,4099 23310,4105 23314,4113 23318,4121 23319,4121 23320,4122 23322,4125 23324,4127 23326,4131 23327,4132 23328,4134 23328,4136 23329,4138 23329,4140 23329,4142 26430,14515 26430,14548 26430,14558 26430,14563 26429,14570 26428,14576 26427,14579 26426,14582 26425,14585 26423,14587 26422,14590 26420,14592 26415,14600 26411,14607 26406,14613 26401,14618 26396,14623 26390,14627 26383,14632 26375,14636 26373,14638 26370,14639 26367,14641 26364,14642 26361,14643 26358,14644 26352,14645 26346,14646 26340,14646 26330,14646 26298,14646 18696,12595 10573,14967 10541,14967 10530,14967 10524,14966 10518,14966 10512,14964 10509,14963 10506,14962 10503,14961 10501,14960 10498,14958 10496,14956 10494,14956 10492,14956 10490,14955 10488,14954 10486,14953 10484,14952 10480,14949 10476,14946 10472,14943 10464,14935 5188,10221 5186,10219 5184,10217 5183,10215 5181,10213 5179,10209 5177,10205 5175,10201 5173,10197 5171,10195 5170,10193 5168,10191 5166,10189 Z"/>
          </g>
         </g>
        </g>
        <g class="com.sun.star.drawing.PolyPolygonShape">
         <g id="id4">
          <rect class="BoundingBox" stroke="none" fill="none" x="5114" y="2167" width="7953" height="12148"/>
          <path fill="rgb(255,255,255)" stroke="none" d="M 5123,9648 L 9724,2177 13056,4307 10276,14304 5123,9648 Z"/>
          <path fill="none" stroke="rgb(0,0,0)" stroke-width="18" stroke-linejoin="round" d="M 5123,9648 L 9724,2177 13056,4307 10276,14304 5123,9648 Z"/>
         </g>
        </g>
        <g class="com.sun.star.drawing.PolyPolygonShape">
         <g id="id5">
          <rect class="BoundingBox" stroke="none" fill="none" x="10279" y="2676" width="7974" height="11662"/>
          <path fill="rgb(255,255,255)" stroke="none" d="M 18243,11977 L 18001,2686 13069,4330 10288,14327 18243,11977 Z"/>
          <path fill="none" stroke="rgb(0,0,0)" stroke-width="18" stroke-linejoin="round" d="M 18243,11977 L 18001,2686 13069,4330 10288,14327 18243,11977 Z"/>
         </g>
        </g>
        <g class="com.sun.star.drawing.PolyPolygonShape">
         <g id="id6">
          <rect class="BoundingBox" stroke="none" fill="none" x="18002" y="2676" width="7733" height="11341"/>
          <path fill="rgb(255,255,255)" stroke="none" d="M 18264,11977 L 18012,2686 22690,3757 25724,14007 18264,11977 Z"/>
          <path fill="none" stroke="rgb(0,0,0)" stroke-width="18" stroke-linejoin="round" d="M 18264,11977 L 18012,2686 22690,3757 25724,14007 18264,11977 Z"/>
         </g>
        </g>
        <g class="com.sun.star.drawing.PolyPolygonShape">
         <g id="id7">
          <rect class="BoundingBox" stroke="none" fill="none" x="6427" y="4498" width="5923" height="4632"/>
          <path fill="rgb(178,178,178)" stroke="none" d="M 8301,4507 L 10530,6991 12307,6980 12340,6969 12196,7498 10994,7510 11886,8524 11723,9119 10286,7521 6436,7575 6778,7023 9813,7001 8002,4981 8301,4507 Z"/>
          <path fill="none" stroke="rgb(102,102,102)" stroke-width="18" stroke-linejoin="round" d="M 8301,4507 L 10530,6991 12307,6980 12340,6969 12196,7498 10994,7510 11886,8524 11723,9119 10286,7521 6436,7575 6778,7023 9813,7001 8002,4981 8301,4507 Z"/>
         </g>
        </g>
        <g class="com.sun.star.drawing.PolyPolygonShape">
         <g id="id8">
          <rect class="BoundingBox" stroke="none" fill="none" x="7718" y="11901" width="3254" height="715"/>
          <path fill="rgb(178,178,178)" stroke="none" d="M 10851,11977 L 10962,11911 10774,12584 8389,12606 7728,12011 10851,11977 Z"/>
          <path fill="none" stroke="rgb(102,102,102)" stroke-width="18" stroke-linejoin="round" d="M 10851,11977 L 10962,11911 10774,12584 8389,12606 7728,12011 10851,11977 Z"/>
         </g>
        </g>
        <g class="com.sun.star.drawing.PolyPolygonShape">
         <g id="id9">
          <rect class="BoundingBox" stroke="none" fill="none" x="10786" y="7542" width="7424" height="5051"/>
          <path fill="rgb(178,178,178)" stroke="none" d="M 11909,8533 L 15926,8897 18155,7552 18166,8247 16953,8997 18177,9107 18200,9714 16082,9526 11071,12572 10795,12583 10983,11900 15054,9427 11745,9130 11745,9096 11909,8533 Z"/>
          <path fill="none" stroke="rgb(102,102,102)" stroke-width="18" stroke-linejoin="round" d="M 11909,8533 L 15926,8897 18155,7552 18166,8247 16953,8997 18177,9107 18200,9714 16082,9526 11071,12572 10795,12583 10983,11900 15054,9427 11745,9130 11745,9096 11909,8533 Z"/>
         </g>
        </g>
        <g class="com.sun.star.drawing.PolyPolygonShape">
         <g id="id10">
          <rect class="BoundingBox" stroke="none" fill="none" x="12197" y="3658" width="5913" height="3849"/>
          <path fill="rgb(178,178,178)" stroke="none" d="M 14072,3999 L 15054,3667 16874,4418 17802,3888 18044,3811 18067,4373 17515,4671 18078,4914 18100,5500 16853,5036 12262,7485 12207,7496 12361,6944 16202,4793 14072,3999 Z"/>
          <path fill="none" stroke="rgb(102,102,102)" stroke-width="18" stroke-linejoin="round" d="M 14072,3999 L 15054,3667 16874,4418 17802,3888 18044,3811 18067,4373 17515,4671 18078,4914 18100,5500 16853,5036 12262,7485 12207,7496 12361,6944 16202,4793 14072,3999 Z"/>
         </g>
        </g>
        <g class="com.sun.star.drawing.PolyPolygonShape">
         <g id="id11">
          <rect class="BoundingBox" stroke="none" fill="none" x="18189" y="9110" width="7050" height="3186"/>
          <path fill="rgb(178,178,178)" stroke="none" d="M 18209,9726 L 18198,9119 25029,11624 25228,12285 18209,9726 Z"/>
          <path fill="none" stroke="rgb(102,102,102)" stroke-width="18" stroke-linejoin="round" d="M 18209,9726 L 18198,9119 25029,11624 25228,12285 18209,9726 Z"/>
         </g>
        </g>
        <g class="com.sun.star.drawing.PolyPolygonShape">
         <g id="id12">
          <rect class="BoundingBox" stroke="none" fill="none" x="18145" y="7300" width="5770" height="959"/>
          <path fill="rgb(178,178,178)" stroke="none" d="M 18221,7508 L 23750,7310 23904,7806 18542,8028 18177,8248 18155,7552 18221,7508 Z"/>
          <path fill="none" stroke="rgb(102,102,102)" stroke-width="18" stroke-linejoin="round" d="M 18221,7508 L 23750,7310 23904,7806 18542,8028 18177,8248 18155,7552 18221,7508 Z"/>
         </g>
        </g>
        <g class="com.sun.star.drawing.PolyPolygonShape">
         <g id="id13">
          <rect class="BoundingBox" stroke="none" fill="none" x="18045" y="3151" width="2955" height="1233"/>
          <path fill="rgb(178,178,178)" stroke="none" d="M 20051,3160 L 20990,3370 18110,4352 18066,4373 18055,3800 20051,3160 Z"/>
          <path fill="none" stroke="rgb(102,102,102)" stroke-width="18" stroke-linejoin="round" d="M 20051,3160 L 20990,3370 18110,4352 18066,4373 18055,3800 20051,3160 Z"/>
         </g>
        </g>
        <g class="com.sun.star.drawing.PolyPolygonShape">
         <g id="id14">
          <rect class="BoundingBox" stroke="none" fill="none" x="18079" y="4905" width="5560" height="1994"/>
          <path fill="rgb(178,178,178)" stroke="none" d="M 18221,5543 L 18100,5499 18089,4914 18100,4914 23474,6326 23628,6889 18221,5543 Z"/>
          <path fill="none" stroke="rgb(102,102,102)" stroke-width="18" stroke-linejoin="round" d="M 18221,5543 L 18100,5499 18089,4914 18100,4914 23474,6326 23628,6889 18221,5543 Z"/>
         </g>
        </g>
       </g>
       <g class="com.sun.star.drawing.CustomShape">
        <g id="id15">
         <rect class="BoundingBox" stroke="none" fill="none" x="15856" y="-5963" width="4139" height="4140"/>
         <path fill="rgb(255,255,255)" stroke="none" d="M 19994,-3894 C 19994,-3530 19898,-3173 19717,-2859 19535,-2544 19274,-2283 18960,-2101 18645,-1920 18288,-1824 17925,-1824 17562,-1824 17205,-1920 16891,-2101 16576,-2283 16315,-2544 16133,-2859 15952,-3173 15856,-3530 15856,-3893 15856,-4257 15952,-4614 16133,-4928 16315,-5243 16576,-5504 16891,-5686 17205,-5867 17562,-5963 17925,-5963 18288,-5963 18645,-5867 18960,-5686 19274,-5504 19535,-5243 19717,-4928 19898,-4614 19994,-4257 19994,-3894 L 19994,-3894 Z"/>
        </g>
       </g>
      </g>
     </g>
    </g>
   </g>
  </g>
 </g>
</svg>