<?xml version="1.0" encoding="UTF-8"?>
<!DOCTYPE svg PUBLIC "-//W3C//DTD SVG 1.1//EN" "http://www.w3.org/Graphics/SVG/1.1/DTD/svg11.dtd">
<svg version="1.2" width="300mm" height="170mm" viewBox="0 0 30000 17000" preserveAspectRatio="xMidYMid" fill-rule="evenodd" stroke-width="28.222" stroke-linejoin="round" xmlns="http://www.w3.org/2000/svg" xmlns:ooo="http://xml.openoffice.org/svg/export" xmlns:xlink="http://www.w3.org/1999/xlink" xmlns:presentation="http://sun.com/xmlns/staroffice/presentation" xmlns:smil="http://www.w3.org/2001/SMIL20/" xmlns:anim="urn:oasis:names:tc:opendocument:xmlns:animation:1.0" xml:space="preserve">
 <defs class="ClipPathGroup">
  <clipPath id="presentation_clip_path" clipPathUnits="userSpaceOnUse">
   <rect x="0" y="0" width="30000" height="17000"/>
  </clipPath>
  <clipPath id="presentation_clip_path_shrink" clipPathUnits="userSpaceOnUse">
   <rect x="30" y="17" width="29940" height="16966"/>
  </clipPath>
 </defs>
 <defs class="TextShapeIndex">
  <g ooo:slide="id1" ooo:id-list="id3 id4 id5"/>
 </defs>
 <defs class="EmbeddedBulletChars">
  <g id="bullet-char-template-57356" transform="scale(0.00048828125,-0.00048828125)">
   <path d="M 580,1141 L 1163,571 580,0 -4,571 580,1141 Z"/>
  </g>
  <g id="bullet-char-template-57354" transform="scale(0.00048828125,-0.00048828125)">
   <path d="M 8,1128 L 1137,1128 1137,0 8,0 8,1128 Z"/>
  </g>
  <g id="bullet-char-template-10146" transform="scale(0.00048828125,-0.00048828125)">
   <path d="M 174,0 L 602,739 174,1481 1456,739 174,0 Z M 1358,739 L 309,1346 659,739 1358,739 Z"/>
  </g>
  <g id="bullet-char-template-10132" transform="scale(0.00048828125,-0.00048828125)">
   <path d="M 2015,739 L 1276,0 717,0 1260,543 174,543 174,936 1260,936 717,1481 1274,1481 2015,739 Z"/>
  </g>
  <g id="bullet-char-template-10007" transform="scale(0.00048828125,-0.00048828125)">
   <path d="M 0,-2 C -7,14 -16,27 -25,37 L 356,567 C 262,823 215,952 215,954 215,979 228,992 255,992 264,992 276,990 289,987 310,991 331,999 354,1012 L 381,999 492,748 772,1049 836,1024 860,1049 C 881,1039 901,1025 922,1006 886,937 835,863 770,784 769,783 710,716 594,584 L 774,223 C 774,196 753,168 711,139 L 727,119 C 717,90 699,76 672,76 641,76 570,178 457,381 L 164,-76 C 142,-110 111,-127 72,-127 30,-127 9,-110 8,-76 1,-67 -2,-52 -2,-32 -2,-23 -1,-13 0,-2 Z"/>
  </g>
  <g id="bullet-char-template-10004" transform="scale(0.00048828125,-0.00048828125)">
   <path d="M 285,-33 C 182,-33 111,30 74,156 52,228 41,333 41,471 41,549 55,616 82,672 116,743 169,778 240,778 293,778 328,747 346,684 L 369,508 C 377,444 397,411 428,410 L 1163,1116 C 1174,1127 1196,1133 1229,1133 1271,1133 1292,1118 1292,1087 L 1292,965 C 1292,929 1282,901 1262,881 L 442,47 C 390,-6 338,-33 285,-33 Z"/>
  </g>
  <g id="bullet-char-template-9679" transform="scale(0.00048828125,-0.00048828125)">
   <path d="M 813,0 C 632,0 489,54 383,161 276,268 223,411 223,592 223,773 276,916 383,1023 489,1130 632,1184 813,1184 992,1184 1136,1130 1245,1023 1353,916 1407,772 1407,592 1407,412 1353,268 1245,161 1136,54 992,0 813,0 Z"/>
  </g>
  <g id="bullet-char-template-8226" transform="scale(0.00048828125,-0.00048828125)">
   <path d="M 346,457 C 273,457 209,483 155,535 101,586 74,649 74,723 74,796 101,859 155,911 209,963 273,989 346,989 419,989 480,963 531,910 582,859 608,796 608,723 608,648 583,586 532,535 482,483 420,457 346,457 Z"/>
  </g>
  <g id="bullet-char-template-8211" transform="scale(0.00048828125,-0.00048828125)">
   <path d="M -4,459 L 1135,459 1135,606 -4,606 -4,459 Z"/>
  </g>
  <g id="bullet-char-template-61548" transform="scale(0.00048828125,-0.00048828125)">
   <path d="M 173,740 C 173,903 231,1043 346,1159 462,1274 601,1332 765,1332 928,1332 1067,1274 1183,1159 1299,1043 1357,903 1357,740 1357,577 1299,437 1183,322 1067,206 928,148 765,148 601,148 462,206 346,322 231,437 173,577 173,740 Z"/>
  </g>
 </defs>
 <g>
  <g id="id2" class="Master_Slide">
   <g id="bg-id2" class="Background"/>
   <g id="bo-id2" class="BackgroundObjects"/>
  </g>
 </g>
 <g class="SlideGroup">
  <g>
   <g id="container-id1">
    <g id="id1" class="Slide" clip-path="url(#presentation_clip_path)">
     <g class="Page">
      <g class="Group">
       <g class="com.sun.star.drawing.ClosedBezierShape">
        <g id="id3">
         <rect class="BoundingBox" stroke="none" fill="none" x="11993" y="1979" width="7863" height="12983"/>
         <path fill="rgb(255,179,0)" stroke="none" d="M 15921,14952 C 15585,13158 15261,12444 14678,11301 14107,10216 13469,9185 12820,8134 11846,6655 11712,5178 12584,3847 13424,2570 14376,2032 15921,1988 17477,2032 18417,2570 19267,3847 20141,5178 19996,6655 19022,8134 18373,9185 17744,10216 17163,11301 16581,12444 16257,13158 15921,14952 Z"/>
         <path fill="none" stroke="rgb(255,179,0)" stroke-width="18" stroke-linejoin="round" d="M 15921,14952 C 15585,13158 15261,12444 14678,11301 14107,10216 13469,9185 12820,8134 11846,6655 11712,5178 12584,3847 13424,2570 14376,2032 15921,1988 17477,2032 18417,2570 19267,3847 20141,5178 19996,6655 19022,8134 18373,9185 17744,10216 17163,11301 16581,12444 16257,13158 15921,14952 Z"/>
        </g>
       </g>
       <g class="com.sun.star.drawing.CustomShape">
        <g id="id4">
         <rect class="BoundingBox" stroke="none" fill="none" x="12689" y="2401" width="6472" height="6472"/>
         <path fill="rgb(255,255,255)" stroke="none" d="M 19159,5637 C 19159,6204 19010,6762 18726,7254 18442,7746 18033,8155 17542,8439 17050,8722 16492,8872 15924,8872 15356,8872 14798,8722 14307,8439 13815,8155 13406,7746 13122,7254 12838,6762 12689,6204 12689,5637 12689,5069 12838,4511 13122,4019 13406,3527 13815,3118 14306,2834 14798,2551 15356,2401 15924,2401 16492,2401 17050,2551 17541,2834 18033,3118 18442,3527 18726,4019 19010,4511 19159,5069 19159,5636 L 19159,5637 Z"/>
        </g>
       </g>
       <g class="Group">
        <g class="com.sun.star.drawing.ClosedBezierShape">
         <g id="id5">
          <rect class="BoundingBox" stroke="none" fill="none" x="13883" y="3569" width="4083" height="4062"/>
          <path fill="rgb(255,179,0)" stroke="none" d="M 15929,3578 C 16008,3589 16086,3600 16165,3634 16231,3667 16298,3724 16355,3780 16422,3835 16466,3914 16500,4003 16534,4094 16556,4183 16567,4307 16567,4329 16567,4351 16578,4362 16578,4372 16589,4394 16602,4407 16602,4418 16613,4429 16635,4440 16646,4451 16667,4463 16689,4474 17025,4620 17374,4765 17721,4921 17754,4932 17798,4956 17821,4978 17854,5010 17876,5032 17900,5067 17923,5090 17934,5123 17945,5145 17945,5179 17956,5212 17956,5247 17956,5279 17945,5314 17934,5347 17923,5379 17910,5414 17889,5437 17865,5470 17843,5492 17810,5515 17787,5537 17754,5548 17721,5559 17520,5616 17318,5661 17127,5705 17116,5716 17104,5716 17093,5716 17093,5728 17082,5739 17082,5739 17071,5750 17071,5761 17071,5761 17071,5772 17060,5783 17060,5794 17060,5805 17071,5828 17071,5839 17082,5863 17082,5884 17093,5906 L 17787,7429 C 17798,7451 17798,7462 17798,7484 17798,7507 17798,7518 17787,7540 17787,7551 17776,7562 17765,7586 L 17754,7597 C 17743,7597 17743,7609 17732,7609 17721,7609 17721,7620 17710,7620 17698,7620 17698,7620 17687,7620 17674,7620 17674,7620 17663,7620 L 16511,7620 C 16478,7620 16455,7620 16422,7609 16400,7609 16378,7597 16355,7586 16344,7575 16320,7562 16309,7540 16298,7529 16287,7507 16276,7484 16220,7373 16165,7217 16108,7071 16075,7004 16053,6948 16018,6902 16008,6880 15986,6859 15975,6848 15964,6848 15953,6837 15940,6837 15940,6837 15929,6837 15917,6837 15917,6837 15906,6837 15895,6837 15884,6837 15884,6848 15873,6848 15862,6859 15840,6880 15829,6902 15795,6948 15773,7004 15739,7071 15682,7217 15628,7373 15560,7484 15560,7507 15549,7529 15526,7540 15515,7562 15504,7575 15481,7586 15470,7597 15448,7609 15415,7609 15393,7620 15370,7620 15324,7620 L 14172,7620 14161,7620 C 14148,7620 14137,7620 14137,7620 14127,7620 14116,7609 14116,7609 14105,7609 14094,7597 14094,7597 14083,7597 14083,7586 14072,7586 14072,7562 14059,7551 14059,7540 14048,7518 14048,7507 14048,7484 14048,7462 14048,7451 14059,7429 L 14754,5906 C 14764,5884 14764,5863 14777,5839 14777,5828 14777,5805 14777,5794 14777,5783 14777,5772 14777,5761 14777,5761 14764,5750 14764,5739 14754,5739 14754,5728 14743,5716 14743,5716 14732,5716 14721,5705 14519,5661 14328,5616 14127,5559 14094,5548 14059,5537 14037,5515 14005,5492 13981,5470 13959,5437 13936,5414 13925,5379 13903,5347 13892,5314 13892,5279 13892,5247 13892,5212 13892,5179 13903,5145 13914,5123 13925,5090 13948,5067 13970,5032 13994,5010 14026,4978 14048,4956 14083,4932 14127,4921 14474,4765 14810,4620 15157,4474 15180,4463 15202,4451 15213,4440 15224,4429 15235,4418 15246,4407 15257,4394 15270,4372 15270,4362 15280,4351 15280,4329 15280,4307 15291,4183 15313,4094 15346,4003 15381,3914 15426,3835 15481,3780 15537,3724 15604,3667 15682,3634 15751,3600 15829,3589 15917,3578 L 15929,3578 Z"/>
          <path fill="none" stroke="rgb(255,179,0)" stroke-width="18" stroke-linejoin="round" d="M 15929,3578 C 16008,3589 16086,3600 16165,3634 16231,3667 16298,3724 16355,3780 16422,3835 16466,3914 16500,4003 16534,4094 16556,4183 16567,4307 16567,4329 16567,4351 16578,4362 16578,4372 16589,4394 16602,4407 16602,4418 16613,4429 16635,4440 16646,4451 16667,4463 16689,4474 17025,4620 17374,4765 17721,4921 17754,4932 17798,4956 17821,4978 17854,5010 17876,5032 17900,5067 17923,5090 17934,5123 17945,5145 17945,5179 17956,5212 17956,5247 17956,5279 17945,5314 17934,5347 17923,5379 17910,5414 17889,5437 17865,5470 17843,5492 17810,5515 17787,5537 17754,5548 17721,5559 17520,5616 17318,5661 17127,5705 17116,5716 17104,5716 17093,5716 17093,5728 17082,5739 17082,5739 17071,5750 17071,5761 17071,5761 17071,5772 17060,5783 17060,5794 17060,5805 17071,5828 17071,5839 17082,5863 17082,5884 17093,5906 L 17787,7429 C 17798,7451 17798,7462 17798,7484 17798,7507 17798,7518 17787,7540 17787,7551 17776,7562 17765,7586 L 17754,7597 C 17743,7597 17743,7609 17732,7609 17721,7609 17721,7620 17710,7620 L 17687,7620 17663,7620 16511,7620 C 16478,7620 16455,7620 16422,7609 16400,7609 16378,7597 16355,7586 16344,7575 16320,7562 16309,7540 16298,7529 16287,7507 16276,7484 16220,7373 16165,7217 16108,7071 16075,7004 16053,6948 16018,6902 16008,6880 15986,6859 15975,6848 15964,6848 15953,6837 15940,6837 L 15917,6837 15895,6837 C 15884,6837 15884,6848 15873,6848 15862,6859 15840,6880 15829,6902 15795,6948 15773,7004 15739,7071 15682,7217 15628,7373 15560,7484 15560,7507 15549,7529 15526,7540 15515,7562 15504,7575 15481,7586 15470,7597 15448,7609 15415,7609 15393,7620 15370,7620 15324,7620 L 14172,7620 14161,7620 14137,7620 C 14127,7620 14116,7609 14116,7609 14105,7609 14094,7597 14094,7597 14083,7597 14083,7586 14072,7586 14072,7562 14059,7551 14059,7540 14048,7518 14048,7507 14048,7484 14048,7462 14048,7451 14059,7429 L 14754,5906 C 14764,5884 14764,5863 14777,5839 L 14777,5794 14777,5761 C 14777,5761 14764,5750 14764,5739 14754,5739 14754,5728 14743,5716 14743,5716 14732,5716 14721,5705 14519,5661 14328,5616 14127,5559 14094,5548 14059,5537 14037,5515 14005,5492 13981,5470 13959,5437 13936,5414 13925,5379 13903,5347 13892,5314 13892,5279 13892,5247 13892,5212 13892,5179 13903,5145 13914,5123 13925,5090 13948,5067 13970,5032 13994,5010 14026,4978 14048,4956 14083,4932 14127,4921 14474,4765 14810,4620 15157,4474 15180,4463 15202,4451 15213,4440 L 15246,4407 C 15257,4394 15270,4372 15270,4362 15280,4351 15280,4329 15280,4307 15291,4183 15313,4094 15346,4003 15381,3914 15426,3835 15481,3780 15537,3724 15604,3667 15682,3634 15751,3600 15829,3589 15917,3578 L 15929,3578 Z"/>
         </g>
        </g>
       </g>
      </g>
     </g>
    </g>
   </g>
  </g>
 </g>
</svg>