<?xml version="1.0" encoding="UTF-8"?>
<!DOCTYPE svg PUBLIC "-//W3C//DTD SVG 1.1//EN" "http://www.w3.org/Graphics/SVG/1.1/DTD/svg11.dtd">
<svg version="1.2" width="300mm" height="170mm" viewBox="0 0 30000 17000" preserveAspectRatio="xMidYMid" fill-rule="evenodd" stroke-width="28.222" stroke-linejoin="round" xmlns="http://www.w3.org/2000/svg" xmlns:ooo="http://xml.openoffice.org/svg/export" xmlns:xlink="http://www.w3.org/1999/xlink" xmlns:presentation="http://sun.com/xmlns/staroffice/presentation" xmlns:smil="http://www.w3.org/2001/SMIL20/" xmlns:anim="urn:oasis:names:tc:opendocument:xmlns:animation:1.0" xml:space="preserve">
 <defs class="ClipPathGroup">
  <clipPath id="presentation_clip_path" clipPathUnits="userSpaceOnUse">
   <rect x="0" y="0" width="30000" height="17000"/>
  </clipPath>
  <clipPath id="presentation_clip_path_shrink" clipPathUnits="userSpaceOnUse">
   <rect x="30" y="17" width="29940" height="16966"/>
  </clipPath>
 </defs>
 <defs class="TextShapeIndex">
  <g ooo:slide="id1" ooo:id-list="id3 id4 id5 id6 id7 id8 id9 id10 id11 id12 id13 id14 id15 id16 id17"/>
 </defs>
 <defs class="EmbeddedBulletChars">
  <g id="bullet-char-template-57356" transform="scale(0.00048828125,-0.00048828125)">
   <path d="M 580,1141 L 1163,571 580,0 -4,571 580,1141 Z"/>
  </g>
  <g id="bullet-char-template-57354" transform="scale(0.00048828125,-0.00048828125)">
   <path d="M 8,1128 L 1137,1128 1137,0 8,0 8,1128 Z"/>
  </g>
  <g id="bullet-char-template-10146" transform="scale(0.00048828125,-0.00048828125)">
   <path d="M 174,0 L 602,739 174,1481 1456,739 174,0 Z M 1358,739 L 309,1346 659,739 1358,739 Z"/>
  </g>
  <g id="bullet-char-template-10132" transform="scale(0.00048828125,-0.00048828125)">
   <path d="M 2015,739 L 1276,0 717,0 1260,543 174,543 174,936 1260,936 717,1481 1274,1481 2015,739 Z"/>
  </g>
  <g id="bullet-char-template-10007" transform="scale(0.00048828125,-0.00048828125)">
   <path d="M 0,-2 C -7,14 -16,27 -25,37 L 356,567 C 262,823 215,952 215,954 215,979 228,992 255,992 264,992 276,990 289,987 310,991 331,999 354,1012 L 381,999 492,748 772,1049 836,1024 860,1049 C 881,1039 901,1025 922,1006 886,937 835,863 770,784 769,783 710,716 594,584 L 774,223 C 774,196 753,168 711,139 L 727,119 C 717,90 699,76 672,76 641,76 570,178 457,381 L 164,-76 C 142,-110 111,-127 72,-127 30,-127 9,-110 8,-76 1,-67 -2,-52 -2,-32 -2,-23 -1,-13 0,-2 Z"/>
  </g>
  <g id="bullet-char-template-10004" transform="scale(0.00048828125,-0.00048828125)">
   <path d="M 285,-33 C 182,-33 111,30 74,156 52,228 41,333 41,471 41,549 55,616 82,672 116,743 169,778 240,778 293,778 328,747 346,684 L 369,508 C 377,444 397,411 428,410 L 1163,1116 C 1174,1127 1196,1133 1229,1133 1271,1133 1292,1118 1292,1087 L 1292,965 C 1292,929 1282,901 1262,881 L 442,47 C 390,-6 338,-33 285,-33 Z"/>
  </g>
  <g id="bullet-char-template-9679" transform="scale(0.00048828125,-0.00048828125)">
   <path d="M 813,0 C 632,0 489,54 383,161 276,268 223,411 223,592 223,773 276,916 383,1023 489,1130 632,1184 813,1184 992,1184 1136,1130 1245,1023 1353,916 1407,772 1407,592 1407,412 1353,268 1245,161 1136,54 992,0 813,0 Z"/>
  </g>
  <g id="bullet-char-template-8226" transform="scale(0.00048828125,-0.00048828125)">
   <path d="M 346,457 C 273,457 209,483 155,535 101,586 74,649 74,723 74,796 101,859 155,911 209,963 273,989 346,989 419,989 480,963 531,910 582,859 608,796 608,723 608,648 583,586 532,535 482,483 420,457 346,457 Z"/>
  </g>
  <g id="bullet-char-template-8211" transform="scale(0.00048828125,-0.00048828125)">
   <path d="M -4,459 L 1135,459 1135,606 -4,606 -4,459 Z"/>
  </g>
  <g id="bullet-char-template-61548" transform="scale(0.00048828125,-0.00048828125)">
   <path d="M 173,740 C 173,903 231,1043 346,1159 462,1274 601,1332 765,1332 928,1332 1067,1274 1183,1159 1299,1043 1357,903 1357,740 1357,577 1299,437 1183,322 1067,206 928,148 765,148 601,148 462,206 346,322 231,437 173,577 173,740 Z"/>
  </g>
 </defs>
 <g>
  <g id="id2" class="Master_Slide">
   <g id="bg-id2" class="Background"/>
   <g id="bo-id2" class="BackgroundObjects"/>
  </g>
 </g>
 <g class="SlideGroup">
  <g>
   <g id="container-id1">
    <g id="id1" class="Slide" clip-path="url(#presentation_clip_path)">
     <g class="Page">
      <g class="Group">
       <g class="com.sun.star.drawing.ClosedBezierShape">
        <g id="id3">
         <rect class="BoundingBox" stroke="none" fill="none" x="6282" y="6414" width="17464" height="10255"/>
         <g>
          <defs>
           <linearGradient id="gradient1" x1="10611" y1="3916" x2="19416" y2="19167" gradientUnits="userSpaceOnUse">
            <stop offset="0" style="stop-color:rgb(204,204,204)"/>
            <stop offset="1" style="stop-color:rgb(255,255,255)"/>
           </linearGradient>
          </defs>
          <path style="fill:url(#gradient1)" d="M 6291,12746 L 6289,12744 6288,12742 6287,12740 6286,12738 6285,12735 6284,12733 6283,12728 6282,12723 6282,12718 6282,12710 6282,12698 6282,12693 6283,12688 6284,12682 6286,12677 6288,12671 6291,12665 10159,6451 10159,6449 10159,6448 10160,6446 10161,6444 10162,6443 10163,6441 10164,6439 10166,6438 10168,6436 10170,6434 10174,6431 10180,6427 10186,6424 10188,6422 10190,6421 10192,6420 10194,6419 10197,6418 10199,6417 10204,6416 10209,6415 10214,6415 10222,6415 10235,6415 10242,6415 10248,6416 10254,6417 10256,6418 10259,6419 10261,6420 10263,6421 10265,6422 10267,6424 13048,8181 17151,6832 17178,6832 17187,6832 17205,6832 21136,7719 21138,7719 21139,7719 21141,7720 21143,7720 21146,7722 21150,7724 21153,7725 21156,7727 21158,7727 21160,7728 21161,7728 21163,7728 21170,7735 21174,7739 21177,7743 21181,7747 21184,7752 21188,7758 21191,7765 21191,7765 21192,7767 21194,7768 21196,7771 21197,7773 21198,7775 21199,7776 21199,7778 21200,7780 21200,7781 21200,7783 23745,16297 23745,16324 23745,16332 23745,16337 23744,16342 23743,16347 23742,16349 23741,16352 23740,16354 23739,16356 23738,16358 23736,16360 23733,16366 23729,16372 23725,16377 23721,16381 23717,16385 23712,16389 23706,16393 23700,16396 23698,16398 23696,16399 23694,16400 23691,16401 23689,16402 23686,16403 23681,16404 23676,16405 23671,16405 23663,16405 23636,16405 17396,14721 10729,16668 10702,16668 10694,16668 10689,16668 10684,16667 10679,16666 10677,16665 10674,16664 10672,16663 10670,16662 10668,16661 10666,16659 10664,16659 10663,16659 10661,16658 10659,16657 10658,16657 10656,16656 10653,16653 10649,16651 10646,16648 10639,16641 6309,12773 6307,12771 6306,12770 6305,12768 6304,12766 6302,12763 6300,12759 6298,12756 6296,12753 6295,12751 6294,12749 6293,12748 6291,12746 Z"/>
         </g>
        </g>
       </g>
       <g class="com.sun.star.drawing.PolyPolygonShape">
        <g id="id4">
         <rect class="BoundingBox" stroke="none" fill="none" x="6246" y="6161" width="6531" height="9973"/>
         <path fill="rgb(255,255,255)" stroke="none" d="M 6255,12302 L 10032,6170 12767,7918 10485,16124 6255,12302 Z"/>
         <path fill="none" stroke="rgb(0,0,0)" stroke-width="18" stroke-linejoin="round" d="M 6255,12302 L 10032,6170 12767,7918 10485,16124 6255,12302 Z"/>
        </g>
       </g>
       <g class="com.sun.star.drawing.PolyPolygonShape">
        <g id="id5">
         <rect class="BoundingBox" stroke="none" fill="none" x="10485" y="6578" width="6549" height="9575"/>
         <path fill="rgb(255,255,255)" stroke="none" d="M 17024,14213 L 16825,6587 12776,7937 10494,16143 17024,14213 Z"/>
         <path fill="none" stroke="rgb(0,0,0)" stroke-width="18" stroke-linejoin="round" d="M 17024,14213 L 16825,6587 12776,7937 10494,16143 17024,14213 Z"/>
        </g>
       </g>
       <g class="com.sun.star.drawing.PolyPolygonShape">
        <g id="id6">
         <rect class="BoundingBox" stroke="none" fill="none" x="16825" y="6578" width="6350" height="9312"/>
         <path fill="rgb(255,255,255)" stroke="none" d="M 17042,14213 L 16834,6587 20674,7466 23165,15880 17042,14213 Z"/>
         <path fill="none" stroke="rgb(0,0,0)" stroke-width="18" stroke-linejoin="round" d="M 17042,14213 L 16834,6587 20674,7466 23165,15880 17042,14213 Z"/>
        </g>
       </g>
       <g class="com.sun.star.drawing.PolyPolygonShape">
        <g id="id7">
         <rect class="BoundingBox" stroke="none" fill="none" x="7324" y="8073" width="4865" height="3805"/>
         <path fill="rgb(178,178,178)" stroke="none" d="M 8864,8082 L 10693,10120 12152,10111 12179,10102 12061,10537 11074,10546 11807,11379 11672,11868 10494,10555 7333,10600 7614,10147 10105,10129 8619,8471 8864,8082 Z"/>
         <path fill="none" stroke="rgb(102,102,102)" stroke-width="18" stroke-linejoin="round" d="M 8864,8082 L 10693,10120 12152,10111 12179,10102 12061,10537 11074,10546 11807,11379 11672,11868 10494,10555 7333,10600 7614,10147 10105,10129 8619,8471 8864,8082 Z"/>
        </g>
       </g>
       <g class="com.sun.star.drawing.PolyPolygonShape">
        <g id="id8">
         <rect class="BoundingBox" stroke="none" fill="none" x="8384" y="14150" width="2673" height="590"/>
         <path fill="rgb(178,178,178)" stroke="none" d="M 10956,14213 L 11047,14159 10893,14712 8936,14730 8393,14241 10956,14213 Z"/>
         <path fill="none" stroke="rgb(102,102,102)" stroke-width="18" stroke-linejoin="round" d="M 10956,14213 L 11047,14159 10893,14712 8936,14730 8393,14241 10956,14213 Z"/>
        </g>
       </g>
       <g class="com.sun.star.drawing.PolyPolygonShape">
        <g id="id9">
         <rect class="BoundingBox" stroke="none" fill="none" x="10902" y="10572" width="6097" height="4149"/>
         <path fill="rgb(178,178,178)" stroke="none" d="M 11826,11387 L 15123,11686 16952,10581 16961,11152 15965,11768 16970,11858 16989,12356 15250,12202 11137,14702 10911,14711 11065,14150 14407,12121 11690,11876 11690,11849 11826,11387 Z"/>
         <path fill="none" stroke="rgb(102,102,102)" stroke-width="18" stroke-linejoin="round" d="M 11826,11387 L 15123,11686 16952,10581 16961,11152 15965,11768 16970,11858 16989,12356 15250,12202 11137,14702 10911,14711 11065,14150 14407,12121 11690,11876 11690,11849 11826,11387 Z"/>
        </g>
       </g>
       <g class="com.sun.star.drawing.PolyPolygonShape">
        <g id="id10">
         <rect class="BoundingBox" stroke="none" fill="none" x="12061" y="7383" width="4856" height="3163"/>
         <path fill="rgb(178,178,178)" stroke="none" d="M 13601,7665 L 14407,7393 15901,8009 16662,7574 16861,7511 16880,7973 16427,8217 16889,8416 16907,8897 15883,8516 12115,10527 12070,10536 12197,10083 15349,8317 13601,7665 Z"/>
         <path fill="none" stroke="rgb(102,102,102)" stroke-width="18" stroke-linejoin="round" d="M 13601,7665 L 14407,7393 15901,8009 16662,7574 16861,7511 16880,7973 16427,8217 16889,8416 16907,8897 15883,8516 12115,10527 12070,10536 12197,10083 15349,8317 13601,7665 Z"/>
        </g>
       </g>
       <g class="com.sun.star.drawing.PolyPolygonShape">
        <g id="id11">
         <rect class="BoundingBox" stroke="none" fill="none" x="16979" y="11859" width="5789" height="2618"/>
         <path fill="rgb(178,178,178)" stroke="none" d="M 16997,12366 L 16988,11868 22595,13924 22758,14467 16997,12366 Z"/>
         <path fill="none" stroke="rgb(102,102,102)" stroke-width="18" stroke-linejoin="round" d="M 16997,12366 L 16988,11868 22595,13924 22758,14467 16997,12366 Z"/>
        </g>
       </g>
       <g class="com.sun.star.drawing.PolyPolygonShape">
        <g id="id12">
         <rect class="BoundingBox" stroke="none" fill="none" x="16943" y="10373" width="4738" height="789"/>
         <path fill="rgb(178,178,178)" stroke="none" d="M 17006,10545 L 21544,10382 21671,10790 17269,10971 16970,11152 16952,10581 17006,10545 Z"/>
         <path fill="none" stroke="rgb(102,102,102)" stroke-width="18" stroke-linejoin="round" d="M 17006,10545 L 21544,10382 21671,10790 17269,10971 16970,11152 16952,10581 17006,10545 Z"/>
        </g>
       </g>
       <g class="com.sun.star.drawing.PolyPolygonShape">
        <g id="id13">
         <rect class="BoundingBox" stroke="none" fill="none" x="16861" y="6968" width="2428" height="1015"/>
         <path fill="rgb(178,178,178)" stroke="none" d="M 18509,6977 L 19279,7149 16915,7955 16879,7973 16870,7502 18509,6977 Z"/>
         <path fill="none" stroke="rgb(102,102,102)" stroke-width="18" stroke-linejoin="round" d="M 18509,6977 L 19279,7149 16915,7955 16879,7973 16870,7502 18509,6977 Z"/>
        </g>
       </g>
       <g class="com.sun.star.drawing.PolyPolygonShape">
        <g id="id14">
         <rect class="BoundingBox" stroke="none" fill="none" x="16889" y="8408" width="4566" height="1640"/>
         <path fill="rgb(178,178,178)" stroke="none" d="M 17007,8933 L 16907,8897 16898,8417 16907,8417 21318,9576 21445,10038 17007,8933 Z"/>
         <path fill="none" stroke="rgb(102,102,102)" stroke-width="18" stroke-linejoin="round" d="M 17007,8933 L 16907,8897 16898,8417 16907,8417 21318,9576 21445,10038 17007,8933 Z"/>
        </g>
       </g>
       <g class="com.sun.star.drawing.ClosedBezierShape">
        <g id="id15">
         <rect class="BoundingBox" stroke="none" fill="none" x="11155" y="111" width="6365" height="10508"/>
         <path fill="rgb(255,179,0)" stroke="none" d="M 14334,10609 C 14062,9159 13800,8580 13329,7656 12867,6777 12350,5944 11825,5093 11037,3897 10928,2701 11635,1624 12314,591 13084,156 14334,120 15593,156 16354,591 17042,1624 17749,2701 17631,3897 16843,5093 16318,5944 15810,6777 15339,7656 14868,8580 14606,9159 14334,10609 Z"/>
         <path fill="none" stroke="rgb(255,179,0)" stroke-width="18" stroke-linejoin="round" d="M 14334,10609 C 14062,9159 13800,8580 13329,7656 12867,6777 12350,5944 11825,5093 11037,3897 10928,2701 11635,1624 12314,591 13084,156 14334,120 15593,156 16354,591 17042,1624 17749,2701 17631,3897 16843,5093 16318,5944 15810,6777 15339,7656 14868,8580 14606,9159 14334,10609 Z"/>
        </g>
       </g>
       <g class="com.sun.star.drawing.CustomShape">
        <g id="id16">
         <rect class="BoundingBox" stroke="none" fill="none" x="11716" y="572" width="5237" height="5237"/>
         <path fill="rgb(255,255,255)" stroke="none" d="M 16952,3190 C 16952,3650 16831,4101 16601,4499 16371,4897 16041,5227 15643,5457 15245,5687 14794,5808 14334,5808 13874,5808 13423,5687 13025,5457 12627,5227 12297,4897 12067,4499 11837,4101 11716,3650 11716,3190 11716,2730 11837,2279 12067,1881 12297,1483 12627,1153 13025,923 13423,693 13874,572 14334,572 14794,572 15245,693 15643,923 16041,1153 16371,1483 16601,1881 16831,2279 16952,2730 16952,3190 L 16952,3190 Z"/>
        </g>
       </g>
       <g class="Group">
        <g class="com.sun.star.drawing.ClosedBezierShape">
         <g id="id17">
          <rect class="BoundingBox" stroke="none" fill="none" x="12677" y="1396" width="3308" height="3290"/>
          <path fill="rgb(255,179,0)" stroke="none" d="M 14334,1406 C 14398,1415 14461,1424 14525,1451 14579,1478 14633,1524 14679,1569 14733,1614 14769,1678 14796,1750 14824,1823 14842,1895 14851,1995 14851,2013 14851,2031 14860,2040 14860,2049 14869,2067 14878,2076 14878,2085 14887,2094 14905,2103 14914,2112 14932,2122 14950,2131 15222,2248 15503,2366 15784,2493 15811,2502 15847,2520 15865,2538 15892,2565 15910,2583 15929,2611 15947,2629 15956,2656 15965,2674 15965,2701 15974,2728 15974,2756 15974,2783 15965,2810 15956,2837 15947,2864 15938,2891 15920,2910 15901,2937 15883,2955 15856,2973 15838,2991 15811,3000 15784,3009 15621,3054 15458,3091 15304,3127 15295,3136 15285,3136 15276,3136 15276,3145 15267,3154 15267,3154 15258,3163 15258,3172 15258,3172 15258,3181 15249,3190 15249,3199 15249,3208 15258,3227 15258,3236 15267,3254 15267,3272 15276,3290 L 15838,4522 C 15847,4540 15847,4549 15847,4567 15847,4585 15847,4594 15838,4612 15838,4621 15829,4630 15820,4649 L 15811,4658 C 15802,4658 15802,4667 15793,4667 15784,4667 15784,4676 15775,4676 15766,4676 15766,4676 15756,4676 15747,4676 15747,4676 15738,4676 L 14805,4676 C 14778,4676 14760,4676 14733,4667 14715,4667 14697,4658 14679,4649 14670,4640 14651,4630 14642,4612 14633,4603 14624,4585 14615,4567 14570,4476 14525,4350 14479,4232 14452,4178 14434,4132 14407,4096 14398,4078 14380,4060 14371,4051 14362,4051 14353,4042 14344,4042 14344,4042 14334,4042 14325,4042 14325,4042 14316,4042 14307,4042 14298,4042 14298,4051 14289,4051 14280,4060 14262,4078 14253,4096 14226,4132 14208,4178 14180,4232 14135,4350 14090,4476 14036,4567 14036,4585 14027,4603 14008,4612 13999,4630 13990,4640 13972,4649 13963,4658 13945,4667 13918,4667 13900,4676 13882,4676 13845,4676 L 12912,4676 12903,4676 C 12894,4676 12885,4676 12885,4676 12876,4676 12867,4667 12867,4667 12858,4667 12849,4658 12849,4658 12840,4658 12840,4649 12831,4649 12831,4630 12822,4621 12822,4612 12813,4594 12813,4585 12813,4567 12813,4549 12813,4540 12822,4522 L 13383,3290 C 13392,3272 13392,3254 13402,3236 13402,3227 13402,3208 13402,3199 13402,3190 13402,3181 13402,3172 13402,3172 13392,3163 13392,3154 13383,3154 13383,3145 13374,3136 13374,3136 13365,3136 13356,3127 13193,3091 13039,3054 12876,3009 12849,3000 12822,2991 12804,2973 12777,2955 12758,2937 12740,2910 12722,2891 12713,2864 12695,2837 12686,2810 12686,2783 12686,2756 12686,2728 12686,2701 12695,2674 12704,2656 12713,2629 12731,2611 12749,2583 12768,2565 12795,2538 12813,2520 12840,2502 12876,2493 13157,2366 13429,2248 13709,2131 13728,2122 13746,2112 13755,2103 13764,2094 13773,2085 13782,2076 13791,2067 13800,2049 13800,2040 13809,2031 13809,2013 13809,1995 13818,1895 13836,1823 13863,1750 13891,1678 13927,1614 13972,1569 14017,1524 14072,1478 14135,1451 14190,1424 14253,1415 14325,1406 L 14334,1406 Z"/>
          <path fill="none" stroke="rgb(255,179,0)" stroke-width="18" stroke-linejoin="round" d="M 14334,1406 C 14398,1415 14461,1424 14525,1451 14579,1478 14633,1524 14679,1569 14733,1614 14769,1678 14796,1750 14824,1823 14842,1895 14851,1995 14851,2013 14851,2031 14860,2040 14860,2049 14869,2067 14878,2076 14878,2085 14887,2094 14905,2103 14914,2112 14932,2122 14950,2131 15222,2248 15503,2366 15784,2493 15811,2502 15847,2520 15865,2538 15892,2565 15910,2583 15929,2611 15947,2629 15956,2656 15965,2674 15965,2701 15974,2728 15974,2756 15974,2783 15965,2810 15956,2837 15947,2864 15938,2891 15920,2910 15901,2937 15883,2955 15856,2973 15838,2991 15811,3000 15784,3009 15621,3054 15458,3091 15304,3127 15295,3136 15285,3136 15276,3136 15276,3145 15267,3154 15267,3154 15258,3163 15258,3172 15258,3172 15258,3181 15249,3190 15249,3199 15249,3208 15258,3227 15258,3236 15267,3254 15267,3272 15276,3290 L 15838,4522 C 15847,4540 15847,4549 15847,4567 15847,4585 15847,4594 15838,4612 15838,4621 15829,4630 15820,4649 L 15811,4658 C 15802,4658 15802,4667 15793,4667 15784,4667 15784,4676 15775,4676 L 15756,4676 15738,4676 14805,4676 C 14778,4676 14760,4676 14733,4667 14715,4667 14697,4658 14679,4649 14670,4640 14651,4630 14642,4612 14633,4603 14624,4585 14615,4567 14570,4476 14525,4350 14479,4232 14452,4178 14434,4132 14407,4096 14398,4078 14380,4060 14371,4051 14362,4051 14353,4042 14344,4042 L 14325,4042 14307,4042 C 14298,4042 14298,4051 14289,4051 14280,4060 14262,4078 14253,4096 14226,4132 14208,4178 14180,4232 14135,4350 14090,4476 14036,4567 14036,4585 14027,4603 14008,4612 13999,4630 13990,4640 13972,4649 13963,4658 13945,4667 13918,4667 13900,4676 13882,4676 13845,4676 L 12912,4676 12903,4676 12885,4676 C 12876,4676 12867,4667 12867,4667 12858,4667 12849,4658 12849,4658 12840,4658 12840,4649 12831,4649 12831,4630 12822,4621 12822,4612 12813,4594 12813,4585 12813,4567 12813,4549 12813,4540 12822,4522 L 13383,3290 C 13392,3272 13392,3254 13402,3236 L 13402,3199 13402,3172 C 13402,3172 13392,3163 13392,3154 13383,3154 13383,3145 13374,3136 13374,3136 13365,3136 13356,3127 13193,3091 13039,3054 12876,3009 12849,3000 12822,2991 12804,2973 12777,2955 12758,2937 12740,2910 12722,2891 12713,2864 12695,2837 12686,2810 12686,2783 12686,2756 12686,2728 12686,2701 12695,2674 12704,2656 12713,2629 12731,2611 12749,2583 12768,2565 12795,2538 12813,2520 12840,2502 12876,2493 13157,2366 13429,2248 13709,2131 13728,2122 13746,2112 13755,2103 L 13782,2076 C 13791,2067 13800,2049 13800,2040 13809,2031 13809,2013 13809,1995 13818,1895 13836,1823 13863,1750 13891,1678 13927,1614 13972,1569 14017,1524 14072,1478 14135,1451 14190,1424 14253,1415 14325,1406 L 14334,1406 Z"/>
         </g>
        </g>
       </g>
      </g>
     </g>
    </g>
   </g>
  </g>
 </g>
</svg>