<?xml version="1.0" encoding="UTF-8"?>
<!DOCTYPE svg PUBLIC "-//W3C//DTD SVG 1.1//EN" "http://www.w3.org/Graphics/SVG/1.1/DTD/svg11.dtd">
<svg version="1.2" width="20.52mm" height="20.52mm" viewBox="0 0 2052 2052" preserveAspectRatio="xMidYMid" fill-rule="evenodd" stroke-width="28.222" stroke-linejoin="round" xmlns="http://www.w3.org/2000/svg" xmlns:ooo="http://xml.openoffice.org/svg/export" xmlns:xlink="http://www.w3.org/1999/xlink" xmlns:presentation="http://sun.com/xmlns/staroffice/presentation" xmlns:smil="http://www.w3.org/2001/SMIL20/" xmlns:anim="urn:oasis:names:tc:opendocument:xmlns:animation:1.0" xml:space="preserve">
 <defs class="ClipPathGroup">
  <clipPath id="presentation_clip_path" clipPathUnits="userSpaceOnUse">
   <rect x="0" y="0" width="2052" height="2052"/>
  </clipPath>
  <clipPath id="presentation_clip_path_shrink" clipPathUnits="userSpaceOnUse">
   <rect x="2" y="2" width="2048" height="2048"/>
  </clipPath>
 </defs>
 <defs class="TextShapeIndex">
  <g ooo:slide="id1" ooo:id-list="id3"/>
 </defs>
 <defs class="EmbeddedBulletChars">
  <g id="bullet-char-template-57356" transform="scale(0.00048828125,-0.00048828125)">
   <path d="M 580,1141 L 1163,571 580,0 -4,571 580,1141 Z"/>
  </g>
  <g id="bullet-char-template-57354" transform="scale(0.00048828125,-0.00048828125)">
   <path d="M 8,1128 L 1137,1128 1137,0 8,0 8,1128 Z"/>
  </g>
  <g id="bullet-char-template-10146" transform="scale(0.00048828125,-0.00048828125)">
   <path d="M 174,0 L 602,739 174,1481 1456,739 174,0 Z M 1358,739 L 309,1346 659,739 1358,739 Z"/>
  </g>
  <g id="bullet-char-template-10132" transform="scale(0.00048828125,-0.00048828125)">
   <path d="M 2015,739 L 1276,0 717,0 1260,543 174,543 174,936 1260,936 717,1481 1274,1481 2015,739 Z"/>
  </g>
  <g id="bullet-char-template-10007" transform="scale(0.00048828125,-0.00048828125)">
   <path d="M 0,-2 C -7,14 -16,27 -25,37 L 356,567 C 262,823 215,952 215,954 215,979 228,992 255,992 264,992 276,990 289,987 310,991 331,999 354,1012 L 381,999 492,748 772,1049 836,1024 860,1049 C 881,1039 901,1025 922,1006 886,937 835,863 770,784 769,783 710,716 594,584 L 774,223 C 774,196 753,168 711,139 L 727,119 C 717,90 699,76 672,76 641,76 570,178 457,381 L 164,-76 C 142,-110 111,-127 72,-127 30,-127 9,-110 8,-76 1,-67 -2,-52 -2,-32 -2,-23 -1,-13 0,-2 Z"/>
  </g>
  <g id="bullet-char-template-10004" transform="scale(0.00048828125,-0.00048828125)">
   <path d="M 285,-33 C 182,-33 111,30 74,156 52,228 41,333 41,471 41,549 55,616 82,672 116,743 169,778 240,778 293,778 328,747 346,684 L 369,508 C 377,444 397,411 428,410 L 1163,1116 C 1174,1127 1196,1133 1229,1133 1271,1133 1292,1118 1292,1087 L 1292,965 C 1292,929 1282,901 1262,881 L 442,47 C 390,-6 338,-33 285,-33 Z"/>
  </g>
  <g id="bullet-char-template-9679" transform="scale(0.00048828125,-0.00048828125)">
   <path d="M 813,0 C 632,0 489,54 383,161 276,268 223,411 223,592 223,773 276,916 383,1023 489,1130 632,1184 813,1184 992,1184 1136,1130 1245,1023 1353,916 1407,772 1407,592 1407,412 1353,268 1245,161 1136,54 992,0 813,0 Z"/>
  </g>
  <g id="bullet-char-template-8226" transform="scale(0.00048828125,-0.00048828125)">
   <path d="M 346,457 C 273,457 209,483 155,535 101,586 74,649 74,723 74,796 101,859 155,911 209,963 273,989 346,989 419,989 480,963 531,910 582,859 608,796 608,723 608,648 583,586 532,535 482,483 420,457 346,457 Z"/>
  </g>
  <g id="bullet-char-template-8211" transform="scale(0.00048828125,-0.00048828125)">
   <path d="M -4,459 L 1135,459 1135,606 -4,606 -4,459 Z"/>
  </g>
  <g id="bullet-char-template-61548" transform="scale(0.00048828125,-0.00048828125)">
   <path d="M 173,740 C 173,903 231,1043 346,1159 462,1274 601,1332 765,1332 928,1332 1067,1274 1183,1159 1299,1043 1357,903 1357,740 1357,577 1299,437 1183,322 1067,206 928,148 765,148 601,148 462,206 346,322 231,437 173,577 173,740 Z"/>
  </g>
 </defs>
 <g>
  <g id="id2" class="Master_Slide">
   <g id="bg-id2" class="Background"/>
   <g id="bo-id2" class="BackgroundObjects"/>
  </g>
 </g>
 <g class="SlideGroup">
  <g>
   <g id="container-id1">
    <g id="id1" class="Slide" clip-path="url(#presentation_clip_path)">
     <g class="Page">
      <g class="Group">
       <g class="Group">
        <g class="com.sun.star.drawing.ClosedBezierShape">
         <g id="id3">
          <rect class="BoundingBox" stroke="none" fill="none" x="155" y="157" width="1744" height="1738"/>
          <path fill="none" stroke="rgb(0,0,0)" stroke-width="106" stroke-linejoin="round" d="M 1028,211 C 1062,214 1094,221 1124,236 1153,249 1180,268 1203,293 1226,316 1245,347 1259,382 1273,417 1282,457 1285,503 L 1285,504 1285,503 C 1286,513 1288,520 1290,526 1292,533 1294,538 1298,543 1302,548 1307,553 1312,556 1318,561 1326,566 1335,571 1474,631 1612,690 1751,751 L 1752,751 C 1767,758 1782,768 1793,777 1806,788 1815,798 1823,810 1831,821 1837,832 1840,845 1844,857 1845,869 1845,882 1845,896 1843,909 1838,924 1834,937 1828,950 1819,961 1810,973 1800,983 1789,991 1777,999 1764,1006 1750,1010 1670,1031 1591,1051 1512,1071 1508,1072 1504,1073 1501,1075 L 1494,1083 C 1492,1086 1491,1090 1489,1092 1488,1096 1487,1101 1487,1105 1487,1111 1488,1118 1491,1125 1493,1133 1495,1141 1500,1149 L 1780,1763 1780,1764 C 1782,1772 1783,1778 1783,1786 1783,1794 1782,1800 1780,1807 1778,1813 1775,1819 1771,1825 1769,1827 1767,1830 1764,1832 1762,1833 1759,1835 1756,1837 L 1748,1840 C 1744,1841 1741,1841 1737,1841 L 1731,1841 1266,1841 C 1252,1840 1240,1839 1230,1837 1219,1834 1211,1832 1203,1827 1196,1822 1189,1816 1184,1810 1179,1803 1175,1795 1171,1786 1145,1741 1125,1676 1101,1620 1089,1593 1078,1568 1065,1551 1059,1542 1052,1535 1046,1531 1043,1528 1040,1526 1036,1525 1033,1523 1031,1523 1027,1523 1023,1523 1020,1523 1017,1525 1014,1526 1011,1528 1008,1531 1001,1535 995,1542 989,1551 976,1568 964,1593 953,1620 929,1676 907,1741 883,1786 879,1795 875,1803 869,1810 864,1816 858,1822 850,1827 843,1832 834,1834 824,1837 814,1839 802,1840 788,1841 L 323,1841 316,1841 C 312,1841 309,1841 306,1840 303,1839 299,1838 296,1837 293,1835 291,1833 289,1832 286,1830 285,1827 282,1825 278,1819 275,1813 273,1807 272,1800 271,1794 271,1786 271,1778 272,1772 273,1764 L 273,1763 553,1149 C 558,1141 561,1133 563,1125 565,1118 567,1111 567,1105 567,1101 566,1096 564,1092 563,1090 562,1086 560,1083 L 552,1075 C 550,1073 546,1072 542,1071 462,1051 384,1031 304,1010 290,1006 276,999 265,991 254,983 243,973 235,961 226,950 219,937 215,924 210,909 208,896 208,882 208,869 209,857 213,845 217,832 222,821 230,810 238,798 248,788 260,777 272,768 286,758 302,751 441,690 580,631 718,571 727,566 736,561 741,556 747,553 752,548 755,543 759,538 761,533 764,526 766,520 768,513 769,503 L 769,504 769,503 C 772,457 780,417 794,382 809,347 828,316 850,293 873,268 901,249 930,236 959,221 991,214 1026,211 L 1027,211 1028,211 Z"/>
         </g>
        </g>
       </g>
      </g>
     </g>
    </g>
   </g>
  </g>
 </g>
</svg>