<?xml version="1.0" encoding="UTF-8"?>
<!DOCTYPE svg PUBLIC "-//W3C//DTD SVG 1.1//EN" "http://www.w3.org/Graphics/SVG/1.1/DTD/svg11.dtd">
<svg version="1.2" width="20.52mm" height="20.52mm" viewBox="0 0 2052 2052" preserveAspectRatio="xMidYMid" fill-rule="evenodd" stroke-width="28.222" stroke-linejoin="round" xmlns="http://www.w3.org/2000/svg" xmlns:ooo="http://xml.openoffice.org/svg/export" xmlns:xlink="http://www.w3.org/1999/xlink" xmlns:presentation="http://sun.com/xmlns/staroffice/presentation" xmlns:smil="http://www.w3.org/2001/SMIL20/" xmlns:anim="urn:oasis:names:tc:opendocument:xmlns:animation:1.0" xml:space="preserve">
 <defs class="ClipPathGroup">
  <clipPath id="presentation_clip_path" clipPathUnits="userSpaceOnUse">
   <rect x="0" y="0" width="2052" height="2052"/>
  </clipPath>
  <clipPath id="presentation_clip_path_shrink" clipPathUnits="userSpaceOnUse">
   <rect x="2" y="2" width="2048" height="2048"/>
  </clipPath>
 </defs>
 <defs class="TextShapeIndex">
  <g ooo:slide="id1" ooo:id-list="id3"/>
 </defs>
 <defs class="EmbeddedBulletChars">
  <g id="bullet-char-template-57356" transform="scale(0.00048828125,-0.00048828125)">
   <path d="M 580,1141 L 1163,571 580,0 -4,571 580,1141 Z"/>
  </g>
  <g id="bullet-char-template-57354" transform="scale(0.00048828125,-0.00048828125)">
   <path d="M 8,1128 L 1137,1128 1137,0 8,0 8,1128 Z"/>
  </g>
  <g id="bullet-char-template-10146" transform="scale(0.00048828125,-0.00048828125)">
   <path d="M 174,0 L 602,739 174,1481 1456,739 174,0 Z M 1358,739 L 309,1346 659,739 1358,739 Z"/>
  </g>
  <g id="bullet-char-template-10132" transform="scale(0.00048828125,-0.00048828125)">
   <path d="M 2015,739 L 1276,0 717,0 1260,543 174,543 174,936 1260,936 717,1481 1274,1481 2015,739 Z"/>
  </g>
  <g id="bullet-char-template-10007" transform="scale(0.00048828125,-0.00048828125)">
   <path d="M 0,-2 C -7,14 -16,27 -25,37 L 356,567 C 262,823 215,952 215,954 215,979 228,992 255,992 264,992 276,990 289,987 310,991 331,999 354,1012 L 381,999 492,748 772,1049 836,1024 860,1049 C 881,1039 901,1025 922,1006 886,937 835,863 770,784 769,783 710,716 594,584 L 774,223 C 774,196 753,168 711,139 L 727,119 C 717,90 699,76 672,76 641,76 570,178 457,381 L 164,-76 C 142,-110 111,-127 72,-127 30,-127 9,-110 8,-76 1,-67 -2,-52 -2,-32 -2,-23 -1,-13 0,-2 Z"/>
  </g>
  <g id="bullet-char-template-10004" transform="scale(0.00048828125,-0.00048828125)">
   <path d="M 285,-33 C 182,-33 111,30 74,156 52,228 41,333 41,471 41,549 55,616 82,672 116,743 169,778 240,778 293,778 328,747 346,684 L 369,508 C 377,444 397,411 428,410 L 1163,1116 C 1174,1127 1196,1133 1229,1133 1271,1133 1292,1118 1292,1087 L 1292,965 C 1292,929 1282,901 1262,881 L 442,47 C 390,-6 338,-33 285,-33 Z"/>
  </g>
  <g id="bullet-char-template-9679" transform="scale(0.00048828125,-0.00048828125)">
   <path d="M 813,0 C 632,0 489,54 383,161 276,268 223,411 223,592 223,773 276,916 383,1023 489,1130 632,1184 813,1184 992,1184 1136,1130 1245,1023 1353,916 1407,772 1407,592 1407,412 1353,268 1245,161 1136,54 992,0 813,0 Z"/>
  </g>
  <g id="bullet-char-template-8226" transform="scale(0.00048828125,-0.00048828125)">
   <path d="M 346,457 C 273,457 209,483 155,535 101,586 74,649 74,723 74,796 101,859 155,911 209,963 273,989 346,989 419,989 480,963 531,910 582,859 608,796 608,723 608,648 583,586 532,535 482,483 420,457 346,457 Z"/>
  </g>
  <g id="bullet-char-template-8211" transform="scale(0.00048828125,-0.00048828125)">
   <path d="M -4,459 L 1135,459 1135,606 -4,606 -4,459 Z"/>
  </g>
  <g id="bullet-char-template-61548" transform="scale(0.00048828125,-0.00048828125)">
   <path d="M 173,740 C 173,903 231,1043 346,1159 462,1274 601,1332 765,1332 928,1332 1067,1274 1183,1159 1299,1043 1357,903 1357,740 1357,577 1299,437 1183,322 1067,206 928,148 765,148 601,148 462,206 346,322 231,437 173,577 173,740 Z"/>
  </g>
 </defs>
 <g>
  <g id="id2" class="Master_Slide">
   <g id="bg-id2" class="Background"/>
   <g id="bo-id2" class="BackgroundObjects"/>
  </g>
 </g>
 <g class="SlideGroup">
  <g>
   <g id="container-id1">
    <g id="id1" class="Slide" clip-path="url(#presentation_clip_path)">
     <g class="Page">
      <g class="Group">
       <g class="com.sun.star.drawing.ClosedBezierShape">
        <g id="id3">
         <rect class="BoundingBox" stroke="none" fill="none" x="92" y="95" width="1870" height="1863"/>
         <path fill="rgb(255,255,255)" stroke="none" d="M 1028,131 C 1028,131 1028,131 1028,131 1066,134 1101,143 1133,158 1166,173 1195,193 1221,220 1246,247 1267,280 1282,319 1297,357 1307,401 1310,452 L 1310,452 1310,452 C 1310,452 1310,452 1310,452 1311,462 1313,470 1315,477 1318,484 1321,490 1325,495 1329,500 1334,506 1340,510 1347,515 1355,520 1365,526 1518,592 1670,658 1822,724 1822,724 1822,724 1822,724 1840,732 1856,742 1869,753 1882,764 1893,776 1901,788 1910,800 1916,814 1920,827 1924,840 1925,854 1925,867 1925,883 1923,898 1918,913 1913,928 1906,942 1897,954 1887,967 1876,978 1864,988 1851,997 1836,1004 1820,1009 1733,1031 1646,1053 1559,1075 1555,1076 1551,1078 1548,1080 1545,1083 1542,1086 1540,1088 1537,1092 1536,1095 1534,1099 1533,1103 1533,1108 1533,1113 1533,1119 1534,1127 1536,1134 1538,1143 1542,1152 1547,1161 1547,1161 1547,1161 1547,1161 L 1854,1835 C 1854,1835 1854,1836 1854,1836 1856,1844 1857,1852 1857,1860 1857,1868 1856,1876 1854,1883 1852,1890 1849,1897 1844,1902 1842,1905 1839,1908 1837,1910 1834,1912 1831,1914 1828,1916 1825,1917 1821,1918 1818,1919 1815,1920 1811,1921 1807,1921 1805,1921 1802,1920 1799,1920 L 1289,1920 1289,1920 C 1274,1919 1261,1918 1250,1916 1238,1913 1229,1910 1221,1904 1212,1899 1205,1893 1200,1886 1194,1879 1189,1870 1185,1861 1157,1811 1134,1739 1108,1678 1096,1648 1083,1621 1068,1601 1062,1592 1055,1584 1048,1579 1044,1577 1041,1575 1038,1573 1034,1572 1031,1571 1027,1571 1027,1571 1027,1571 1027,1571 L 1026,1571 C 1023,1571 1020,1572 1016,1573 1013,1575 1009,1577 1006,1579 999,1584 992,1592 985,1601 971,1621 958,1648 946,1678 920,1739 896,1811 869,1861 864,1870 860,1879 854,1886 848,1893 841,1899 833,1904 825,1910 815,1913 804,1916 793,1918 780,1919 765,1920 L 254,1920 C 252,1920 249,1921 247,1921 243,1921 239,1920 236,1919 232,1918 228,1917 226,1916 222,1914 219,1912 217,1910 214,1908 212,1905 210,1902 205,1897 202,1890 200,1883 197,1876 196,1868 196,1860 196,1852 197,1844 199,1836 200,1836 200,1835 200,1835 L 507,1161 507,1161 C 512,1152 516,1143 518,1134 520,1127 521,1119 521,1113 521,1108 521,1103 519,1099 518,1095 516,1092 514,1088 512,1086 509,1083 506,1080 503,1078 499,1076 495,1075 407,1053 321,1031 233,1009 233,1009 233,1009 233,1009 217,1004 203,997 190,988 178,978 166,967 157,954 148,942 141,928 136,913 131,898 128,883 128,867 128,854 130,840 134,827 138,814 144,800 152,788 161,776 171,764 185,753 198,742 213,732 232,724 L 232,724 C 384,658 536,592 688,526 698,520 707,515 713,510 720,506 725,500 729,495 733,490 736,484 738,477 741,470 742,462 743,452 L 744,452 743,452 743,452 C 747,401 756,357 771,319 787,280 808,247 833,220 858,193 888,173 920,158 953,143 988,134 1025,131 1026,131 1026,131 1026,131 1026,131 1026,131 1027,131 1027,131 1027,131 1028,131 Z"/>
         <path fill="none" stroke="rgb(0,0,0)" stroke-width="71" stroke-linejoin="round" d="M 1028,131 L 1028,131 C 1066,134 1101,143 1133,158 1166,173 1195,193 1221,220 1246,247 1267,280 1282,319 1297,357 1307,401 1310,452 L 1310,452 1310,452 1310,452 C 1311,462 1313,470 1315,477 1318,484 1321,490 1325,495 1329,500 1334,506 1340,510 1347,515 1355,520 1365,526 1518,592 1670,658 1822,724 1822,724 1822,724 1822,724 1840,732 1856,742 1869,753 1882,764 1893,776 1901,788 1910,800 1916,814 1920,827 1924,840 1925,854 1925,867 1925,883 1923,898 1918,913 1913,928 1906,942 1897,954 1887,967 1876,978 1864,988 1851,997 1836,1004 1820,1009 1733,1031 1646,1053 1559,1075 1555,1076 1551,1078 1548,1080 1545,1083 1542,1086 1540,1088 1537,1092 1536,1095 1534,1099 1533,1103 1533,1108 1533,1113 1533,1119 1534,1127 1536,1134 1538,1143 1542,1152 1547,1161 1547,1161 1547,1161 1547,1161 L 1854,1835 C 1854,1835 1854,1836 1854,1836 1856,1844 1857,1852 1857,1860 1857,1868 1856,1876 1854,1883 1852,1890 1849,1897 1844,1902 1842,1905 1839,1908 1837,1910 1834,1912 1831,1914 1828,1916 1825,1917 1821,1918 1818,1919 1815,1920 1811,1921 1807,1921 1805,1921 1802,1920 1799,1920 L 1289,1920 1289,1920 C 1274,1919 1261,1918 1250,1916 1238,1913 1229,1910 1221,1904 1212,1899 1205,1893 1200,1886 1194,1879 1189,1870 1185,1861 1157,1811 1134,1739 1108,1678 1096,1648 1083,1621 1068,1601 1062,1592 1055,1584 1048,1579 1044,1577 1041,1575 1038,1573 1034,1572 1031,1571 1027,1571 L 1027,1571 1026,1571 C 1023,1571 1020,1572 1016,1573 1013,1575 1009,1577 1006,1579 999,1584 992,1592 985,1601 971,1621 958,1648 946,1678 920,1739 896,1811 869,1861 864,1870 860,1879 854,1886 848,1893 841,1899 833,1904 825,1910 815,1913 804,1916 793,1918 780,1919 765,1920 L 254,1920 C 252,1920 249,1921 247,1921 243,1921 239,1920 236,1919 232,1918 228,1917 226,1916 222,1914 219,1912 217,1910 214,1908 212,1905 210,1902 205,1897 202,1890 200,1883 197,1876 196,1868 196,1860 196,1852 197,1844 199,1836 200,1836 200,1835 200,1835 L 507,1161 507,1161 C 512,1152 516,1143 518,1134 520,1127 521,1119 521,1113 521,1108 521,1103 519,1099 518,1095 516,1092 514,1088 512,1086 509,1083 506,1080 503,1078 499,1076 495,1075 407,1053 321,1031 233,1009 L 233,1009 C 217,1004 203,997 190,988 178,978 166,967 157,954 148,942 141,928 136,913 131,898 128,883 128,867 128,854 130,840 134,827 138,814 144,800 152,788 161,776 171,764 185,753 198,742 213,732 232,724 L 232,724 C 384,658 536,592 688,526 698,520 707,515 713,510 720,506 725,500 729,495 733,490 736,484 738,477 741,470 742,462 743,452 L 744,452 743,452 743,452 C 747,401 756,357 771,319 787,280 808,247 833,220 858,193 888,173 920,158 953,143 988,134 1025,131 L 1026,131 1027,131 1028,131 Z"/>
        </g>
       </g>
      </g>
     </g>
    </g>
   </g>
  </g>
 </g>
</svg>