<?xml version="1.0" encoding="UTF-8"?>
<!DOCTYPE svg PUBLIC "-//W3C//DTD SVG 1.1//EN" "http://www.w3.org/Graphics/SVG/1.1/DTD/svg11.dtd">
<svg version="1.2" width="20.52mm" height="20.52mm" viewBox="0 0 2052 2052" preserveAspectRatio="xMidYMid" fill-rule="evenodd" stroke-width="28.222" stroke-linejoin="round" xmlns="http://www.w3.org/2000/svg" xmlns:ooo="http://xml.openoffice.org/svg/export" xmlns:xlink="http://www.w3.org/1999/xlink" xmlns:presentation="http://sun.com/xmlns/staroffice/presentation" xmlns:smil="http://www.w3.org/2001/SMIL20/" xmlns:anim="urn:oasis:names:tc:opendocument:xmlns:animation:1.0" xml:space="preserve">
 <defs class="ClipPathGroup">
  <clipPath id="presentation_clip_path" clipPathUnits="userSpaceOnUse">
   <rect x="0" y="0" width="2052" height="2052"/>
  </clipPath>
  <clipPath id="presentation_clip_path_shrink" clipPathUnits="userSpaceOnUse">
   <rect x="2" y="2" width="2048" height="2048"/>
  </clipPath>
 </defs>
 <defs class="TextShapeIndex">
  <g ooo:slide="id1" ooo:id-list="id3 id4"/>
 </defs>
 <defs class="EmbeddedBulletChars">
  <g id="bullet-char-template-57356" transform="scale(0.00048828125,-0.00048828125)">
   <path d="M 580,1141 L 1163,571 580,0 -4,571 580,1141 Z"/>
  </g>
  <g id="bullet-char-template-57354" transform="scale(0.00048828125,-0.00048828125)">
   <path d="M 8,1128 L 1137,1128 1137,0 8,0 8,1128 Z"/>
  </g>
  <g id="bullet-char-template-10146" transform="scale(0.00048828125,-0.00048828125)">
   <path d="M 174,0 L 602,739 174,1481 1456,739 174,0 Z M 1358,739 L 309,1346 659,739 1358,739 Z"/>
  </g>
  <g id="bullet-char-template-10132" transform="scale(0.00048828125,-0.00048828125)">
   <path d="M 2015,739 L 1276,0 717,0 1260,543 174,543 174,936 1260,936 717,1481 1274,1481 2015,739 Z"/>
  </g>
  <g id="bullet-char-template-10007" transform="scale(0.00048828125,-0.00048828125)">
   <path d="M 0,-2 C -7,14 -16,27 -25,37 L 356,567 C 262,823 215,952 215,954 215,979 228,992 255,992 264,992 276,990 289,987 310,991 331,999 354,1012 L 381,999 492,748 772,1049 836,1024 860,1049 C 881,1039 901,1025 922,1006 886,937 835,863 770,784 769,783 710,716 594,584 L 774,223 C 774,196 753,168 711,139 L 727,119 C 717,90 699,76 672,76 641,76 570,178 457,381 L 164,-76 C 142,-110 111,-127 72,-127 30,-127 9,-110 8,-76 1,-67 -2,-52 -2,-32 -2,-23 -1,-13 0,-2 Z"/>
  </g>
  <g id="bullet-char-template-10004" transform="scale(0.00048828125,-0.00048828125)">
   <path d="M 285,-33 C 182,-33 111,30 74,156 52,228 41,333 41,471 41,549 55,616 82,672 116,743 169,778 240,778 293,778 328,747 346,684 L 369,508 C 377,444 397,411 428,410 L 1163,1116 C 1174,1127 1196,1133 1229,1133 1271,1133 1292,1118 1292,1087 L 1292,965 C 1292,929 1282,901 1262,881 L 442,47 C 390,-6 338,-33 285,-33 Z"/>
  </g>
  <g id="bullet-char-template-9679" transform="scale(0.00048828125,-0.00048828125)">
   <path d="M 813,0 C 632,0 489,54 383,161 276,268 223,411 223,592 223,773 276,916 383,1023 489,1130 632,1184 813,1184 992,1184 1136,1130 1245,1023 1353,916 1407,772 1407,592 1407,412 1353,268 1245,161 1136,54 992,0 813,0 Z"/>
  </g>
  <g id="bullet-char-template-8226" transform="scale(0.00048828125,-0.00048828125)">
   <path d="M 346,457 C 273,457 209,483 155,535 101,586 74,649 74,723 74,796 101,859 155,911 209,963 273,989 346,989 419,989 480,963 531,910 582,859 608,796 608,723 608,648 583,586 532,535 482,483 420,457 346,457 Z"/>
  </g>
  <g id="bullet-char-template-8211" transform="scale(0.00048828125,-0.00048828125)">
   <path d="M -4,459 L 1135,459 1135,606 -4,606 -4,459 Z"/>
  </g>
  <g id="bullet-char-template-61548" transform="scale(0.00048828125,-0.00048828125)">
   <path d="M 173,740 C 173,903 231,1043 346,1159 462,1274 601,1332 765,1332 928,1332 1067,1274 1183,1159 1299,1043 1357,903 1357,740 1357,577 1299,437 1183,322 1067,206 928,148 765,148 601,148 462,206 346,322 231,437 173,577 173,740 Z"/>
  </g>
 </defs>
 <g>
  <g id="id2" class="Master_Slide">
   <g id="bg-id2" class="Background"/>
   <g id="bo-id2" class="BackgroundObjects"/>
  </g>
 </g>
 <g class="SlideGroup">
  <g>
   <g id="container-id1">
    <g id="id1" class="Slide" clip-path="url(#presentation_clip_path)">
     <g class="Page">
      <g class="Group">
       <g class="com.sun.star.drawing.ClosedBezierShape">
        <g id="id3">
         <rect class="BoundingBox" stroke="none" fill="none" x="112" y="114" width="1832" height="1825"/>
         <path fill="rgb(215,0,0)" stroke="none" d="M 1029,167 C 1065,170 1099,178 1130,193 1161,207 1190,227 1214,253 1238,278 1258,310 1273,347 1287,384 1297,426 1300,475 L 1300,476 1300,475 C 1301,485 1303,493 1305,499 1307,506 1310,512 1314,517 1318,522 1323,527 1329,531 1335,536 1343,541 1353,546 1499,610 1645,672 1791,736 L 1792,736 C 1808,744 1824,754 1836,764 1849,775 1859,786 1867,798 1876,810 1882,822 1885,835 1889,848 1890,861 1890,874 1890,889 1888,903 1883,918 1879,932 1872,946 1863,958 1854,970 1843,981 1831,989 1819,998 1805,1005 1790,1009 1706,1031 1623,1052 1539,1073 1535,1074 1531,1076 1528,1078 1525,1081 1523,1083 1520,1086 1518,1089 1517,1093 1515,1096 1514,1100 1513,1105 1513,1109 1513,1116 1514,1123 1517,1130 1519,1139 1522,1147 1527,1156 L 1822,1803 1822,1804 C 1824,1812 1825,1819 1825,1827 1825,1835 1824,1842 1822,1849 1820,1856 1817,1862 1812,1868 1810,1870 1808,1873 1805,1875 1803,1877 1800,1879 1797,1881 1794,1882 1791,1883 1788,1884 1784,1885 1781,1885 1777,1885 1775,1885 1772,1885 1770,1885 L 1280,1885 C 1265,1884 1253,1883 1242,1881 1231,1878 1222,1875 1214,1870 1206,1865 1199,1859 1194,1852 1188,1845 1184,1837 1180,1827 1153,1780 1131,1711 1106,1652 1094,1624 1082,1597 1068,1579 1062,1570 1055,1562 1048,1558 1045,1555 1042,1553 1038,1552 1035,1550 1032,1550 1028,1550 1024,1550 1021,1550 1018,1552 1014,1553 1011,1555 1008,1558 1001,1562 994,1570 988,1579 974,1597 962,1624 950,1652 925,1711 902,1780 876,1827 872,1837 868,1845 862,1852 856,1859 850,1865 842,1870 834,1875 825,1878 814,1881 804,1883 791,1884 776,1885 L 286,1885 C 284,1885 281,1885 279,1885 275,1885 271,1885 268,1884 265,1883 261,1882 258,1881 255,1879 252,1877 250,1875 247,1873 246,1870 243,1868 239,1862 236,1856 234,1849 232,1842 231,1835 231,1827 231,1819 232,1812 234,1804 L 234,1803 529,1156 C 534,1147 537,1139 539,1130 541,1123 543,1116 543,1109 543,1105 542,1100 540,1096 539,1093 538,1089 536,1086 533,1083 531,1081 528,1078 525,1076 521,1074 517,1073 433,1052 350,1031 266,1009 251,1005 237,998 225,989 213,981 202,970 193,958 184,946 177,932 172,918 167,903 165,889 165,874 165,861 166,848 170,835 175,822 180,810 188,798 197,786 207,775 220,764 232,754 247,744 264,736 411,672 557,610 703,546 712,541 721,536 727,531 733,527 738,522 742,517 746,512 748,506 751,499 753,493 755,485 756,475 L 756,476 756,475 C 759,426 768,384 783,347 798,310 818,278 842,253 866,227 895,207 926,193 957,178 990,170 1027,167 L 1028,167 1029,167 Z"/>
         <path fill="none" stroke="rgb(215,0,0)" stroke-width="106" stroke-linejoin="round" d="M 1029,167 C 1065,170 1099,178 1130,193 1161,207 1190,227 1214,253 1238,278 1258,310 1273,347 1287,384 1297,426 1300,475 L 1300,476 1300,475 C 1301,485 1303,493 1305,499 1307,506 1310,512 1314,517 1318,522 1323,527 1329,531 1335,536 1343,541 1353,546 1499,610 1645,672 1791,736 L 1792,736 C 1808,744 1824,754 1836,764 1849,775 1859,786 1867,798 1876,810 1882,822 1885,835 1889,848 1890,861 1890,874 1890,889 1888,903 1883,918 1879,932 1872,946 1863,958 1854,970 1843,981 1831,989 1819,998 1805,1005 1790,1009 1706,1031 1623,1052 1539,1073 1535,1074 1531,1076 1528,1078 L 1520,1086 C 1518,1089 1517,1093 1515,1096 1514,1100 1513,1105 1513,1109 1513,1116 1514,1123 1517,1130 1519,1139 1522,1147 1527,1156 L 1822,1803 1822,1804 C 1824,1812 1825,1819 1825,1827 1825,1835 1824,1842 1822,1849 1820,1856 1817,1862 1812,1868 1810,1870 1808,1873 1805,1875 1803,1877 1800,1879 1797,1881 L 1788,1884 C 1784,1885 1781,1885 1777,1885 L 1770,1885 1280,1885 C 1265,1884 1253,1883 1242,1881 1231,1878 1222,1875 1214,1870 1206,1865 1199,1859 1194,1852 1188,1845 1184,1837 1180,1827 1153,1780 1131,1711 1106,1652 1094,1624 1082,1597 1068,1579 1062,1570 1055,1562 1048,1558 1045,1555 1042,1553 1038,1552 1035,1550 1032,1550 1028,1550 1024,1550 1021,1550 1018,1552 1014,1553 1011,1555 1008,1558 1001,1562 994,1570 988,1579 974,1597 962,1624 950,1652 925,1711 902,1780 876,1827 872,1837 868,1845 862,1852 856,1859 850,1865 842,1870 834,1875 825,1878 814,1881 804,1883 791,1884 776,1885 L 286,1885 279,1885 C 275,1885 271,1885 268,1884 265,1883 261,1882 258,1881 255,1879 252,1877 250,1875 247,1873 246,1870 243,1868 239,1862 236,1856 234,1849 232,1842 231,1835 231,1827 231,1819 232,1812 234,1804 L 234,1803 529,1156 C 534,1147 537,1139 539,1130 541,1123 543,1116 543,1109 543,1105 542,1100 540,1096 539,1093 538,1089 536,1086 L 528,1078 C 525,1076 521,1074 517,1073 433,1052 350,1031 266,1009 251,1005 237,998 225,989 213,981 202,970 193,958 184,946 177,932 172,918 167,903 165,889 165,874 165,861 166,848 170,835 175,822 180,810 188,798 197,786 207,775 220,764 232,754 247,744 264,736 411,672 557,610 703,546 712,541 721,536 727,531 733,527 738,522 742,517 746,512 748,506 751,499 753,493 755,485 756,475 L 756,476 756,475 C 759,426 768,384 783,347 798,310 818,278 842,253 866,227 895,207 926,193 957,178 990,170 1027,167 L 1028,167 1029,167 Z"/>
        </g>
       </g>
      </g>
      <g class="com.sun.star.drawing.ClosedBezierShape">
       <g id="id4">
        <rect class="BoundingBox" stroke="none" fill="none" x="596" y="617" width="841" height="790"/>
        <path fill="rgb(255,255,255)" stroke="none" d="M 1011,686 C 1060,650 1088,618 1175,618 1373,635 1487,870 1411,994 1334,1171 1196,1292 1019,1405 826,1284 702,1168 613,983 557,839 652,644 861,621 926,618 969,647 1011,686 Z"/>
        <path fill="none" stroke="rgb(255,255,255)" d="M 1011,686 C 1060,650 1088,618 1175,618 1373,635 1487,870 1411,994 1334,1171 1196,1292 1019,1405 826,1284 702,1168 613,983 557,839 652,644 861,621 926,618 969,647 1011,686 Z"/>
       </g>
      </g>
     </g>
    </g>
   </g>
  </g>
 </g>
</svg>