<?xml version="1.0" encoding="UTF-8"?>
<!DOCTYPE svg PUBLIC "-//W3C//DTD SVG 1.1//EN" "http://www.w3.org/Graphics/SVG/1.1/DTD/svg11.dtd">
<svg version="1.2" width="20.52mm" height="20.52mm" viewBox="0 0 2052 2052" preserveAspectRatio="xMidYMid" fill-rule="evenodd" stroke-width="28.222" stroke-linejoin="round" xmlns="http://www.w3.org/2000/svg" xmlns:ooo="http://xml.openoffice.org/svg/export" xmlns:xlink="http://www.w3.org/1999/xlink" xmlns:presentation="http://sun.com/xmlns/staroffice/presentation" xmlns:smil="http://www.w3.org/2001/SMIL20/" xmlns:anim="urn:oasis:names:tc:opendocument:xmlns:animation:1.0" xml:space="preserve">
 <defs class="ClipPathGroup">
  <clipPath id="presentation_clip_path" clipPathUnits="userSpaceOnUse">
   <rect x="0" y="0" width="2052" height="2052"/>
  </clipPath>
  <clipPath id="presentation_clip_path_shrink" clipPathUnits="userSpaceOnUse">
   <rect x="2" y="2" width="2048" height="2048"/>
  </clipPath>
 </defs>
 <defs class="TextShapeIndex">
  <g ooo:slide="id1" ooo:id-list="id3 id4 id5 id6"/>
 </defs>
 <defs class="EmbeddedBulletChars">
  <g id="bullet-char-template-57356" transform="scale(0.00048828125,-0.00048828125)">
   <path d="M 580,1141 L 1163,571 580,0 -4,571 580,1141 Z"/>
  </g>
  <g id="bullet-char-template-57354" transform="scale(0.00048828125,-0.00048828125)">
   <path d="M 8,1128 L 1137,1128 1137,0 8,0 8,1128 Z"/>
  </g>
  <g id="bullet-char-template-10146" transform="scale(0.00048828125,-0.00048828125)">
   <path d="M 174,0 L 602,739 174,1481 1456,739 174,0 Z M 1358,739 L 309,1346 659,739 1358,739 Z"/>
  </g>
  <g id="bullet-char-template-10132" transform="scale(0.00048828125,-0.00048828125)">
   <path d="M 2015,739 L 1276,0 717,0 1260,543 174,543 174,936 1260,936 717,1481 1274,1481 2015,739 Z"/>
  </g>
  <g id="bullet-char-template-10007" transform="scale(0.00048828125,-0.00048828125)">
   <path d="M 0,-2 C -7,14 -16,27 -25,37 L 356,567 C 262,823 215,952 215,954 215,979 228,992 255,992 264,992 276,990 289,987 310,991 331,999 354,1012 L 381,999 492,748 772,1049 836,1024 860,1049 C 881,1039 901,1025 922,1006 886,937 835,863 770,784 769,783 710,716 594,584 L 774,223 C 774,196 753,168 711,139 L 727,119 C 717,90 699,76 672,76 641,76 570,178 457,381 L 164,-76 C 142,-110 111,-127 72,-127 30,-127 9,-110 8,-76 1,-67 -2,-52 -2,-32 -2,-23 -1,-13 0,-2 Z"/>
  </g>
  <g id="bullet-char-template-10004" transform="scale(0.00048828125,-0.00048828125)">
   <path d="M 285,-33 C 182,-33 111,30 74,156 52,228 41,333 41,471 41,549 55,616 82,672 116,743 169,778 240,778 293,778 328,747 346,684 L 369,508 C 377,444 397,411 428,410 L 1163,1116 C 1174,1127 1196,1133 1229,1133 1271,1133 1292,1118 1292,1087 L 1292,965 C 1292,929 1282,901 1262,881 L 442,47 C 390,-6 338,-33 285,-33 Z"/>
  </g>
  <g id="bullet-char-template-9679" transform="scale(0.00048828125,-0.00048828125)">
   <path d="M 813,0 C 632,0 489,54 383,161 276,268 223,411 223,592 223,773 276,916 383,1023 489,1130 632,1184 813,1184 992,1184 1136,1130 1245,1023 1353,916 1407,772 1407,592 1407,412 1353,268 1245,161 1136,54 992,0 813,0 Z"/>
  </g>
  <g id="bullet-char-template-8226" transform="scale(0.00048828125,-0.00048828125)">
   <path d="M 346,457 C 273,457 209,483 155,535 101,586 74,649 74,723 74,796 101,859 155,911 209,963 273,989 346,989 419,989 480,963 531,910 582,859 608,796 608,723 608,648 583,586 532,535 482,483 420,457 346,457 Z"/>
  </g>
  <g id="bullet-char-template-8211" transform="scale(0.00048828125,-0.00048828125)">
   <path d="M -4,459 L 1135,459 1135,606 -4,606 -4,459 Z"/>
  </g>
  <g id="bullet-char-template-61548" transform="scale(0.00048828125,-0.00048828125)">
   <path d="M 173,740 C 173,903 231,1043 346,1159 462,1274 601,1332 765,1332 928,1332 1067,1274 1183,1159 1299,1043 1357,903 1357,740 1357,577 1299,437 1183,322 1067,206 928,148 765,148 601,148 462,206 346,322 231,437 173,577 173,740 Z"/>
  </g>
 </defs>
 <g>
  <g id="id2" class="Master_Slide">
   <g id="bg-id2" class="Background"/>
   <g id="bo-id2" class="BackgroundObjects"/>
  </g>
 </g>
 <g class="SlideGroup">
  <g>
   <g id="container-id1">
    <g id="id1" class="Slide" clip-path="url(#presentation_clip_path)">
     <g class="Page">
      <g class="Group">
       <g class="Group">
        <g class="com.sun.star.drawing.ClosedBezierShape">
         <g id="id3">
          <rect class="BoundingBox" stroke="none" fill="none" x="111" y="113" width="1833" height="1826"/>
          <path fill="rgb(0,0,0)" stroke="none" d="M 1028,167 L 1028,167 C 1064,170 1098,178 1129,193 1160,207 1189,227 1213,253 1237,278 1257,310 1272,347 1286,384 1296,426 1299,475 L 1299,476 1299,475 C 1299,475 1299,475 1299,475 1300,485 1302,493 1304,499 1306,506 1309,512 1313,517 1317,522 1322,527 1328,531 1334,536 1342,541 1352,546 1498,610 1644,672 1790,736 L 1791,736 C 1807,744 1823,754 1835,764 1848,775 1858,786 1866,798 1875,810 1881,822 1884,835 1888,848 1889,861 1889,874 1889,889 1887,903 1882,918 1878,932 1871,946 1862,958 1853,970 1842,981 1830,989 1818,998 1804,1005 1789,1009 1705,1031 1622,1052 1538,1073 1534,1074 1530,1076 1527,1078 1524,1081 1522,1083 1519,1086 1517,1089 1516,1093 1514,1096 1513,1100 1512,1105 1512,1109 1512,1116 1513,1123 1516,1130 1518,1139 1521,1147 1526,1156 1526,1156 1526,1156 1526,1156 L 1821,1803 C 1821,1803 1821,1804 1821,1804 1823,1812 1824,1819 1824,1827 1824,1835 1823,1842 1821,1849 1819,1856 1816,1862 1811,1868 1809,1870 1807,1873 1804,1875 1802,1877 1799,1879 1796,1881 1793,1882 1790,1883 1787,1884 1783,1885 1780,1885 1776,1885 1774,1885 1771,1885 1769,1885 L 1279,1885 C 1264,1884 1252,1883 1241,1881 1230,1878 1221,1875 1213,1870 1205,1865 1198,1859 1193,1852 1187,1845 1183,1837 1179,1827 1152,1780 1130,1711 1105,1652 1093,1624 1081,1597 1067,1579 1061,1570 1054,1562 1047,1558 1044,1555 1041,1553 1037,1552 1034,1550 1031,1550 1027,1550 1027,1550 1027,1550 1027,1550 1023,1550 1020,1550 1017,1552 1013,1553 1010,1555 1007,1558 1000,1562 993,1570 987,1579 973,1597 961,1624 949,1652 924,1711 901,1780 875,1827 871,1837 867,1845 861,1852 855,1859 849,1865 841,1870 833,1875 824,1878 813,1881 803,1883 790,1884 775,1885 L 285,1885 C 283,1885 280,1885 278,1885 274,1885 270,1885 267,1884 264,1883 260,1882 257,1881 254,1879 251,1877 249,1875 246,1873 245,1870 242,1868 238,1862 235,1856 233,1849 231,1842 230,1835 230,1827 230,1819 231,1812 233,1804 233,1804 233,1803 233,1803 L 528,1156 528,1156 C 533,1147 536,1139 538,1130 540,1123 542,1116 542,1109 542,1105 541,1100 539,1096 538,1093 537,1089 535,1086 532,1083 530,1081 527,1078 524,1076 520,1074 516,1073 432,1052 349,1031 265,1009 250,1005 236,998 224,989 212,981 201,970 192,958 183,946 176,932 171,918 166,903 164,889 164,874 164,861 165,848 169,835 174,822 179,810 187,798 196,786 206,775 219,764 231,754 246,744 263,736 410,672 556,610 702,546 711,541 720,536 726,531 732,527 737,522 741,517 745,512 747,506 750,499 752,493 754,485 755,475 L 755,476 755,475 C 758,426 767,384 782,347 797,310 817,278 841,253 865,227 894,207 925,193 956,178 989,170 1026,167 L 1026,167 1027,167 C 1027,167 1027,167 1028,167 Z"/>
          <path fill="none" stroke="rgb(0,0,0)" stroke-width="106" stroke-linejoin="round" d="M 1028,167 L 1028,167 C 1064,170 1098,178 1129,193 1160,207 1189,227 1213,253 1237,278 1257,310 1272,347 1286,384 1296,426 1299,475 L 1299,476 1299,475 1299,475 C 1300,485 1302,493 1304,499 1306,506 1309,512 1313,517 1317,522 1322,527 1328,531 1334,536 1342,541 1352,546 1498,610 1644,672 1790,736 L 1791,736 C 1807,744 1823,754 1835,764 1848,775 1858,786 1866,798 1875,810 1881,822 1884,835 1888,848 1889,861 1889,874 1889,889 1887,903 1882,918 1878,932 1871,946 1862,958 1853,970 1842,981 1830,989 1818,998 1804,1005 1789,1009 1705,1031 1622,1052 1538,1073 1534,1074 1530,1076 1527,1078 1524,1081 1522,1083 1519,1086 1517,1089 1516,1093 1514,1096 1513,1100 1512,1105 1512,1109 1512,1116 1513,1123 1516,1130 1518,1139 1521,1147 1526,1156 L 1526,1156 1821,1803 C 1821,1803 1821,1804 1821,1804 1823,1812 1824,1819 1824,1827 1824,1835 1823,1842 1821,1849 1819,1856 1816,1862 1811,1868 1809,1870 1807,1873 1804,1875 1802,1877 1799,1879 1796,1881 1793,1882 1790,1883 1787,1884 1783,1885 1780,1885 1776,1885 1774,1885 1771,1885 1769,1885 L 1279,1885 C 1264,1884 1252,1883 1241,1881 1230,1878 1221,1875 1213,1870 1205,1865 1198,1859 1193,1852 1187,1845 1183,1837 1179,1827 1152,1780 1130,1711 1105,1652 1093,1624 1081,1597 1067,1579 1061,1570 1054,1562 1047,1558 1044,1555 1041,1553 1037,1552 1034,1550 1031,1550 1027,1550 L 1027,1550 C 1023,1550 1020,1550 1017,1552 1013,1553 1010,1555 1007,1558 1000,1562 993,1570 987,1579 973,1597 961,1624 949,1652 924,1711 901,1780 875,1827 871,1837 867,1845 861,1852 855,1859 849,1865 841,1870 833,1875 824,1878 813,1881 803,1883 790,1884 775,1885 L 285,1885 C 283,1885 280,1885 278,1885 274,1885 270,1885 267,1884 264,1883 260,1882 257,1881 254,1879 251,1877 249,1875 246,1873 245,1870 242,1868 238,1862 235,1856 233,1849 231,1842 230,1835 230,1827 230,1819 231,1812 233,1804 233,1804 233,1803 233,1803 L 528,1156 528,1156 C 533,1147 536,1139 538,1130 540,1123 542,1116 542,1109 542,1105 541,1100 539,1096 538,1093 537,1089 535,1086 532,1083 530,1081 527,1078 524,1076 520,1074 516,1073 432,1052 349,1031 265,1009 250,1005 236,998 224,989 212,981 201,970 192,958 183,946 176,932 171,918 166,903 164,889 164,874 164,861 165,848 169,835 174,822 179,810 187,798 196,786 206,775 219,764 231,754 246,744 263,736 410,672 556,610 702,546 711,541 720,536 726,531 732,527 737,522 741,517 745,512 747,506 750,499 752,493 754,485 755,475 L 755,476 755,475 C 758,426 767,384 782,347 797,310 817,278 841,253 865,227 894,207 925,193 956,178 989,170 1026,167 L 1026,167 1027,167 1028,167 Z"/>
         </g>
        </g>
       </g>
       <g class="Group">
        <g class="com.sun.star.drawing.ClosedBezierShape">
         <g id="id4">
          <rect class="BoundingBox" stroke="none" fill="none" x="554" y="619" width="814" height="815"/>
          <path fill="rgb(255,255,255)" stroke="none" d="M 1274,1190 L 1302,1294 1237,1378 1143,1360 1114,1256 1180,1172 1274,1190 Z M 1208,1118 C 1192,1118 1177,1120 1162,1124 L 864,821 C 867,807 870,793 870,778 870,688 802,620 713,620 704,620 695,620 687,622 L 771,707 C 773,709 775,711 776,713 778,716 779,718 780,720 781,725 782,730 782,736 782,741 781,745 779,750 779,753 778,755 776,757 775,760 773,762 771,764 L 698,835 C 696,838 694,839 692,841 689,842 687,843 684,844 680,846 675,847 670,847 665,847 660,846 655,844 653,843 650,842 648,841 645,839 643,838 641,835 L 557,750 C 556,759 555,768 555,778 555,867 623,935 713,935 728,935 742,933 755,930 L 1056,1234 C 1053,1246 1051,1260 1051,1275 1051,1364 1119,1432 1208,1432 1298,1432 1366,1364 1366,1275 1366,1185 1298,1118 1208,1118 Z"/>
          <path fill="none" stroke="rgb(255,255,255)" d="M 1274,1190 L 1302,1294 1237,1378 1143,1360 1114,1256 1180,1172 1274,1190 Z"/>
          <path fill="none" stroke="rgb(255,255,255)" d="M 1208,1118 C 1192,1118 1177,1120 1162,1124 L 864,821 C 867,807 870,793 870,778 870,688 802,620 713,620 704,620 695,620 687,622 L 771,707 C 773,709 775,711 776,713 778,716 779,718 780,720 781,725 782,730 782,736 782,741 781,745 779,750 779,753 778,755 776,757 775,760 773,762 771,764 L 698,835 C 696,838 694,839 692,841 689,842 687,843 684,844 680,846 675,847 670,847 665,847 660,846 655,844 653,843 650,842 648,841 645,839 643,838 641,835 L 557,750 C 556,759 555,768 555,778 555,867 623,935 713,935 728,935 742,933 755,930 L 1056,1234 C 1053,1246 1051,1260 1051,1275 1051,1364 1119,1432 1208,1432 1298,1432 1366,1364 1366,1275 1366,1185 1298,1118 1208,1118 Z"/>
         </g>
        </g>
        <g class="com.sun.star.drawing.ClosedBezierShape">
         <g id="id5">
          <rect class="BoundingBox" stroke="none" fill="none" x="670" y="1105" width="278" height="270"/>
          <path fill="rgb(255,255,255)" stroke="none" d="M 946,1213 C 945,1214 944,1215 944,1215 L 798,1354 C 770,1380 716,1379 690,1351 664,1324 665,1270 692,1244 L 838,1106 946,1213 Z"/>
          <path fill="none" stroke="rgb(255,255,255)" d="M 946,1213 C 945,1214 944,1215 944,1215 L 798,1354 C 770,1380 716,1379 690,1351 664,1324 665,1270 692,1244 L 838,1106 946,1213 Z"/>
         </g>
        </g>
        <g class="com.sun.star.drawing.ClosedBezierShape">
         <g id="id6">
          <rect class="BoundingBox" stroke="none" fill="none" x="942" y="633" width="558" height="400"/>
          <path fill="rgb(255,255,255)" stroke="none" d="M 1028,910 C 1059,878 1092,846 1123,814 1148,721 1045,686 943,683 1031,630 1140,630 1185,639 1246,654 1353,713 1382,830 1407,842 1423,839 1450,832 1466,848 1482,863 1498,879 1447,929 1395,980 1344,1031 1329,1016 1313,1001 1298,986 1315,939 1276,904 1239,923 1205,945 1183,986 1143,1010 1105,977 1066,943 1028,910 Z"/>
          <path fill="none" stroke="rgb(255,255,255)" d="M 1028,910 C 1059,878 1092,846 1123,814 1148,721 1045,686 943,683 1031,630 1140,630 1185,639 1246,654 1353,713 1382,830 1407,842 1423,839 1450,832 1466,848 1482,863 1498,879 1447,929 1395,980 1344,1031 1329,1016 1313,1001 1298,986 1315,939 1276,904 1239,923 1205,945 1183,986 1143,1010 1105,977 1066,943 1028,910 Z"/>
         </g>
        </g>
       </g>
      </g>
     </g>
    </g>
   </g>
  </g>
 </g>
</svg>