<?xml version="1.0" encoding="UTF-8"?>
<!DOCTYPE svg PUBLIC "-//W3C//DTD SVG 1.1//EN" "http://www.w3.org/Graphics/SVG/1.1/DTD/svg11.dtd">
<svg version="1.2" width="20.52mm" height="20.52mm" viewBox="0 0 2052 2052" preserveAspectRatio="xMidYMid" fill-rule="evenodd" stroke-width="28.222" stroke-linejoin="round" xmlns="http://www.w3.org/2000/svg" xmlns:ooo="http://xml.openoffice.org/svg/export" xmlns:xlink="http://www.w3.org/1999/xlink" xmlns:presentation="http://sun.com/xmlns/staroffice/presentation" xmlns:smil="http://www.w3.org/2001/SMIL20/" xmlns:anim="urn:oasis:names:tc:opendocument:xmlns:animation:1.0" xml:space="preserve">
 <defs class="ClipPathGroup">
  <clipPath id="presentation_clip_path" clipPathUnits="userSpaceOnUse">
   <rect x="0" y="0" width="2052" height="2052"/>
  </clipPath>
  <clipPath id="presentation_clip_path_shrink" clipPathUnits="userSpaceOnUse">
   <rect x="2" y="2" width="2048" height="2048"/>
  </clipPath>
 </defs>
 <defs class="TextShapeIndex">
  <g ooo:slide="id1" ooo:id-list="id3 id4"/>
 </defs>
 <defs class="EmbeddedBulletChars">
  <g id="bullet-char-template-57356" transform="scale(0.00048828125,-0.00048828125)">
   <path d="M 580,1141 L 1163,571 580,0 -4,571 580,1141 Z"/>
  </g>
  <g id="bullet-char-template-57354" transform="scale(0.00048828125,-0.00048828125)">
   <path d="M 8,1128 L 1137,1128 1137,0 8,0 8,1128 Z"/>
  </g>
  <g id="bullet-char-template-10146" transform="scale(0.00048828125,-0.00048828125)">
   <path d="M 174,0 L 602,739 174,1481 1456,739 174,0 Z M 1358,739 L 309,1346 659,739 1358,739 Z"/>
  </g>
  <g id="bullet-char-template-10132" transform="scale(0.00048828125,-0.00048828125)">
   <path d="M 2015,739 L 1276,0 717,0 1260,543 174,543 174,936 1260,936 717,1481 1274,1481 2015,739 Z"/>
  </g>
  <g id="bullet-char-template-10007" transform="scale(0.00048828125,-0.00048828125)">
   <path d="M 0,-2 C -7,14 -16,27 -25,37 L 356,567 C 262,823 215,952 215,954 215,979 228,992 255,992 264,992 276,990 289,987 310,991 331,999 354,1012 L 381,999 492,748 772,1049 836,1024 860,1049 C 881,1039 901,1025 922,1006 886,937 835,863 770,784 769,783 710,716 594,584 L 774,223 C 774,196 753,168 711,139 L 727,119 C 717,90 699,76 672,76 641,76 570,178 457,381 L 164,-76 C 142,-110 111,-127 72,-127 30,-127 9,-110 8,-76 1,-67 -2,-52 -2,-32 -2,-23 -1,-13 0,-2 Z"/>
  </g>
  <g id="bullet-char-template-10004" transform="scale(0.00048828125,-0.00048828125)">
   <path d="M 285,-33 C 182,-33 111,30 74,156 52,228 41,333 41,471 41,549 55,616 82,672 116,743 169,778 240,778 293,778 328,747 346,684 L 369,508 C 377,444 397,411 428,410 L 1163,1116 C 1174,1127 1196,1133 1229,1133 1271,1133 1292,1118 1292,1087 L 1292,965 C 1292,929 1282,901 1262,881 L 442,47 C 390,-6 338,-33 285,-33 Z"/>
  </g>
  <g id="bullet-char-template-9679" transform="scale(0.00048828125,-0.00048828125)">
   <path d="M 813,0 C 632,0 489,54 383,161 276,268 223,411 223,592 223,773 276,916 383,1023 489,1130 632,1184 813,1184 992,1184 1136,1130 1245,1023 1353,916 1407,772 1407,592 1407,412 1353,268 1245,161 1136,54 992,0 813,0 Z"/>
  </g>
  <g id="bullet-char-template-8226" transform="scale(0.00048828125,-0.00048828125)">
   <path d="M 346,457 C 273,457 209,483 155,535 101,586 74,649 74,723 74,796 101,859 155,911 209,963 273,989 346,989 419,989 480,963 531,910 582,859 608,796 608,723 608,648 583,586 532,535 482,483 420,457 346,457 Z"/>
  </g>
  <g id="bullet-char-template-8211" transform="scale(0.00048828125,-0.00048828125)">
   <path d="M -4,459 L 1135,459 1135,606 -4,606 -4,459 Z"/>
  </g>
  <g id="bullet-char-template-61548" transform="scale(0.00048828125,-0.00048828125)">
   <path d="M 173,740 C 173,903 231,1043 346,1159 462,1274 601,1332 765,1332 928,1332 1067,1274 1183,1159 1299,1043 1357,903 1357,740 1357,577 1299,437 1183,322 1067,206 928,148 765,148 601,148 462,206 346,322 231,437 173,577 173,740 Z"/>
  </g>
 </defs>
 <g>
  <g id="id2" class="Master_Slide">
   <g id="bg-id2" class="Background"/>
   <g id="bo-id2" class="BackgroundObjects"/>
  </g>
 </g>
 <g class="SlideGroup">
  <g>
   <g id="container-id1">
    <g id="id1" class="Slide" clip-path="url(#presentation_clip_path)">
     <g class="Page">
      <g class="Group">
       <g class="Group">
        <g class="com.sun.star.drawing.ClosedBezierShape">
         <g id="id3">
          <rect class="BoundingBox" stroke="none" fill="none" x="107" y="115" width="1808" height="1797"/>
          <path fill="rgb(255,179,0)" stroke="none" d="M 1012,168 C 1048,171 1081,179 1112,194 1143,207 1171,227 1195,253 1218,277 1238,309 1253,345 1267,381 1277,423 1280,471 L 1280,472 1280,471 C 1281,481 1283,489 1284,495 1286,501 1289,507 1293,512 1297,517 1302,522 1308,526 1314,531 1322,536 1332,541 1476,604 1620,665 1763,728 L 1764,728 C 1780,736 1796,745 1808,755 1821,766 1830,777 1838,789 1847,801 1853,812 1856,825 1860,838 1861,851 1861,863 1861,878 1859,892 1854,907 1850,921 1843,934 1834,946 1826,958 1815,969 1803,977 1791,985 1777,992 1762,996 1680,1018 1598,1039 1515,1059 1511,1060 1507,1062 1504,1064 1501,1067 1499,1069 1496,1072 1494,1075 1493,1079 1491,1082 1490,1086 1489,1091 1489,1095 1489,1102 1490,1108 1493,1115 1495,1124 1498,1132 1503,1141 L 1794,1777 1794,1778 C 1796,1786 1797,1793 1797,1801 1797,1809 1796,1816 1794,1823 1792,1829 1789,1835 1784,1841 1782,1843 1780,1846 1777,1848 1775,1850 1772,1852 1769,1854 1766,1855 1763,1856 1760,1857 1757,1858 1754,1858 1750,1858 1748,1858 1745,1858 1743,1858 L 1260,1858 C 1245,1857 1233,1856 1222,1854 1212,1851 1203,1848 1195,1843 1187,1838 1180,1832 1175,1826 1169,1819 1165,1811 1161,1801 1135,1755 1113,1687 1088,1629 1077,1601 1065,1575 1051,1557 1045,1548 1038,1540 1031,1536 1028,1533 1025,1531 1021,1530 1018,1528 1015,1528 1011,1528 1008,1528 1005,1528 1002,1530 998,1531 995,1533 992,1536 985,1540 978,1548 972,1557 958,1575 946,1601 935,1629 910,1687 887,1755 862,1801 858,1811 854,1819 848,1826 842,1832 836,1838 828,1843 820,1848 811,1851 801,1854 791,1856 778,1857 763,1858 L 280,1858 C 278,1858 275,1858 273,1858 269,1858 265,1858 263,1857 260,1856 256,1855 253,1854 250,1852 247,1850 245,1848 242,1846 241,1843 238,1841 234,1835 231,1829 229,1823 227,1816 226,1809 226,1801 226,1793 227,1786 229,1778 L 229,1777 520,1141 C 525,1132 528,1124 530,1115 532,1108 534,1102 534,1095 534,1091 533,1086 531,1082 530,1079 529,1075 527,1072 524,1069 522,1067 519,1064 516,1062 512,1060 508,1059 425,1039 343,1018 261,996 246,992 232,985 220,977 208,969 197,958 189,946 180,934 173,921 168,907 163,892 161,878 161,863 161,851 162,838 166,825 171,812 176,801 184,789 193,777 202,766 215,755 227,745 242,736 259,728 403,665 547,604 691,541 700,536 709,531 715,526 721,522 726,517 730,512 734,507 736,501 739,495 740,489 742,481 743,471 L 743,472 743,471 C 746,423 755,381 770,345 785,309 805,277 828,253 852,227 880,207 911,194 942,179 974,171 1011,168 L 1012,168 Z"/>
          <path fill="none" stroke="rgb(255,179,0)" stroke-width="106" stroke-linejoin="round" d="M 1012,168 C 1048,171 1081,179 1112,194 1143,207 1171,227 1195,253 1218,277 1238,309 1253,345 1267,381 1277,423 1280,471 L 1280,472 1280,471 C 1281,481 1283,489 1284,495 1286,501 1289,507 1293,512 1297,517 1302,522 1308,526 1314,531 1322,536 1332,541 1476,604 1620,665 1763,728 L 1764,728 C 1780,736 1796,745 1808,755 1821,766 1830,777 1838,789 1847,801 1853,812 1856,825 1860,838 1861,851 1861,863 1861,878 1859,892 1854,907 1850,921 1843,934 1834,946 1826,958 1815,969 1803,977 1791,985 1777,992 1762,996 1680,1018 1598,1039 1515,1059 1511,1060 1507,1062 1504,1064 L 1496,1072 C 1494,1075 1493,1079 1491,1082 1490,1086 1489,1091 1489,1095 1489,1102 1490,1108 1493,1115 1495,1124 1498,1132 1503,1141 L 1794,1777 1794,1778 C 1796,1786 1797,1793 1797,1801 1797,1809 1796,1816 1794,1823 1792,1829 1789,1835 1784,1841 1782,1843 1780,1846 1777,1848 1775,1850 1772,1852 1769,1854 L 1760,1857 C 1757,1858 1754,1858 1750,1858 L 1743,1858 1260,1858 C 1245,1857 1233,1856 1222,1854 1212,1851 1203,1848 1195,1843 1187,1838 1180,1832 1175,1826 1169,1819 1165,1811 1161,1801 1135,1755 1113,1687 1088,1629 1077,1601 1065,1575 1051,1557 1045,1548 1038,1540 1031,1536 1028,1533 1025,1531 1021,1530 1018,1528 1015,1528 1011,1528 1008,1528 1005,1528 1002,1530 998,1531 995,1533 992,1536 985,1540 978,1548 972,1557 958,1575 946,1601 935,1629 910,1687 887,1755 862,1801 858,1811 854,1819 848,1826 842,1832 836,1838 828,1843 820,1848 811,1851 801,1854 791,1856 778,1857 763,1858 L 280,1858 273,1858 C 269,1858 265,1858 263,1857 260,1856 256,1855 253,1854 250,1852 247,1850 245,1848 242,1846 241,1843 238,1841 234,1835 231,1829 229,1823 227,1816 226,1809 226,1801 226,1793 227,1786 229,1778 L 229,1777 520,1141 C 525,1132 528,1124 530,1115 532,1108 534,1102 534,1095 534,1091 533,1086 531,1082 530,1079 529,1075 527,1072 L 519,1064 C 516,1062 512,1060 508,1059 425,1039 343,1018 261,996 246,992 232,985 220,977 208,969 197,958 189,946 180,934 173,921 168,907 163,892 161,878 161,863 161,851 162,838 166,825 171,812 176,801 184,789 193,777 202,766 215,755 227,745 242,736 259,728 403,665 547,604 691,541 700,536 709,531 715,526 721,522 726,517 730,512 734,507 736,501 739,495 740,489 742,481 743,471 L 743,472 743,471 C 746,423 755,381 770,345 785,309 805,277 828,253 852,227 880,207 911,194 942,179 974,171 1011,168 L 1012,168 Z"/>
         </g>
        </g>
       </g>
       <g class="com.sun.star.drawing.PolyPolygonShape">
        <g id="id4">
         <rect class="BoundingBox" stroke="none" fill="none" x="550" y="499" width="925" height="829"/>
         <path fill="rgb(255,255,255)" stroke="none" d="M 1223,1317 L 804,1317 802,958 560,960 1020,509 1463,960 1221,961 1223,1317 Z"/>
         <path fill="none" stroke="rgb(255,255,255)" stroke-width="20" stroke-linejoin="round" d="M 1223,1317 L 804,1317 802,958 560,960 1020,509 1463,960 1221,961 1223,1317 Z"/>
        </g>
       </g>
      </g>
     </g>
    </g>
   </g>
  </g>
 </g>
</svg>