<?xml version="1.0" encoding="UTF-8"?>
<!DOCTYPE svg PUBLIC "-//W3C//DTD SVG 1.1//EN" "http://www.w3.org/Graphics/SVG/1.1/DTD/svg11.dtd">
<svg version="1.2" width="20.52mm" height="20.52mm" viewBox="0 0 2052 2052" preserveAspectRatio="xMidYMid" fill-rule="evenodd" stroke-width="28.222" stroke-linejoin="round" xmlns="http://www.w3.org/2000/svg" xmlns:ooo="http://xml.openoffice.org/svg/export" xmlns:xlink="http://www.w3.org/1999/xlink" xmlns:presentation="http://sun.com/xmlns/staroffice/presentation" xmlns:smil="http://www.w3.org/2001/SMIL20/" xmlns:anim="urn:oasis:names:tc:opendocument:xmlns:animation:1.0" xml:space="preserve">
 <defs class="ClipPathGroup">
  <clipPath id="presentation_clip_path" clipPathUnits="userSpaceOnUse">
   <rect x="0" y="0" width="2052" height="2052"/>
  </clipPath>
  <clipPath id="presentation_clip_path_shrink" clipPathUnits="userSpaceOnUse">
   <rect x="2" y="2" width="2048" height="2048"/>
  </clipPath>
 </defs>
 <defs class="TextShapeIndex">
  <g ooo:slide="id1" ooo:id-list="id3 id4 id5 id6 id7 id8 id9 id10 id11 id12 id13 id14 id15 id16 id17"/>
 </defs>
 <defs class="EmbeddedBulletChars">
  <g id="bullet-char-template-57356" transform="scale(0.00048828125,-0.00048828125)">
   <path d="M 580,1141 L 1163,571 580,0 -4,571 580,1141 Z"/>
  </g>
  <g id="bullet-char-template-57354" transform="scale(0.00048828125,-0.00048828125)">
   <path d="M 8,1128 L 1137,1128 1137,0 8,0 8,1128 Z"/>
  </g>
  <g id="bullet-char-template-10146" transform="scale(0.00048828125,-0.00048828125)">
   <path d="M 174,0 L 602,739 174,1481 1456,739 174,0 Z M 1358,739 L 309,1346 659,739 1358,739 Z"/>
  </g>
  <g id="bullet-char-template-10132" transform="scale(0.00048828125,-0.00048828125)">
   <path d="M 2015,739 L 1276,0 717,0 1260,543 174,543 174,936 1260,936 717,1481 1274,1481 2015,739 Z"/>
  </g>
  <g id="bullet-char-template-10007" transform="scale(0.00048828125,-0.00048828125)">
   <path d="M 0,-2 C -7,14 -16,27 -25,37 L 356,567 C 262,823 215,952 215,954 215,979 228,992 255,992 264,992 276,990 289,987 310,991 331,999 354,1012 L 381,999 492,748 772,1049 836,1024 860,1049 C 881,1039 901,1025 922,1006 886,937 835,863 770,784 769,783 710,716 594,584 L 774,223 C 774,196 753,168 711,139 L 727,119 C 717,90 699,76 672,76 641,76 570,178 457,381 L 164,-76 C 142,-110 111,-127 72,-127 30,-127 9,-110 8,-76 1,-67 -2,-52 -2,-32 -2,-23 -1,-13 0,-2 Z"/>
  </g>
  <g id="bullet-char-template-10004" transform="scale(0.00048828125,-0.00048828125)">
   <path d="M 285,-33 C 182,-33 111,30 74,156 52,228 41,333 41,471 41,549 55,616 82,672 116,743 169,778 240,778 293,778 328,747 346,684 L 369,508 C 377,444 397,411 428,410 L 1163,1116 C 1174,1127 1196,1133 1229,1133 1271,1133 1292,1118 1292,1087 L 1292,965 C 1292,929 1282,901 1262,881 L 442,47 C 390,-6 338,-33 285,-33 Z"/>
  </g>
  <g id="bullet-char-template-9679" transform="scale(0.00048828125,-0.00048828125)">
   <path d="M 813,0 C 632,0 489,54 383,161 276,268 223,411 223,592 223,773 276,916 383,1023 489,1130 632,1184 813,1184 992,1184 1136,1130 1245,1023 1353,916 1407,772 1407,592 1407,412 1353,268 1245,161 1136,54 992,0 813,0 Z"/>
  </g>
  <g id="bullet-char-template-8226" transform="scale(0.00048828125,-0.00048828125)">
   <path d="M 346,457 C 273,457 209,483 155,535 101,586 74,649 74,723 74,796 101,859 155,911 209,963 273,989 346,989 419,989 480,963 531,910 582,859 608,796 608,723 608,648 583,586 532,535 482,483 420,457 346,457 Z"/>
  </g>
  <g id="bullet-char-template-8211" transform="scale(0.00048828125,-0.00048828125)">
   <path d="M -4,459 L 1135,459 1135,606 -4,606 -4,459 Z"/>
  </g>
  <g id="bullet-char-template-61548" transform="scale(0.00048828125,-0.00048828125)">
   <path d="M 173,740 C 173,903 231,1043 346,1159 462,1274 601,1332 765,1332 928,1332 1067,1274 1183,1159 1299,1043 1357,903 1357,740 1357,577 1299,437 1183,322 1067,206 928,148 765,148 601,148 462,206 346,322 231,437 173,577 173,740 Z"/>
  </g>
 </defs>
 <g>
  <g id="id2" class="Master_Slide">
   <g id="bg-id2" class="Background"/>
   <g id="bo-id2" class="BackgroundObjects"/>
  </g>
 </g>
 <g class="SlideGroup">
  <g>
   <g id="container-id1">
    <g id="id1" class="Slide" clip-path="url(#presentation_clip_path)">
     <g class="Page">
      <g class="Group">
       <g class="Group">
        <g class="com.sun.star.drawing.ClosedBezierShape">
         <g id="id3">
          <rect class="BoundingBox" stroke="none" fill="none" x="111" y="113" width="1833" height="1826"/>
          <path fill="rgb(0,0,0)" stroke="none" d="M 1028,167 L 1028,167 C 1064,170 1098,178 1129,193 1160,207 1189,227 1213,253 1237,278 1257,310 1272,347 1286,384 1296,426 1299,475 L 1299,476 1299,475 C 1299,475 1299,475 1299,475 1300,485 1302,493 1304,499 1306,506 1309,512 1313,517 1317,522 1322,527 1328,531 1334,536 1342,541 1352,546 1498,610 1644,672 1790,736 L 1791,736 C 1807,744 1823,754 1835,764 1848,775 1858,786 1866,798 1875,810 1881,822 1884,835 1888,848 1889,861 1889,874 1889,889 1887,903 1882,918 1878,932 1871,946 1862,958 1853,970 1842,981 1830,989 1818,998 1804,1005 1789,1009 1705,1031 1622,1052 1538,1073 1534,1074 1530,1076 1527,1078 1524,1081 1522,1083 1519,1086 1517,1089 1516,1093 1514,1096 1513,1100 1512,1105 1512,1109 1512,1116 1513,1123 1516,1130 1518,1139 1521,1147 1526,1156 1526,1156 1526,1156 1526,1156 L 1821,1803 C 1821,1803 1821,1804 1821,1804 1823,1812 1824,1819 1824,1827 1824,1835 1823,1842 1821,1849 1819,1856 1816,1862 1811,1868 1809,1870 1807,1873 1804,1875 1802,1877 1799,1879 1796,1881 1793,1882 1790,1883 1787,1884 1783,1885 1780,1885 1776,1885 1774,1885 1771,1885 1769,1885 L 1279,1885 C 1264,1884 1252,1883 1241,1881 1230,1878 1221,1875 1213,1870 1205,1865 1198,1859 1193,1852 1187,1845 1183,1837 1179,1827 1152,1780 1130,1711 1105,1652 1093,1624 1081,1597 1067,1579 1061,1570 1054,1562 1047,1558 1044,1555 1041,1553 1037,1552 1034,1550 1031,1550 1027,1550 1027,1550 1027,1550 1027,1550 1023,1550 1020,1550 1017,1552 1013,1553 1010,1555 1007,1558 1000,1562 993,1570 987,1579 973,1597 961,1624 949,1652 924,1711 901,1780 875,1827 871,1837 867,1845 861,1852 855,1859 849,1865 841,1870 833,1875 824,1878 813,1881 803,1883 790,1884 775,1885 L 285,1885 C 283,1885 280,1885 278,1885 274,1885 270,1885 267,1884 264,1883 260,1882 257,1881 254,1879 251,1877 249,1875 246,1873 245,1870 242,1868 238,1862 235,1856 233,1849 231,1842 230,1835 230,1827 230,1819 231,1812 233,1804 233,1804 233,1803 233,1803 L 528,1156 528,1156 C 533,1147 536,1139 538,1130 540,1123 542,1116 542,1109 542,1105 541,1100 539,1096 538,1093 537,1089 535,1086 532,1083 530,1081 527,1078 524,1076 520,1074 516,1073 432,1052 349,1031 265,1009 250,1005 236,998 224,989 212,981 201,970 192,958 183,946 176,932 171,918 166,903 164,889 164,874 164,861 165,848 169,835 174,822 179,810 187,798 196,786 206,775 219,764 231,754 246,744 263,736 410,672 556,610 702,546 711,541 720,536 726,531 732,527 737,522 741,517 745,512 747,506 750,499 752,493 754,485 755,475 L 755,476 755,475 C 758,426 767,384 782,347 797,310 817,278 841,253 865,227 894,207 925,193 956,178 989,170 1026,167 L 1026,167 1027,167 C 1027,167 1027,167 1028,167 Z"/>
          <path fill="none" stroke="rgb(0,0,0)" stroke-width="106" stroke-linejoin="round" d="M 1028,167 L 1028,167 C 1064,170 1098,178 1129,193 1160,207 1189,227 1213,253 1237,278 1257,310 1272,347 1286,384 1296,426 1299,475 L 1299,476 1299,475 1299,475 C 1300,485 1302,493 1304,499 1306,506 1309,512 1313,517 1317,522 1322,527 1328,531 1334,536 1342,541 1352,546 1498,610 1644,672 1790,736 L 1791,736 C 1807,744 1823,754 1835,764 1848,775 1858,786 1866,798 1875,810 1881,822 1884,835 1888,848 1889,861 1889,874 1889,889 1887,903 1882,918 1878,932 1871,946 1862,958 1853,970 1842,981 1830,989 1818,998 1804,1005 1789,1009 1705,1031 1622,1052 1538,1073 1534,1074 1530,1076 1527,1078 1524,1081 1522,1083 1519,1086 1517,1089 1516,1093 1514,1096 1513,1100 1512,1105 1512,1109 1512,1116 1513,1123 1516,1130 1518,1139 1521,1147 1526,1156 L 1526,1156 1821,1803 C 1821,1803 1821,1804 1821,1804 1823,1812 1824,1819 1824,1827 1824,1835 1823,1842 1821,1849 1819,1856 1816,1862 1811,1868 1809,1870 1807,1873 1804,1875 1802,1877 1799,1879 1796,1881 1793,1882 1790,1883 1787,1884 1783,1885 1780,1885 1776,1885 1774,1885 1771,1885 1769,1885 L 1279,1885 C 1264,1884 1252,1883 1241,1881 1230,1878 1221,1875 1213,1870 1205,1865 1198,1859 1193,1852 1187,1845 1183,1837 1179,1827 1152,1780 1130,1711 1105,1652 1093,1624 1081,1597 1067,1579 1061,1570 1054,1562 1047,1558 1044,1555 1041,1553 1037,1552 1034,1550 1031,1550 1027,1550 L 1027,1550 C 1023,1550 1020,1550 1017,1552 1013,1553 1010,1555 1007,1558 1000,1562 993,1570 987,1579 973,1597 961,1624 949,1652 924,1711 901,1780 875,1827 871,1837 867,1845 861,1852 855,1859 849,1865 841,1870 833,1875 824,1878 813,1881 803,1883 790,1884 775,1885 L 285,1885 C 283,1885 280,1885 278,1885 274,1885 270,1885 267,1884 264,1883 260,1882 257,1881 254,1879 251,1877 249,1875 246,1873 245,1870 242,1868 238,1862 235,1856 233,1849 231,1842 230,1835 230,1827 230,1819 231,1812 233,1804 233,1804 233,1803 233,1803 L 528,1156 528,1156 C 533,1147 536,1139 538,1130 540,1123 542,1116 542,1109 542,1105 541,1100 539,1096 538,1093 537,1089 535,1086 532,1083 530,1081 527,1078 524,1076 520,1074 516,1073 432,1052 349,1031 265,1009 250,1005 236,998 224,989 212,981 201,970 192,958 183,946 176,932 171,918 166,903 164,889 164,874 164,861 165,848 169,835 174,822 179,810 187,798 196,786 206,775 219,764 231,754 246,744 263,736 410,672 556,610 702,546 711,541 720,536 726,531 732,527 737,522 741,517 745,512 747,506 750,499 752,493 754,485 755,475 L 755,476 755,475 C 758,426 767,384 782,347 797,310 817,278 841,253 865,227 894,207 925,193 956,178 989,170 1026,167 L 1026,167 1027,167 1028,167 Z"/>
         </g>
        </g>
       </g>
       <g class="com.sun.star.drawing.LineShape">
        <g id="id4">
         <rect class="BoundingBox" stroke="none" fill="none" x="973" y="972" width="108" height="108"/>
         <path fill="none" stroke="rgb(255,255,255)" stroke-width="106" stroke-linejoin="round" d="M 1026,1026 L 1026,1026 Z"/>
        </g>
       </g>
       <g class="Group">
        <g class="com.sun.star.drawing.CustomShape">
         <g id="id5">
          <rect class="BoundingBox" stroke="none" fill="none" x="1226" y="630" width="49" height="147"/>
          <path fill="rgb(255,255,255)" stroke="none" d="M 1250,630 L 1250,630 C 1246,630 1242,631 1238,633 1234,635 1231,638 1229,642 1227,646 1226,650 1226,654 L 1226,752 1226,752 C 1226,756 1227,760 1229,764 1231,768 1234,771 1238,773 1242,775 1246,776 1250,776 L 1250,776 1250,776 C 1254,776 1258,775 1262,773 1266,771 1269,768 1271,764 1273,760 1274,756 1274,752 L 1274,654 1274,654 1274,654 C 1274,650 1273,646 1271,642 1269,638 1266,635 1262,633 1258,631 1254,630 1250,630 L 1250,630 Z"/>
         </g>
        </g>
        <g class="com.sun.star.drawing.CustomShape">
         <g id="id6">
          <rect class="BoundingBox" stroke="none" fill="none" x="751" y="891" width="112" height="101"/>
          <path fill="rgb(255,255,255)" stroke="none" d="M 782,891 L 782,891 C 777,891 772,892 767,895 762,898 759,901 756,906 753,911 752,916 752,921 L 752,960 752,961 C 752,966 753,971 756,976 759,981 762,984 767,987 772,990 777,991 782,991 L 831,991 832,991 C 837,991 842,990 847,987 852,984 855,981 858,976 861,971 862,966 862,961 L 862,921 862,921 862,921 C 862,916 861,911 858,906 855,901 852,898 847,895 842,892 837,891 832,891 L 782,891 Z"/>
         </g>
        </g>
        <g class="com.sun.star.drawing.CustomShape">
         <g id="id7">
          <rect class="BoundingBox" stroke="none" fill="none" x="970" y="893" width="110" height="100"/>
          <path fill="rgb(255,255,255)" stroke="none" d="M 999,893 L 1000,893 C 995,893 989,894 985,897 980,900 977,903 974,908 971,912 970,918 970,923 L 970,962 970,962 C 970,967 971,973 974,977 977,982 980,985 985,988 989,991 995,992 1000,992 L 1049,992 1049,992 C 1054,992 1060,991 1064,988 1069,985 1072,982 1075,977 1078,973 1079,967 1079,962 L 1079,922 1079,923 1079,923 C 1079,918 1078,912 1075,908 1072,903 1069,900 1064,897 1060,894 1054,893 1049,893 L 999,893 Z"/>
         </g>
        </g>
        <g class="com.sun.star.drawing.CustomShape">
         <g id="id8">
          <rect class="BoundingBox" stroke="none" fill="none" x="753" y="1056" width="112" height="102"/>
          <path fill="rgb(255,255,255)" stroke="none" d="M 783,1056 L 783,1056 C 778,1056 773,1057 768,1060 763,1063 760,1066 757,1071 754,1076 753,1081 753,1086 L 753,1125 753,1126 C 753,1131 754,1136 757,1141 760,1146 763,1149 768,1152 773,1155 778,1156 783,1156 L 833,1156 834,1156 C 839,1156 844,1155 849,1152 854,1149 857,1146 860,1141 863,1136 864,1131 864,1126 L 864,1086 864,1086 864,1086 C 864,1081 863,1076 860,1071 857,1066 854,1063 849,1060 844,1057 839,1056 834,1056 L 783,1056 Z"/>
         </g>
        </g>
        <g class="com.sun.star.drawing.CustomShape">
         <g id="id9">
          <rect class="BoundingBox" stroke="none" fill="none" x="970" y="1056" width="110" height="102"/>
          <path fill="rgb(255,255,255)" stroke="none" d="M 1000,1056 L 1000,1056 C 995,1056 990,1057 985,1060 980,1063 977,1066 974,1071 971,1076 970,1081 970,1086 L 970,1125 970,1126 C 970,1131 971,1136 974,1141 977,1146 980,1149 985,1152 990,1155 995,1156 1000,1156 L 1048,1156 1049,1156 C 1054,1156 1059,1155 1064,1152 1069,1149 1072,1146 1075,1141 1078,1136 1079,1131 1079,1126 L 1079,1086 1079,1086 1079,1086 C 1079,1081 1078,1076 1075,1071 1072,1066 1069,1063 1064,1060 1059,1057 1054,1056 1049,1056 L 1000,1056 Z"/>
         </g>
        </g>
        <g class="com.sun.star.drawing.CustomShape">
         <g id="id10">
          <rect class="BoundingBox" stroke="none" fill="none" x="753" y="1221" width="112" height="101"/>
          <path fill="rgb(255,255,255)" stroke="none" d="M 783,1221 L 783,1221 C 778,1221 773,1222 768,1225 763,1228 760,1231 757,1236 754,1241 753,1246 753,1251 L 753,1290 753,1291 C 753,1296 754,1301 757,1306 760,1311 763,1314 768,1317 773,1320 778,1321 783,1321 L 833,1321 834,1321 C 839,1321 844,1320 849,1317 854,1314 857,1311 860,1306 863,1301 864,1296 864,1291 L 864,1251 864,1251 864,1251 C 864,1246 863,1241 860,1236 857,1231 854,1228 849,1225 844,1222 839,1221 834,1221 L 783,1221 Z"/>
         </g>
        </g>
        <g class="com.sun.star.drawing.CustomShape">
         <g id="id11">
          <rect class="BoundingBox" stroke="none" fill="none" x="970" y="1221" width="110" height="101"/>
          <path fill="rgb(255,255,255)" stroke="none" d="M 1000,1221 L 1000,1221 C 995,1221 990,1222 985,1225 980,1228 977,1231 974,1236 971,1241 970,1246 970,1251 L 970,1290 970,1291 C 970,1296 971,1301 974,1306 977,1311 980,1314 985,1317 990,1320 995,1321 1000,1321 L 1048,1321 1049,1321 C 1054,1321 1059,1320 1064,1317 1069,1314 1072,1311 1075,1306 1078,1301 1079,1296 1079,1291 L 1079,1251 1079,1251 1079,1251 C 1079,1246 1078,1241 1075,1236 1072,1231 1069,1228 1064,1225 1059,1222 1054,1221 1049,1221 L 1000,1221 Z"/>
         </g>
        </g>
        <g class="com.sun.star.drawing.ClosedBezierShape">
         <g id="id12">
          <rect class="BoundingBox" stroke="none" fill="none" x="629" y="698" width="796" height="725"/>
          <path fill="rgb(255,255,255)" stroke="none" d="M 970,1422 L 679,1422 C 654,1422 629,1397 629,1372 L 629,1026 629,749 C 629,724 654,699 679,699 L 743,699 764,699 764,752 C 764,773 783,796 804,801 825,796 844,773 844,752 L 844,699 865,699 974,699 978,699 978,752 C 978,776 1002,801 1026,802 1051,801 1075,776 1075,752 L 1075,699 1079,699 1188,699 1209,699 1209,752 C 1209,773 1228,796 1249,801 1270,796 1289,773 1289,752 L 1289,699 1310,699 1374,699 C 1399,699 1424,724 1424,749 L 1424,1026 1424,1372 C 1424,1397 1399,1422 1374,1422 L 1083,1422 970,1422 Z M 684,840 L 684,1369 970,1369 1083,1369 1369,1369 1369,840 684,840 Z"/>
         </g>
        </g>
        <g class="com.sun.star.drawing.CustomShape">
         <g id="id13">
          <rect class="BoundingBox" stroke="none" fill="none" x="1004" y="630" width="48" height="147"/>
          <path fill="rgb(255,255,255)" stroke="none" d="M 1027,630 L 1028,630 C 1023,630 1019,631 1016,633 1012,635 1009,638 1007,642 1005,645 1004,649 1004,654 L 1004,752 1004,753 C 1004,757 1005,761 1007,764 1009,768 1012,771 1016,773 1019,775 1023,776 1028,776 L 1027,776 1028,776 C 1032,776 1036,775 1039,773 1043,771 1046,768 1048,764 1050,761 1051,757 1051,753 L 1051,653 1051,654 1051,654 C 1051,649 1050,645 1048,642 1046,638 1043,635 1039,633 1036,631 1032,630 1028,630 L 1027,630 Z"/>
         </g>
        </g>
        <g class="com.sun.star.drawing.CustomShape">
         <g id="id14">
          <rect class="BoundingBox" stroke="none" fill="none" x="779" y="630" width="49" height="147"/>
          <path fill="rgb(255,255,255)" stroke="none" d="M 803,630 L 803,630 C 799,630 795,631 791,633 787,635 784,638 782,642 780,646 779,650 779,654 L 779,752 779,752 C 779,756 780,760 782,764 784,768 787,771 791,773 795,775 799,776 803,776 L 803,776 803,776 C 807,776 811,775 815,773 819,771 822,768 824,764 826,760 827,756 827,752 L 827,654 827,654 827,654 C 827,650 826,646 824,642 822,638 819,635 815,633 811,631 807,630 803,630 L 803,630 Z"/>
         </g>
        </g>
        <g class="com.sun.star.drawing.CustomShape">
         <g id="id15">
          <rect class="BoundingBox" stroke="none" fill="none" x="1181" y="892" width="111" height="101"/>
          <path fill="rgb(255,255,255)" stroke="none" d="M 1211,892 L 1211,892 C 1206,892 1201,893 1196,896 1191,899 1188,902 1185,907 1182,912 1181,917 1181,922 L 1181,961 1181,962 C 1181,967 1182,972 1185,977 1188,982 1191,985 1196,988 1201,991 1206,992 1211,992 L 1260,992 1261,992 C 1266,992 1271,991 1276,988 1281,985 1284,982 1287,977 1290,972 1291,967 1291,962 L 1291,922 1291,922 1291,922 C 1291,917 1290,912 1287,907 1284,902 1281,899 1276,896 1271,893 1266,892 1261,892 L 1211,892 Z"/>
         </g>
        </g>
        <g class="com.sun.star.drawing.CustomShape">
         <g id="id16">
          <rect class="BoundingBox" stroke="none" fill="none" x="1181" y="1058" width="111" height="100"/>
          <path fill="rgb(255,255,255)" stroke="none" d="M 1210,1058 L 1211,1058 C 1206,1058 1200,1059 1196,1062 1191,1065 1188,1068 1185,1073 1182,1077 1181,1083 1181,1088 L 1181,1127 1181,1127 C 1181,1132 1182,1138 1185,1142 1188,1147 1191,1150 1196,1153 1200,1156 1206,1157 1211,1157 L 1261,1157 1261,1157 C 1266,1157 1272,1156 1276,1153 1281,1150 1284,1147 1287,1142 1290,1138 1291,1132 1291,1127 L 1291,1087 1291,1088 1291,1088 C 1291,1083 1290,1077 1287,1073 1284,1068 1281,1065 1276,1062 1272,1059 1266,1058 1261,1058 L 1210,1058 Z"/>
         </g>
        </g>
        <g class="com.sun.star.drawing.CustomShape">
         <g id="id17">
          <rect class="BoundingBox" stroke="none" fill="none" x="1181" y="1223" width="111" height="101"/>
          <path fill="rgb(255,255,255)" stroke="none" d="M 1210,1223 L 1211,1223 C 1206,1223 1200,1224 1196,1227 1191,1230 1188,1233 1185,1238 1182,1242 1181,1248 1181,1253 L 1181,1292 1181,1292 C 1181,1297 1182,1303 1185,1307 1188,1312 1191,1315 1196,1318 1200,1321 1206,1322 1211,1322 L 1261,1322 1261,1322 C 1266,1322 1272,1321 1276,1318 1281,1315 1284,1312 1287,1307 1290,1303 1291,1297 1291,1292 L 1291,1252 1291,1253 1291,1253 C 1291,1248 1290,1242 1287,1238 1284,1233 1281,1230 1276,1227 1272,1224 1266,1223 1261,1223 L 1210,1223 Z"/>
         </g>
        </g>
       </g>
      </g>
     </g>
    </g>
   </g>
  </g>
 </g>
</svg>