<?xml version="1.0" encoding="UTF-8"?>
<!DOCTYPE svg PUBLIC "-//W3C//DTD SVG 1.1//EN" "http://www.w3.org/Graphics/SVG/1.1/DTD/svg11.dtd">
<svg version="1.2" width="20.52mm" height="20.52mm" viewBox="0 0 2052 2052" preserveAspectRatio="xMidYMid" fill-rule="evenodd" stroke-width="28.222" stroke-linejoin="round" xmlns="http://www.w3.org/2000/svg" xmlns:ooo="http://xml.openoffice.org/svg/export" xmlns:xlink="http://www.w3.org/1999/xlink" xmlns:presentation="http://sun.com/xmlns/staroffice/presentation" xmlns:smil="http://www.w3.org/2001/SMIL20/" xmlns:anim="urn:oasis:names:tc:opendocument:xmlns:animation:1.0" xml:space="preserve">
 <defs class="ClipPathGroup">
  <clipPath id="presentation_clip_path" clipPathUnits="userSpaceOnUse">
   <rect x="0" y="0" width="2052" height="2052"/>
  </clipPath>
  <clipPath id="presentation_clip_path_shrink" clipPathUnits="userSpaceOnUse">
   <rect x="2" y="2" width="2048" height="2048"/>
  </clipPath>
 </defs>
 <defs class="TextShapeIndex">
  <g ooo:slide="id1" ooo:id-list="id3 id4"/>
 </defs>
 <defs class="EmbeddedBulletChars">
  <g id="bullet-char-template-57356" transform="scale(0.00048828125,-0.00048828125)">
   <path d="M 580,1141 L 1163,571 580,0 -4,571 580,1141 Z"/>
  </g>
  <g id="bullet-char-template-57354" transform="scale(0.00048828125,-0.00048828125)">
   <path d="M 8,1128 L 1137,1128 1137,0 8,0 8,1128 Z"/>
  </g>
  <g id="bullet-char-template-10146" transform="scale(0.00048828125,-0.00048828125)">
   <path d="M 174,0 L 602,739 174,1481 1456,739 174,0 Z M 1358,739 L 309,1346 659,739 1358,739 Z"/>
  </g>
  <g id="bullet-char-template-10132" transform="scale(0.00048828125,-0.00048828125)">
   <path d="M 2015,739 L 1276,0 717,0 1260,543 174,543 174,936 1260,936 717,1481 1274,1481 2015,739 Z"/>
  </g>
  <g id="bullet-char-template-10007" transform="scale(0.00048828125,-0.00048828125)">
   <path d="M 0,-2 C -7,14 -16,27 -25,37 L 356,567 C 262,823 215,952 215,954 215,979 228,992 255,992 264,992 276,990 289,987 310,991 331,999 354,1012 L 381,999 492,748 772,1049 836,1024 860,1049 C 881,1039 901,1025 922,1006 886,937 835,863 770,784 769,783 710,716 594,584 L 774,223 C 774,196 753,168 711,139 L 727,119 C 717,90 699,76 672,76 641,76 570,178 457,381 L 164,-76 C 142,-110 111,-127 72,-127 30,-127 9,-110 8,-76 1,-67 -2,-52 -2,-32 -2,-23 -1,-13 0,-2 Z"/>
  </g>
  <g id="bullet-char-template-10004" transform="scale(0.00048828125,-0.00048828125)">
   <path d="M 285,-33 C 182,-33 111,30 74,156 52,228 41,333 41,471 41,549 55,616 82,672 116,743 169,778 240,778 293,778 328,747 346,684 L 369,508 C 377,444 397,411 428,410 L 1163,1116 C 1174,1127 1196,1133 1229,1133 1271,1133 1292,1118 1292,1087 L 1292,965 C 1292,929 1282,901 1262,881 L 442,47 C 390,-6 338,-33 285,-33 Z"/>
  </g>
  <g id="bullet-char-template-9679" transform="scale(0.00048828125,-0.00048828125)">
   <path d="M 813,0 C 632,0 489,54 383,161 276,268 223,411 223,592 223,773 276,916 383,1023 489,1130 632,1184 813,1184 992,1184 1136,1130 1245,1023 1353,916 1407,772 1407,592 1407,412 1353,268 1245,161 1136,54 992,0 813,0 Z"/>
  </g>
  <g id="bullet-char-template-8226" transform="scale(0.00048828125,-0.00048828125)">
   <path d="M 346,457 C 273,457 209,483 155,535 101,586 74,649 74,723 74,796 101,859 155,911 209,963 273,989 346,989 419,989 480,963 531,910 582,859 608,796 608,723 608,648 583,586 532,535 482,483 420,457 346,457 Z"/>
  </g>
  <g id="bullet-char-template-8211" transform="scale(0.00048828125,-0.00048828125)">
   <path d="M -4,459 L 1135,459 1135,606 -4,606 -4,459 Z"/>
  </g>
  <g id="bullet-char-template-61548" transform="scale(0.00048828125,-0.00048828125)">
   <path d="M 173,740 C 173,903 231,1043 346,1159 462,1274 601,1332 765,1332 928,1332 1067,1274 1183,1159 1299,1043 1357,903 1357,740 1357,577 1299,437 1183,322 1067,206 928,148 765,148 601,148 462,206 346,322 231,437 173,577 173,740 Z"/>
  </g>
 </defs>
 <g>
  <g id="id2" class="Master_Slide">
   <g id="bg-id2" class="Background"/>
   <g id="bo-id2" class="BackgroundObjects"/>
  </g>
 </g>
 <g class="SlideGroup">
  <g>
   <g id="container-id1">
    <g id="id1" class="Slide" clip-path="url(#presentation_clip_path)">
     <g class="Page">
      <g class="Group">
       <g class="Group">
        <g class="com.sun.star.drawing.ClosedBezierShape">
         <g id="id3">
          <rect class="BoundingBox" stroke="none" fill="none" x="108" y="114" width="1808" height="1798"/>
          <path fill="rgb(0,169,108)" stroke="none" d="M 1013,168 C 1048,171 1082,178 1112,193 1143,207 1171,227 1195,252 1219,277 1238,308 1253,345 1267,381 1277,422 1280,471 L 1280,472 1280,471 C 1281,480 1283,488 1285,494 1287,501 1290,507 1294,512 1298,517 1302,522 1308,526 1314,531 1322,535 1332,540 1476,603 1620,664 1764,727 L 1765,727 C 1780,735 1796,745 1808,755 1821,766 1831,776 1839,788 1847,800 1853,812 1856,825 1860,837 1861,850 1861,863 1861,878 1859,892 1854,906 1850,920 1843,934 1835,946 1826,957 1815,968 1803,976 1791,985 1777,992 1763,996 1680,1017 1598,1038 1515,1059 1511,1060 1507,1062 1504,1064 1502,1067 1500,1069 1497,1072 1495,1075 1494,1078 1492,1081 1491,1085 1490,1090 1490,1094 1490,1101 1491,1108 1494,1115 1496,1124 1499,1132 1503,1140 L 1794,1777 1794,1778 C 1796,1786 1797,1793 1797,1801 1797,1808 1796,1815 1794,1822 1792,1829 1789,1835 1784,1841 1782,1843 1780,1846 1777,1848 1775,1850 1773,1852 1770,1854 1767,1855 1764,1856 1761,1857 1757,1858 1754,1858 1750,1858 1748,1858 1745,1858 1743,1858 L 1260,1858 C 1245,1857 1233,1856 1223,1854 1212,1851 1203,1848 1195,1843 1187,1838 1180,1832 1175,1825 1169,1818 1165,1810 1162,1801 1135,1754 1113,1686 1089,1628 1077,1601 1065,1574 1051,1557 1045,1548 1038,1540 1031,1536 1028,1533 1026,1531 1022,1530 1019,1528 1016,1528 1012,1528 1008,1528 1005,1528 1002,1530 998,1531 995,1533 992,1536 985,1540 978,1548 972,1557 959,1574 947,1601 935,1628 910,1686 888,1754 862,1801 858,1810 854,1818 848,1825 842,1832 836,1838 828,1843 821,1848 812,1851 801,1854 791,1856 778,1857 763,1858 L 280,1858 C 279,1858 276,1858 274,1858 270,1858 266,1858 263,1857 260,1856 256,1855 253,1854 250,1852 247,1850 245,1848 242,1846 241,1843 238,1841 234,1835 231,1829 229,1822 227,1815 226,1808 226,1801 226,1793 227,1786 229,1778 L 229,1777 520,1140 C 525,1132 528,1124 530,1115 532,1108 534,1101 534,1094 534,1090 533,1085 531,1081 530,1078 529,1075 527,1072 524,1069 522,1067 519,1064 516,1062 512,1060 508,1059 425,1038 344,1017 261,996 246,992 232,985 220,976 209,968 198,957 189,946 180,934 173,920 168,906 163,892 161,878 161,863 161,850 162,837 166,825 171,812 176,800 184,788 193,776 203,766 215,755 227,745 242,735 259,727 404,664 548,603 691,540 700,535 709,531 715,526 721,522 726,517 730,512 734,507 736,501 739,494 741,488 743,480 744,471 L 744,472 744,471 C 747,422 755,381 770,345 785,308 805,277 828,252 852,227 881,207 911,193 942,178 974,171 1011,168 L 1012,168 1013,168 Z"/>
          <path fill="none" stroke="rgb(0,169,108)" stroke-width="106" stroke-linejoin="round" d="M 1013,168 C 1048,171 1082,178 1112,193 1143,207 1171,227 1195,252 1219,277 1238,308 1253,345 1267,381 1277,422 1280,471 L 1280,472 1280,471 C 1281,480 1283,488 1285,494 1287,501 1290,507 1294,512 1298,517 1302,522 1308,526 1314,531 1322,535 1332,540 1476,603 1620,664 1764,727 L 1765,727 C 1780,735 1796,745 1808,755 1821,766 1831,776 1839,788 1847,800 1853,812 1856,825 1860,837 1861,850 1861,863 1861,878 1859,892 1854,906 1850,920 1843,934 1835,946 1826,957 1815,968 1803,976 1791,985 1777,992 1763,996 1680,1017 1598,1038 1515,1059 1511,1060 1507,1062 1504,1064 L 1497,1072 C 1495,1075 1494,1078 1492,1081 1491,1085 1490,1090 1490,1094 1490,1101 1491,1108 1494,1115 1496,1124 1499,1132 1503,1140 L 1794,1777 1794,1778 C 1796,1786 1797,1793 1797,1801 1797,1808 1796,1815 1794,1822 1792,1829 1789,1835 1784,1841 1782,1843 1780,1846 1777,1848 1775,1850 1773,1852 1770,1854 L 1761,1857 C 1757,1858 1754,1858 1750,1858 L 1743,1858 1260,1858 C 1245,1857 1233,1856 1223,1854 1212,1851 1203,1848 1195,1843 1187,1838 1180,1832 1175,1825 1169,1818 1165,1810 1162,1801 1135,1754 1113,1686 1089,1628 1077,1601 1065,1574 1051,1557 1045,1548 1038,1540 1031,1536 1028,1533 1026,1531 1022,1530 1019,1528 1016,1528 1012,1528 1008,1528 1005,1528 1002,1530 998,1531 995,1533 992,1536 985,1540 978,1548 972,1557 959,1574 947,1601 935,1628 910,1686 888,1754 862,1801 858,1810 854,1818 848,1825 842,1832 836,1838 828,1843 821,1848 812,1851 801,1854 791,1856 778,1857 763,1858 L 280,1858 274,1858 C 270,1858 266,1858 263,1857 260,1856 256,1855 253,1854 250,1852 247,1850 245,1848 242,1846 241,1843 238,1841 234,1835 231,1829 229,1822 227,1815 226,1808 226,1801 226,1793 227,1786 229,1778 L 229,1777 520,1140 C 525,1132 528,1124 530,1115 532,1108 534,1101 534,1094 534,1090 533,1085 531,1081 530,1078 529,1075 527,1072 L 519,1064 C 516,1062 512,1060 508,1059 425,1038 344,1017 261,996 246,992 232,985 220,976 209,968 198,957 189,946 180,934 173,920 168,906 163,892 161,878 161,863 161,850 162,837 166,825 171,812 176,800 184,788 193,776 203,766 215,755 227,745 242,735 259,727 404,664 548,603 691,540 700,535 709,531 715,526 721,522 726,517 730,512 734,507 736,501 739,494 741,488 743,480 744,471 L 744,472 744,471 C 747,422 755,381 770,345 785,308 805,277 828,252 852,227 881,207 911,193 942,178 974,171 1011,168 L 1012,168 1013,168 Z"/>
         </g>
        </g>
       </g>
       <g class="com.sun.star.drawing.ClosedBezierShape">
        <g id="id4">
         <rect class="BoundingBox" stroke="none" fill="none" x="597" y="625" width="829" height="777"/>
         <path fill="rgb(255,255,255)" stroke="none" d="M 1006,693 C 1054,658 1082,626 1168,626 1363,643 1476,874 1400,996 1325,1170 1189,1289 1014,1400 823,1281 701,1167 613,985 559,844 652,652 858,629 922,626 965,655 1006,693 Z"/>
         <path fill="none" stroke="rgb(255,255,255)" d="M 1006,693 C 1054,658 1082,626 1168,626 1363,643 1476,874 1400,996 1325,1170 1189,1289 1014,1400 823,1281 701,1167 613,985 559,844 652,652 858,629 922,626 965,655 1006,693 Z"/>
        </g>
       </g>
      </g>
     </g>
    </g>
   </g>
  </g>
 </g>
</svg>