<?xml version="1.0" encoding="UTF-8"?>
<!DOCTYPE svg PUBLIC "-//W3C//DTD SVG 1.1//EN" "http://www.w3.org/Graphics/SVG/1.1/DTD/svg11.dtd">
<svg version="1.2" width="20.26mm" height="20.26mm" viewBox="0 0 2026 2026" preserveAspectRatio="xMidYMid" fill-rule="evenodd" stroke-width="28.222" stroke-linejoin="round" xmlns="http://www.w3.org/2000/svg" xmlns:ooo="http://xml.openoffice.org/svg/export" xmlns:xlink="http://www.w3.org/1999/xlink" xmlns:presentation="http://sun.com/xmlns/staroffice/presentation" xmlns:smil="http://www.w3.org/2001/SMIL20/" xmlns:anim="urn:oasis:names:tc:opendocument:xmlns:animation:1.0" xml:space="preserve">
 <defs class="ClipPathGroup">
  <clipPath id="presentation_clip_path" clipPathUnits="userSpaceOnUse">
   <rect x="0" y="0" width="2026" height="2026"/>
  </clipPath>
  <clipPath id="presentation_clip_path_shrink" clipPathUnits="userSpaceOnUse">
   <rect x="2" y="2" width="2022" height="2022"/>
  </clipPath>
 </defs>
 <defs class="TextShapeIndex">
  <g ooo:slide="id1" ooo:id-list="id3"/>
 </defs>
 <defs class="EmbeddedBulletChars">
  <g id="bullet-char-template-57356" transform="scale(0.00048828125,-0.00048828125)">
   <path d="M 580,1141 L 1163,571 580,0 -4,571 580,1141 Z"/>
  </g>
  <g id="bullet-char-template-57354" transform="scale(0.00048828125,-0.00048828125)">
   <path d="M 8,1128 L 1137,1128 1137,0 8,0 8,1128 Z"/>
  </g>
  <g id="bullet-char-template-10146" transform="scale(0.00048828125,-0.00048828125)">
   <path d="M 174,0 L 602,739 174,1481 1456,739 174,0 Z M 1358,739 L 309,1346 659,739 1358,739 Z"/>
  </g>
  <g id="bullet-char-template-10132" transform="scale(0.00048828125,-0.00048828125)">
   <path d="M 2015,739 L 1276,0 717,0 1260,543 174,543 174,936 1260,936 717,1481 1274,1481 2015,739 Z"/>
  </g>
  <g id="bullet-char-template-10007" transform="scale(0.00048828125,-0.00048828125)">
   <path d="M 0,-2 C -7,14 -16,27 -25,37 L 356,567 C 262,823 215,952 215,954 215,979 228,992 255,992 264,992 276,990 289,987 310,991 331,999 354,1012 L 381,999 492,748 772,1049 836,1024 860,1049 C 881,1039 901,1025 922,1006 886,937 835,863 770,784 769,783 710,716 594,584 L 774,223 C 774,196 753,168 711,139 L 727,119 C 717,90 699,76 672,76 641,76 570,178 457,381 L 164,-76 C 142,-110 111,-127 72,-127 30,-127 9,-110 8,-76 1,-67 -2,-52 -2,-32 -2,-23 -1,-13 0,-2 Z"/>
  </g>
  <g id="bullet-char-template-10004" transform="scale(0.00048828125,-0.00048828125)">
   <path d="M 285,-33 C 182,-33 111,30 74,156 52,228 41,333 41,471 41,549 55,616 82,672 116,743 169,778 240,778 293,778 328,747 346,684 L 369,508 C 377,444 397,411 428,410 L 1163,1116 C 1174,1127 1196,1133 1229,1133 1271,1133 1292,1118 1292,1087 L 1292,965 C 1292,929 1282,901 1262,881 L 442,47 C 390,-6 338,-33 285,-33 Z"/>
  </g>
  <g id="bullet-char-template-9679" transform="scale(0.00048828125,-0.00048828125)">
   <path d="M 813,0 C 632,0 489,54 383,161 276,268 223,411 223,592 223,773 276,916 383,1023 489,1130 632,1184 813,1184 992,1184 1136,1130 1245,1023 1353,916 1407,772 1407,592 1407,412 1353,268 1245,161 1136,54 992,0 813,0 Z"/>
  </g>
  <g id="bullet-char-template-8226" transform="scale(0.00048828125,-0.00048828125)">
   <path d="M 346,457 C 273,457 209,483 155,535 101,586 74,649 74,723 74,796 101,859 155,911 209,963 273,989 346,989 419,989 480,963 531,910 582,859 608,796 608,723 608,648 583,586 532,535 482,483 420,457 346,457 Z"/>
  </g>
  <g id="bullet-char-template-8211" transform="scale(0.00048828125,-0.00048828125)">
   <path d="M -4,459 L 1135,459 1135,606 -4,606 -4,459 Z"/>
  </g>
  <g id="bullet-char-template-61548" transform="scale(0.00048828125,-0.00048828125)">
   <path d="M 173,740 C 173,903 231,1043 346,1159 462,1274 601,1332 765,1332 928,1332 1067,1274 1183,1159 1299,1043 1357,903 1357,740 1357,577 1299,437 1183,322 1067,206 928,148 765,148 601,148 462,206 346,322 231,437 173,577 173,740 Z"/>
  </g>
 </defs>
 <g>
  <g id="id2" class="Master_Slide">
   <g id="bg-id2" class="Background"/>
   <g id="bo-id2" class="BackgroundObjects"/>
  </g>
 </g>
 <g class="SlideGroup">
  <g>
   <g id="container-id1">
    <g id="id1" class="Slide" clip-path="url(#presentation_clip_path)">
     <g class="Page">
      <g class="Group">
       <g class="com.sun.star.drawing.ClosedBezierShape">
        <g id="id3">
         <rect class="BoundingBox" stroke="none" fill="none" x="121" y="125" width="1786" height="1778"/>
         <path fill="rgb(255,179,0)" stroke="none" d="M 1014,125 C 1014,125 1015,125 1015,125 1052,128 1087,137 1119,152 1152,166 1181,187 1206,214 1231,240 1252,273 1267,311 1282,349 1292,393 1295,444 L 1295,444 1294,444 C 1295,444 1295,444 1295,444 1296,454 1298,462 1300,469 1302,476 1305,482 1309,487 1314,492 1319,497 1325,502 1332,507 1340,512 1349,517 1501,583 1652,648 1803,713 1803,714 1803,714 1803,714 1821,722 1836,732 1849,742 1863,753 1873,765 1881,777 1890,790 1896,803 1900,816 1904,829 1906,843 1906,856 1906,871 1903,887 1898,902 1893,916 1886,930 1877,943 1868,955 1857,966 1844,976 1832,985 1817,991 1802,996 1715,1018 1629,1040 1542,1062 1538,1064 1534,1065 1531,1068 1528,1070 1525,1073 1523,1076 1520,1079 1519,1082 1518,1086 1516,1090 1516,1095 1516,1100 1516,1106 1517,1114 1519,1121 1521,1130 1525,1138 1530,1148 1530,1148 1530,1148 1530,1148 L 1835,1817 C 1835,1817 1835,1818 1835,1818 1837,1826 1838,1834 1838,1842 1838,1850 1837,1858 1835,1865 1833,1872 1829,1878 1825,1884 1823,1886 1820,1889 1818,1891 1815,1894 1812,1896 1809,1897 1806,1898 1802,1900 1799,1900 1796,1901 1792,1902 1788,1902 1786,1902 1783,1902 1780,1901 L 1274,1901 1274,1901 C 1259,1901 1246,1899 1235,1897 1224,1894 1214,1891 1206,1886 1198,1881 1191,1875 1185,1867 1179,1860 1175,1852 1170,1842 1143,1793 1120,1721 1094,1661 1082,1631 1069,1604 1055,1585 1048,1576 1042,1568 1034,1563 1031,1560 1028,1558 1024,1557 1021,1556 1017,1555 1014,1555 1013,1555 1013,1555 1013,1555 L 1013,1555 C 1009,1555 1006,1556 1003,1557 999,1558 996,1560 993,1563 986,1568 978,1576 972,1585 958,1604 945,1631 933,1661 908,1721 884,1793 857,1842 852,1852 848,1860 842,1867 836,1875 829,1881 821,1886 813,1891 804,1894 792,1897 781,1899 769,1901 753,1901 L 246,1901 C 244,1902 241,1902 239,1902 235,1902 231,1901 228,1900 224,1900 221,1898 218,1897 215,1896 212,1894 209,1891 206,1889 204,1886 202,1884 198,1878 195,1872 192,1865 190,1858 189,1850 189,1842 189,1834 190,1826 192,1818 192,1818 192,1817 192,1817 L 497,1148 497,1148 C 502,1138 506,1130 508,1121 510,1114 511,1106 511,1100 511,1095 511,1090 509,1086 508,1082 507,1079 504,1076 502,1073 500,1070 496,1068 493,1065 489,1064 485,1062 398,1040 312,1018 226,996 225,996 225,996 225,996 210,991 195,985 183,976 170,966 159,955 150,943 141,930 134,916 129,902 124,887 121,871 121,856 121,843 123,829 127,816 131,803 137,790 145,777 154,765 164,753 177,742 190,732 206,722 224,714 L 224,713 C 376,648 526,583 677,517 687,512 695,507 702,502 708,497 714,492 718,487 722,482 725,476 727,469 729,462 731,454 732,444 L 732,444 732,444 732,444 C 735,393 745,349 760,311 775,273 796,240 821,214 846,187 875,166 908,152 940,137 975,128 1012,125 1012,125 1013,125 1013,125 1013,125 1013,125 1013,125 1014,125 1014,125 1014,125 Z"/>
        </g>
       </g>
      </g>
     </g>
    </g>
   </g>
  </g>
 </g>
</svg>