<?xml version="1.0" encoding="UTF-8"?>
<!DOCTYPE svg PUBLIC "-//W3C//DTD SVG 1.1//EN" "http://www.w3.org/Graphics/SVG/1.1/DTD/svg11.dtd">
<svg version="1.2" width="20mm" height="20mm" viewBox="0 0 2000 2000" preserveAspectRatio="xMidYMid" fill-rule="evenodd" stroke-width="28.222" stroke-linejoin="round" xmlns="http://www.w3.org/2000/svg" xmlns:ooo="http://xml.openoffice.org/svg/export" xmlns:xlink="http://www.w3.org/1999/xlink" xmlns:presentation="http://sun.com/xmlns/staroffice/presentation" xmlns:smil="http://www.w3.org/2001/SMIL20/" xmlns:anim="urn:oasis:names:tc:opendocument:xmlns:animation:1.0" xml:space="preserve">
 <defs class="ClipPathGroup">
  <clipPath id="presentation_clip_path" clipPathUnits="userSpaceOnUse">
   <rect x="0" y="0" width="2000" height="2000"/>
  </clipPath>
  <clipPath id="presentation_clip_path_shrink" clipPathUnits="userSpaceOnUse">
   <rect x="2" y="2" width="1996" height="1996"/>
  </clipPath>
 </defs>
 <defs class="TextShapeIndex">
  <g ooo:slide="id1" ooo:id-list="id3"/>
 </defs>
 <defs class="EmbeddedBulletChars">
  <g id="bullet-char-template-57356" transform="scale(0.00048828125,-0.00048828125)">
   <path d="M 580,1141 L 1163,571 580,0 -4,571 580,1141 Z"/>
  </g>
  <g id="bullet-char-template-57354" transform="scale(0.00048828125,-0.00048828125)">
   <path d="M 8,1128 L 1137,1128 1137,0 8,0 8,1128 Z"/>
  </g>
  <g id="bullet-char-template-10146" transform="scale(0.00048828125,-0.00048828125)">
   <path d="M 174,0 L 602,739 174,1481 1456,739 174,0 Z M 1358,739 L 309,1346 659,739 1358,739 Z"/>
  </g>
  <g id="bullet-char-template-10132" transform="scale(0.00048828125,-0.00048828125)">
   <path d="M 2015,739 L 1276,0 717,0 1260,543 174,543 174,936 1260,936 717,1481 1274,1481 2015,739 Z"/>
  </g>
  <g id="bullet-char-template-10007" transform="scale(0.00048828125,-0.00048828125)">
   <path d="M 0,-2 C -7,14 -16,27 -25,37 L 356,567 C 262,823 215,952 215,954 215,979 228,992 255,992 264,992 276,990 289,987 310,991 331,999 354,1012 L 381,999 492,748 772,1049 836,1024 860,1049 C 881,1039 901,1025 922,1006 886,937 835,863 770,784 769,783 710,716 594,584 L 774,223 C 774,196 753,168 711,139 L 727,119 C 717,90 699,76 672,76 641,76 570,178 457,381 L 164,-76 C 142,-110 111,-127 72,-127 30,-127 9,-110 8,-76 1,-67 -2,-52 -2,-32 -2,-23 -1,-13 0,-2 Z"/>
  </g>
  <g id="bullet-char-template-10004" transform="scale(0.00048828125,-0.00048828125)">
   <path d="M 285,-33 C 182,-33 111,30 74,156 52,228 41,333 41,471 41,549 55,616 82,672 116,743 169,778 240,778 293,778 328,747 346,684 L 369,508 C 377,444 397,411 428,410 L 1163,1116 C 1174,1127 1196,1133 1229,1133 1271,1133 1292,1118 1292,1087 L 1292,965 C 1292,929 1282,901 1262,881 L 442,47 C 390,-6 338,-33 285,-33 Z"/>
  </g>
  <g id="bullet-char-template-9679" transform="scale(0.00048828125,-0.00048828125)">
   <path d="M 813,0 C 632,0 489,54 383,161 276,268 223,411 223,592 223,773 276,916 383,1023 489,1130 632,1184 813,1184 992,1184 1136,1130 1245,1023 1353,916 1407,772 1407,592 1407,412 1353,268 1245,161 1136,54 992,0 813,0 Z"/>
  </g>
  <g id="bullet-char-template-8226" transform="scale(0.00048828125,-0.00048828125)">
   <path d="M 346,457 C 273,457 209,483 155,535 101,586 74,649 74,723 74,796 101,859 155,911 209,963 273,989 346,989 419,989 480,963 531,910 582,859 608,796 608,723 608,648 583,586 532,535 482,483 420,457 346,457 Z"/>
  </g>
  <g id="bullet-char-template-8211" transform="scale(0.00048828125,-0.00048828125)">
   <path d="M -4,459 L 1135,459 1135,606 -4,606 -4,459 Z"/>
  </g>
  <g id="bullet-char-template-61548" transform="scale(0.00048828125,-0.00048828125)">
   <path d="M 173,740 C 173,903 231,1043 346,1159 462,1274 601,1332 765,1332 928,1332 1067,1274 1183,1159 1299,1043 1357,903 1357,740 1357,577 1299,437 1183,322 1067,206 928,148 765,148 601,148 462,206 346,322 231,437 173,577 173,740 Z"/>
  </g>
 </defs>
 <g>
  <g id="id2" class="Master_Slide">
   <g id="bg-id2" class="Background"/>
   <g id="bo-id2" class="BackgroundObjects"/>
  </g>
 </g>
 <g class="SlideGroup">
  <g>
   <g id="container-id1">
    <g id="id1" class="Slide" clip-path="url(#presentation_clip_path)">
     <g class="Page">
      <g class="Group">
       <g class="com.sun.star.drawing.ClosedBezierShape">
        <g id="id3">
         <rect class="BoundingBox" stroke="none" fill="none" x="42" y="46" width="1919" height="1910"/>
         <path fill="rgb(255,179,0)" stroke="none" d="M 1002,46 C 1002,46 1002,46 1002,46 1042,49 1080,59 1114,75 1149,91 1181,112 1208,141 1234,170 1257,205 1273,246 1289,287 1299,334 1303,388 L 1303,389 1303,388 C 1303,388 1303,388 1303,388 1304,399 1306,408 1309,415 1311,423 1314,429 1319,435 1323,440 1329,446 1335,451 1343,456 1351,461 1362,467 1524,538 1686,608 1849,678 1849,678 1849,678 1849,678 1868,687 1885,698 1899,709 1913,721 1925,734 1933,747 1943,760 1949,774 1953,788 1958,803 1959,817 1959,831 1959,848 1957,864 1951,880 1946,896 1938,911 1929,924 1919,938 1907,950 1893,960 1880,970 1864,977 1847,982 1754,1006 1662,1029 1568,1053 1564,1054 1560,1056 1557,1059 1553,1061 1550,1064 1548,1067 1545,1071 1544,1075 1542,1079 1541,1083 1540,1088 1540,1093 1540,1100 1541,1108 1544,1116 1546,1125 1550,1135 1555,1145 1555,1145 1555,1145 1555,1145 L 1883,1864 C 1883,1864 1883,1865 1884,1865 1886,1874 1887,1882 1887,1890 1887,1899 1885,1907 1883,1915 1881,1923 1877,1930 1872,1936 1870,1938 1868,1941 1865,1943 1862,1946 1859,1948 1855,1950 1852,1951 1848,1953 1845,1953 1841,1954 1837,1955 1833,1955 1830,1955 1828,1955 1825,1954 L 1281,1954 1280,1954 C 1264,1954 1250,1952 1239,1950 1226,1947 1216,1943 1208,1938 1199,1932 1191,1926 1185,1918 1179,1910 1174,1901 1169,1891 1140,1838 1115,1761 1088,1696 1074,1664 1061,1635 1045,1614 1038,1605 1031,1596 1023,1591 1019,1588 1016,1586 1012,1585 1008,1583 1005,1582 1001,1582 1001,1582 1001,1582 1001,1582 L 1000,1582 C 997,1582 993,1583 990,1585 986,1586 982,1588 978,1591 971,1596 963,1605 956,1614 941,1635 927,1664 914,1696 887,1761 862,1838 832,1891 827,1901 823,1910 816,1918 810,1926 803,1932 794,1938 785,1943 775,1947 763,1950 751,1952 738,1954 721,1954 L 177,1954 C 174,1955 171,1955 169,1955 164,1955 160,1954 157,1953 153,1953 149,1951 146,1950 143,1948 139,1946 137,1943 134,1941 131,1938 129,1936 124,1930 121,1923 119,1915 116,1907 115,1899 115,1890 115,1882 116,1874 118,1865 119,1865 119,1864 119,1864 L 446,1145 446,1145 C 452,1135 456,1125 458,1116 460,1108 462,1100 462,1093 462,1088 461,1083 459,1079 458,1075 456,1071 454,1067 451,1064 449,1061 445,1059 442,1056 438,1054 433,1053 340,1029 248,1006 154,982 154,982 154,982 154,982 137,977 122,970 108,960 95,950 83,938 73,924 63,911 56,896 50,880 45,864 42,848 42,831 42,817 44,803 48,788 53,774 59,760 68,747 77,734 88,721 103,709 116,698 133,687 153,678 L 153,678 C 315,608 477,538 640,467 650,461 659,456 666,451 673,446 679,440 683,435 687,429 690,423 693,415 696,408 697,399 698,388 L 699,388 698,389 698,388 C 702,334 712,287 728,246 745,205 767,170 794,141 821,112 852,91 887,75 922,59 959,49 999,46 1000,46 1000,46 1000,46 1000,46 1000,46 1001,46 1001,46 1001,46 1002,46 Z"/>
        </g>
       </g>
      </g>
     </g>
    </g>
   </g>
  </g>
 </g>
</svg>