<?xml version="1.0" encoding="UTF-8"?>
<!DOCTYPE svg PUBLIC "-//W3C//DTD SVG 1.1//EN" "http://www.w3.org/Graphics/SVG/1.1/DTD/svg11.dtd">
<svg version="1.2" width="20mm" height="20mm" viewBox="0 0 2000 2000" preserveAspectRatio="xMidYMid" fill-rule="evenodd" stroke-width="28.222" stroke-linejoin="round" xmlns="http://www.w3.org/2000/svg" xmlns:ooo="http://xml.openoffice.org/svg/export" xmlns:xlink="http://www.w3.org/1999/xlink" xmlns:presentation="http://sun.com/xmlns/staroffice/presentation" xmlns:smil="http://www.w3.org/2001/SMIL20/" xmlns:anim="urn:oasis:names:tc:opendocument:xmlns:animation:1.0" xml:space="preserve">
 <defs class="ClipPathGroup">
  <clipPath id="presentation_clip_path" clipPathUnits="userSpaceOnUse">
   <rect x="0" y="0" width="2000" height="2000"/>
  </clipPath>
  <clipPath id="presentation_clip_path_shrink" clipPathUnits="userSpaceOnUse">
   <rect x="2" y="2" width="1996" height="1996"/>
  </clipPath>
 </defs>
 <defs class="TextShapeIndex">
  <g ooo:slide="id1" ooo:id-list="id3"/>
 </defs>
 <defs class="EmbeddedBulletChars">
  <g id="bullet-char-template-57356" transform="scale(0.00048828125,-0.00048828125)">
   <path d="M 580,1141 L 1163,571 580,0 -4,571 580,1141 Z"/>
  </g>
  <g id="bullet-char-template-57354" transform="scale(0.00048828125,-0.00048828125)">
   <path d="M 8,1128 L 1137,1128 1137,0 8,0 8,1128 Z"/>
  </g>
  <g id="bullet-char-template-10146" transform="scale(0.00048828125,-0.00048828125)">
   <path d="M 174,0 L 602,739 174,1481 1456,739 174,0 Z M 1358,739 L 309,1346 659,739 1358,739 Z"/>
  </g>
  <g id="bullet-char-template-10132" transform="scale(0.00048828125,-0.00048828125)">
   <path d="M 2015,739 L 1276,0 717,0 1260,543 174,543 174,936 1260,936 717,1481 1274,1481 2015,739 Z"/>
  </g>
  <g id="bullet-char-template-10007" transform="scale(0.00048828125,-0.00048828125)">
   <path d="M 0,-2 C -7,14 -16,27 -25,37 L 356,567 C 262,823 215,952 215,954 215,979 228,992 255,992 264,992 276,990 289,987 310,991 331,999 354,1012 L 381,999 492,748 772,1049 836,1024 860,1049 C 881,1039 901,1025 922,1006 886,937 835,863 770,784 769,783 710,716 594,584 L 774,223 C 774,196 753,168 711,139 L 727,119 C 717,90 699,76 672,76 641,76 570,178 457,381 L 164,-76 C 142,-110 111,-127 72,-127 30,-127 9,-110 8,-76 1,-67 -2,-52 -2,-32 -2,-23 -1,-13 0,-2 Z"/>
  </g>
  <g id="bullet-char-template-10004" transform="scale(0.00048828125,-0.00048828125)">
   <path d="M 285,-33 C 182,-33 111,30 74,156 52,228 41,333 41,471 41,549 55,616 82,672 116,743 169,778 240,778 293,778 328,747 346,684 L 369,508 C 377,444 397,411 428,410 L 1163,1116 C 1174,1127 1196,1133 1229,1133 1271,1133 1292,1118 1292,1087 L 1292,965 C 1292,929 1282,901 1262,881 L 442,47 C 390,-6 338,-33 285,-33 Z"/>
  </g>
  <g id="bullet-char-template-9679" transform="scale(0.00048828125,-0.00048828125)">
   <path d="M 813,0 C 632,0 489,54 383,161 276,268 223,411 223,592 223,773 276,916 383,1023 489,1130 632,1184 813,1184 992,1184 1136,1130 1245,1023 1353,916 1407,772 1407,592 1407,412 1353,268 1245,161 1136,54 992,0 813,0 Z"/>
  </g>
  <g id="bullet-char-template-8226" transform="scale(0.00048828125,-0.00048828125)">
   <path d="M 346,457 C 273,457 209,483 155,535 101,586 74,649 74,723 74,796 101,859 155,911 209,963 273,989 346,989 419,989 480,963 531,910 582,859 608,796 608,723 608,648 583,586 532,535 482,483 420,457 346,457 Z"/>
  </g>
  <g id="bullet-char-template-8211" transform="scale(0.00048828125,-0.00048828125)">
   <path d="M -4,459 L 1135,459 1135,606 -4,606 -4,459 Z"/>
  </g>
  <g id="bullet-char-template-61548" transform="scale(0.00048828125,-0.00048828125)">
   <path d="M 173,740 C 173,903 231,1043 346,1159 462,1274 601,1332 765,1332 928,1332 1067,1274 1183,1159 1299,1043 1357,903 1357,740 1357,577 1299,437 1183,322 1067,206 928,148 765,148 601,148 462,206 346,322 231,437 173,577 173,740 Z"/>
  </g>
 </defs>
 <g>
  <g id="id2" class="Master_Slide">
   <g id="bg-id2" class="Background"/>
   <g id="bo-id2" class="BackgroundObjects"/>
  </g>
 </g>
 <g class="SlideGroup">
  <g>
   <g id="container-id1">
    <g id="id1" class="Slide" clip-path="url(#presentation_clip_path)">
     <g class="Page">
      <g class="Group">
       <g class="com.sun.star.drawing.ClosedBezierShape">
        <g id="id3">
         <rect class="BoundingBox" stroke="none" fill="none" x="49" y="49" width="1904" height="1904"/>
         <path fill="rgb(255,255,255)" stroke="none" d="M 751,418 C 722,418 693,422 665,429 636,437 609,448 584,463 558,478 535,496 514,516 494,537 476,560 461,586 446,611 435,638 427,667 420,695 416,724 416,753 L 416,1247 C 416,1276 420,1306 427,1334 435,1362 446,1389 461,1415 476,1440 494,1463 514,1484 535,1505 558,1523 584,1537 609,1552 636,1563 665,1571 693,1578 722,1582 751,1582 L 1249,1582 C 1278,1582 1308,1578 1336,1571 1364,1563 1391,1552 1417,1537 1442,1523 1466,1505 1486,1484 1507,1463 1525,1440 1539,1415 1554,1389 1565,1362 1573,1334 1581,1306 1584,1276 1584,1247 L 1584,759 1584,753 C 1584,724 1581,695 1573,667 1565,638 1554,611 1539,586 1525,560 1507,537 1486,516 1466,496 1442,478 1417,463 1391,448 1364,437 1336,429 1308,422 1278,418 1249,418 L 751,418 Z M 695,543 C 713,538 732,535 751,535 L 1249,535 C 1268,535 1287,538 1305,543 1324,548 1341,555 1358,564 1375,574 1390,586 1403,599 1417,613 1428,628 1438,644 1447,661 1455,679 1460,697 1464,714 1467,731 1467,748 L 1467,753 1467,1247 C 1467,1266 1465,1285 1460,1303 1455,1322 1447,1339 1438,1356 1428,1373 1417,1388 1403,1401 1390,1415 1375,1426 1358,1436 1341,1445 1324,1453 1305,1458 1287,1463 1268,1465 1249,1465 L 751,1465 C 732,1465 713,1463 695,1458 677,1453 659,1445 642,1436 626,1426 611,1415 597,1401 584,1388 572,1373 562,1356 553,1339 546,1322 541,1303 536,1285 533,1266 533,1247 L 533,753 C 533,734 536,715 541,697 546,679 553,661 562,644 572,628 584,613 597,599 611,586 626,574 642,564 659,555 677,548 695,543 Z M 1377,728 C 1383,716 1387,703 1387,690 1387,676 1383,663 1377,651 1370,640 1360,630 1349,623 1337,617 1324,613 1311,613 1297,613 1284,617 1272,623 1261,630 1251,640 1244,651 1238,663 1234,676 1234,690 1234,703 1238,716 1244,728 1251,739 1261,749 1272,756 1284,762 1297,766 1311,766 1324,766 1337,762 1349,756 1360,749 1370,739 1377,728 Z M 1286,1077 C 1293,1052 1296,1026 1296,1000 1296,974 1293,948 1286,924 1280,899 1270,875 1257,852 1244,830 1228,809 1210,791 1191,773 1171,757 1148,744 1126,731 1102,721 1077,714 1052,707 1026,704 1000,704 974,704 948,707 924,714 899,721 875,731 852,744 830,757 809,773 791,791 773,809 757,830 744,852 731,875 721,899 714,924 707,948 704,974 704,1000 704,1026 707,1052 714,1077 721,1102 731,1126 744,1148 757,1171 773,1191 791,1210 809,1228 830,1244 852,1257 875,1270 899,1280 924,1286 948,1293 974,1296 1000,1296 1026,1296 1052,1293 1077,1286 1102,1280 1126,1270 1148,1257 1171,1244 1191,1228 1210,1210 1228,1191 1244,1171 1257,1148 1270,1126 1280,1102 1286,1077 Z M 946,799 C 964,794 982,792 1000,792 1018,792 1037,794 1054,799 1072,804 1089,811 1104,820 1120,829 1135,840 1147,853 1160,866 1171,880 1181,896 1190,912 1197,929 1201,946 1206,964 1208,982 1208,1000 1208,1018 1206,1037 1201,1054 1197,1072 1190,1089 1181,1104 1171,1120 1160,1135 1147,1147 1135,1160 1120,1171 1104,1181 1089,1190 1072,1197 1054,1201 1037,1206 1018,1208 1000,1208 982,1208 964,1206 946,1201 929,1197 912,1190 896,1181 880,1171 866,1160 853,1147 840,1135 829,1120 820,1104 811,1089 804,1072 799,1054 794,1037 792,1018 792,1000 792,982 794,964 799,946 804,929 811,912 820,896 829,880 840,866 853,853 866,840 880,829 896,820 912,811 929,804 946,799 Z M 1824,1476 C 1740,1620 1620,1740 1476,1824 1331,1907 1167,1951 1001,1951 834,1951 670,1907 525,1824 381,1740 261,1620 177,1476 94,1331 50,1167 50,1001 50,834 94,670 177,525 261,381 381,261 525,177 670,94 834,50 1000,50 1167,50 1331,94 1476,177 1620,261 1740,381 1824,525 1907,670 1951,834 1951,1000 1951,1167 1907,1331 1824,1476 Z"/>
         <path fill="none" stroke="rgb(255,255,255)" d="M 751,418 C 722,418 693,422 665,429 636,437 609,448 584,463 558,478 535,496 514,516 494,537 476,560 461,586 446,611 435,638 427,667 420,695 416,724 416,753 L 416,1247 C 416,1276 420,1306 427,1334 435,1362 446,1389 461,1415 476,1440 494,1463 514,1484 535,1505 558,1523 584,1537 609,1552 636,1563 665,1571 693,1578 722,1582 751,1582 L 1249,1582 C 1278,1582 1308,1578 1336,1571 1364,1563 1391,1552 1417,1537 1442,1523 1466,1505 1486,1484 1507,1463 1525,1440 1539,1415 1554,1389 1565,1362 1573,1334 1581,1306 1584,1276 1584,1247 L 1584,759 1584,753 C 1584,724 1581,695 1573,667 1565,638 1554,611 1539,586 1525,560 1507,537 1486,516 1466,496 1442,478 1417,463 1391,448 1364,437 1336,429 1308,422 1278,418 1249,418 L 751,418 Z"/>
         <path fill="none" stroke="rgb(255,255,255)" d="M 695,543 C 713,538 732,535 751,535 L 1249,535 C 1268,535 1287,538 1305,543 1324,548 1341,555 1358,564 1375,574 1390,586 1403,599 1417,613 1428,628 1438,644 1447,661 1455,679 1460,697 1464,714 1467,731 1467,748 L 1467,753 1467,1247 C 1467,1266 1465,1285 1460,1303 1455,1322 1447,1339 1438,1356 1428,1373 1417,1388 1403,1401 1390,1415 1375,1426 1358,1436 1341,1445 1324,1453 1305,1458 1287,1463 1268,1465 1249,1465 L 751,1465 C 732,1465 713,1463 695,1458 677,1453 659,1445 642,1436 626,1426 611,1415 597,1401 584,1388 572,1373 562,1356 553,1339 546,1322 541,1303 536,1285 533,1266 533,1247 L 533,753 C 533,734 536,715 541,697 546,679 553,661 562,644 572,628 584,613 597,599 611,586 626,574 642,564 659,555 677,548 695,543 Z"/>
         <path fill="none" stroke="rgb(255,255,255)" d="M 1377,728 C 1383,716 1387,703 1387,690 1387,676 1383,663 1377,651 1370,640 1360,630 1349,623 1337,617 1324,613 1311,613 1297,613 1284,617 1272,623 1261,630 1251,640 1244,651 1238,663 1234,676 1234,690 1234,703 1238,716 1244,728 1251,739 1261,749 1272,756 1284,762 1297,766 1311,766 1324,766 1337,762 1349,756 1360,749 1370,739 1377,728 Z"/>
         <path fill="none" stroke="rgb(255,255,255)" d="M 1286,1077 C 1293,1052 1296,1026 1296,1000 1296,974 1293,948 1286,924 1280,899 1270,875 1257,852 1244,830 1228,809 1210,791 1191,773 1171,757 1148,744 1126,731 1102,721 1077,714 1052,707 1026,704 1000,704 974,704 948,707 924,714 899,721 875,731 852,744 830,757 809,773 791,791 773,809 757,830 744,852 731,875 721,899 714,924 707,948 704,974 704,1000 704,1026 707,1052 714,1077 721,1102 731,1126 744,1148 757,1171 773,1191 791,1210 809,1228 830,1244 852,1257 875,1270 899,1280 924,1286 948,1293 974,1296 1000,1296 1026,1296 1052,1293 1077,1286 1102,1280 1126,1270 1148,1257 1171,1244 1191,1228 1210,1210 1228,1191 1244,1171 1257,1148 1270,1126 1280,1102 1286,1077 Z"/>
         <path fill="none" stroke="rgb(255,255,255)" d="M 946,799 C 964,794 982,792 1000,792 1018,792 1037,794 1054,799 1072,804 1089,811 1104,820 1120,829 1135,840 1147,853 1160,866 1171,880 1181,896 1190,912 1197,929 1201,946 1206,964 1208,982 1208,1000 1208,1018 1206,1037 1201,1054 1197,1072 1190,1089 1181,1104 1171,1120 1160,1135 1147,1147 1135,1160 1120,1171 1104,1181 1089,1190 1072,1197 1054,1201 1037,1206 1018,1208 1000,1208 982,1208 964,1206 946,1201 929,1197 912,1190 896,1181 880,1171 866,1160 853,1147 840,1135 829,1120 820,1104 811,1089 804,1072 799,1054 794,1037 792,1018 792,1000 792,982 794,964 799,946 804,929 811,912 820,896 829,880 840,866 853,853 866,840 880,829 896,820 912,811 929,804 946,799 Z"/>
         <path fill="none" stroke="rgb(255,255,255)" d="M 1824,1476 C 1740,1620 1620,1740 1476,1824 1331,1907 1167,1951 1001,1951 834,1951 670,1907 525,1824 381,1740 261,1620 177,1476 94,1331 50,1167 50,1001 50,834 94,670 177,525 261,381 381,261 525,177 670,94 834,50 1000,50 1167,50 1331,94 1476,177 1620,261 1740,381 1824,525 1907,670 1951,834 1951,1000 1951,1167 1907,1331 1824,1476 Z"/>
        </g>
       </g>
      </g>
     </g>
    </g>
   </g>
  </g>
 </g>
</svg>